G04 Layer: TopSilkLayer*
G04 EasyEDA v6.4.7, 2020-09-22T21:54:33+03:00*
G04 a7765446d15b4be3966cb18223edfad2,4ad0dc2c7e0b4634a5fc6f66180d8695,10*
G04 Gerber Generator version 0.2*
G04 Scale: 100 percent, Rotated: No, Reflected: No *
G04 Dimensions in millimeters *
G04 leading zeros omitted , absolute positions ,3 integer and 3 decimal *
%FSLAX33Y33*%
%MOMM*%
G90*
D02*

%ADD10C,0.254000*%
%ADD24C,0.203200*%
%ADD25C,0.202999*%
%ADD26C,0.152400*%

%LPD*%
G54D24*
G01X10160Y55372D02*
G01X10160Y57277D01*
G01X7620Y57277D01*
G01X7620Y49657D01*
G01X10160Y49657D01*
G54D25*
G01X10160Y49657D02*
G01X10160Y55372D01*
G54D10*
G01X36830Y80010D02*
G01X87630Y80010D01*
G01X87630Y62230D01*
G01X36830Y62230D01*
G01X36830Y80010D01*
G01X10430Y20480D02*
G01X8230Y20480D01*
G01X14628Y20480D02*
G01X12428Y20480D01*
G01X8229Y40480D02*
G01X8229Y20480D01*
G01X14628Y40480D02*
G01X14628Y20480D01*
G01X14628Y40480D02*
G01X8229Y40480D01*
G01X24400Y20478D02*
G01X22200Y20478D01*
G01X28598Y20478D02*
G01X26398Y20478D01*
G01X22199Y40478D02*
G01X22199Y20478D01*
G01X28598Y40478D02*
G01X28598Y20478D01*
G01X28598Y40478D02*
G01X22199Y40478D01*
G01X26398Y79849D02*
G01X28598Y79849D01*
G01X22200Y79849D02*
G01X24400Y79849D01*
G01X28599Y59850D02*
G01X28599Y79849D01*
G01X22200Y59850D02*
G01X22200Y79849D01*
G01X22200Y59850D02*
G01X28599Y59850D01*
G01X7620Y78486D02*
G01X10414Y78486D01*
G01X15240Y78486D02*
G01X12446Y78486D01*
G01X15240Y78486D02*
G01X15240Y77231D01*
G01X15240Y75168D02*
G01X15240Y74691D01*
G01X15240Y72628D02*
G01X15240Y72151D01*
G01X15240Y70088D02*
G01X15240Y69611D01*
G01X15240Y67548D02*
G01X15240Y67071D01*
G01X15240Y65008D02*
G01X15240Y64531D01*
G01X15240Y62468D02*
G01X15240Y61991D01*
G01X15240Y59928D02*
G01X15240Y58547D01*
G01X7620Y58547D01*
G01X7620Y59928D01*
G01X7620Y61991D02*
G01X7620Y62468D01*
G01X7620Y64531D02*
G01X7620Y65008D01*
G01X7620Y67071D02*
G01X7620Y67548D01*
G01X7620Y69611D02*
G01X7620Y70088D01*
G01X7620Y72151D02*
G01X7620Y72628D01*
G01X7620Y74691D02*
G01X7620Y75168D01*
G01X7620Y77231D02*
G01X7620Y78486D01*
G01X36830Y36830D02*
G01X87630Y36830D01*
G01X87630Y19050D01*
G01X36830Y19050D01*
G01X36830Y36830D01*
G01X26670Y54356D02*
G01X26670Y53340D01*
G01X27432Y53340D01*
G01X27432Y50800D01*
G01X26670Y50800D01*
G01X26670Y49784D01*
G01X26670Y49784D02*
G01X26670Y49784D01*
G01X26670Y50800D01*
G01X25908Y50800D01*
G01X25908Y53340D01*
G01X26774Y53340D01*
G01X12929Y80080D02*
G01X9930Y80080D01*
G01X9930Y82479D02*
G01X12929Y82479D01*
G01X22630Y83749D02*
G01X25629Y83749D01*
G01X25629Y81350D02*
G01X22630Y81350D01*
G01X42234Y48030D02*
G01X42234Y51029D01*
G01X44633Y51029D02*
G01X44633Y48030D01*
G01X12929Y41980D02*
G01X9930Y41980D01*
G01X9930Y44379D02*
G01X12929Y44379D01*
G01X23900Y44379D02*
G01X26899Y44379D01*
G01X26899Y41980D02*
G01X23900Y41980D01*
G01X82479Y16739D02*
G01X82479Y13740D01*
G01X80080Y13740D02*
G01X80080Y16739D01*
G01X5080Y7556D02*
G01X6350Y7556D01*
G01X6350Y10160D01*
G01X5715Y10160D01*
G01X88265Y10160D02*
G01X87630Y10160D01*
G01X87630Y7620D01*
G01X88900Y7620D01*
G01X88900Y7620D02*
G01X88900Y2540D01*
G01X5080Y2540D01*
G01X5080Y10160D01*
G01X88900Y10160D01*
G01X88900Y7620D01*
G01X63500Y91059D02*
G01X63500Y90170D01*
G01X68580Y90170D01*
G01X68580Y91059D01*
G01X63499Y91059D02*
G01X46870Y91059D01*
G01X85217Y91059D02*
G01X68579Y91059D01*
G01X84175Y90805D02*
G01X83540Y90170D01*
G01X82854Y90855D01*
G01X82854Y90881D01*
G01X85209Y84353D02*
G01X46870Y84328D01*
G01X86349Y92125D02*
G01X45729Y92125D01*
G01X85216Y91059D02*
G01X85217Y84335D01*
G01X86349Y92108D02*
G01X86349Y83108D01*
G01X86349Y83108D02*
G01X45729Y83108D01*
G01X46870Y84361D02*
G01X46870Y91059D01*
G01X45729Y83126D02*
G01X45729Y92125D01*
G01X85852Y14478D02*
G01X86868Y14478D01*
G01X86360Y14986D02*
G01X86360Y13970D01*
G01X46990Y55753D02*
G01X87884Y55753D01*
G01X46990Y43053D02*
G01X87884Y43053D01*
G01X46990Y40513D02*
G01X46990Y47625D01*
G01X46990Y51435D02*
G01X46990Y58293D01*
G01X87884Y58293D01*
G01X87884Y40513D01*
G01X46990Y40513D01*
G01X33090Y68350D02*
G01X33090Y71349D01*
G01X35489Y71349D02*
G01X35489Y68350D01*

%LPD*%
G36*
G01X6850Y52397D02*
G01X6154Y52397D01*
G01X6154Y52285D01*
G01X6436Y52285D01*
G01X6436Y51308D01*
G01X6565Y51308D01*
G01X6565Y52285D01*
G01X6850Y52285D01*
G01X6850Y52397D01*
G37*

%LPD*%
G36*
G01X5024Y52397D02*
G01X4419Y52397D01*
G01X4419Y51308D01*
G01X5024Y51308D01*
G01X5024Y51422D01*
G01X4546Y51422D01*
G01X4546Y51846D01*
G01X4965Y51846D01*
G01X4965Y51960D01*
G01X4546Y51960D01*
G01X4546Y52285D01*
G01X5024Y52285D01*
G01X5024Y52397D01*
G37*

%LPD*%
G36*
G01X3822Y52397D02*
G01X3695Y52397D01*
G01X3695Y51308D01*
G01X4231Y51308D01*
G01X4231Y51422D01*
G01X3822Y51422D01*
G01X3822Y52397D01*
G37*

%LPD*%
G36*
G01X3459Y52397D02*
G01X2857Y52397D01*
G01X2857Y51308D01*
G01X3459Y51308D01*
G01X3459Y51422D01*
G01X2984Y51422D01*
G01X2984Y51846D01*
G01X3403Y51846D01*
G01X3403Y51960D01*
G01X2984Y51960D01*
G01X2984Y52285D01*
G01X3459Y52285D01*
G01X3459Y52397D01*
G37*

%LPD*%
G36*
G01X2297Y52400D02*
G01X2245Y52402D01*
G01X2111Y52383D01*
G01X2009Y52326D01*
G01X1971Y52285D01*
G01X1944Y52237D01*
G01X1928Y52181D01*
G01X1922Y52118D01*
G01X1926Y52062D01*
G01X1940Y52013D01*
G01X1961Y51969D01*
G01X1991Y51932D01*
G01X2087Y51867D01*
G01X2232Y51810D01*
G01X2301Y51787D01*
G01X2357Y51763D01*
G01X2401Y51741D01*
G01X2433Y51719D01*
G01X2456Y51696D01*
G01X2473Y51669D01*
G01X2483Y51637D01*
G01X2486Y51600D01*
G01X2483Y51556D01*
G01X2471Y51519D01*
G01X2453Y51487D01*
G01X2428Y51460D01*
G01X2397Y51440D01*
G01X2361Y51425D01*
G01X2320Y51417D01*
G01X2273Y51414D01*
G01X2226Y51416D01*
G01X2182Y51422D01*
G01X2141Y51433D01*
G01X2103Y51447D01*
G01X2067Y51467D01*
G01X2034Y51491D01*
G01X2002Y51521D01*
G01X1973Y51556D01*
G01X1905Y51470D01*
G01X1936Y51429D01*
G01X1972Y51394D01*
G01X2012Y51365D01*
G01X2057Y51341D01*
G01X2105Y51323D01*
G01X2155Y51310D01*
G01X2208Y51302D01*
G01X2263Y51300D01*
G01X2407Y51321D01*
G01X2519Y51386D01*
G01X2590Y51489D01*
G01X2613Y51625D01*
G01X2609Y51679D01*
G01X2597Y51727D01*
G01X2576Y51769D01*
G01X2547Y51805D01*
G01X2456Y51869D01*
G01X2316Y51925D01*
G01X2245Y51947D01*
G01X2186Y51969D01*
G01X2139Y51990D01*
G01X2105Y52011D01*
G01X2082Y52033D01*
G01X2065Y52060D01*
G01X2055Y52092D01*
G01X2052Y52128D01*
G01X2055Y52166D01*
G01X2065Y52199D01*
G01X2080Y52227D01*
G01X2103Y52250D01*
G01X2130Y52268D01*
G01X2162Y52280D01*
G01X2198Y52288D01*
G01X2237Y52290D01*
G01X2277Y52288D01*
G01X2316Y52282D01*
G01X2354Y52272D01*
G01X2390Y52257D01*
G01X2423Y52239D01*
G01X2455Y52215D01*
G01X2484Y52186D01*
G01X2512Y52153D01*
G01X2580Y52242D01*
G01X2551Y52279D01*
G01X2519Y52311D01*
G01X2482Y52339D01*
G01X2440Y52362D01*
G01X2395Y52379D01*
G01X2347Y52392D01*
G01X2297Y52400D01*
G37*

%LPD*%
G36*
G01X5769Y52390D02*
G01X5621Y52412D01*
G01X5465Y52389D01*
G01X5351Y52318D01*
G01X5281Y52200D01*
G01X5257Y52036D01*
G01X5257Y51666D01*
G01X5280Y51505D01*
G01X5349Y51389D01*
G01X5464Y51318D01*
G01X5621Y51295D01*
G01X5771Y51318D01*
G01X5882Y51386D01*
G01X5952Y51499D01*
G01X5979Y51655D01*
G01X5852Y51668D01*
G01X5845Y51603D01*
G01X5833Y51548D01*
G01X5815Y51503D01*
G01X5791Y51468D01*
G01X5760Y51441D01*
G01X5722Y51422D01*
G01X5675Y51410D01*
G01X5621Y51407D01*
G01X5562Y51410D01*
G01X5512Y51422D01*
G01X5472Y51441D01*
G01X5440Y51468D01*
G01X5417Y51502D01*
G01X5400Y51546D01*
G01X5390Y51601D01*
G01X5387Y51666D01*
G01X5387Y52036D01*
G01X5390Y52102D01*
G01X5400Y52156D01*
G01X5417Y52202D01*
G01X5440Y52237D01*
G01X5472Y52264D01*
G01X5512Y52283D01*
G01X5562Y52294D01*
G01X5621Y52298D01*
G01X5674Y52294D01*
G01X5720Y52283D01*
G01X5758Y52264D01*
G01X5788Y52237D01*
G01X5812Y52203D01*
G01X5831Y52156D01*
G01X5844Y52099D01*
G01X5852Y52031D01*
G01X5979Y52044D01*
G01X5950Y52205D01*
G01X5880Y52321D01*
G01X5769Y52390D01*
G37*

%LPD*%

%LPD*%
G36*
G01X5415Y53921D02*
G01X4719Y53921D01*
G01X4719Y53809D01*
G01X5001Y53809D01*
G01X5001Y52832D01*
G01X5130Y52832D01*
G01X5130Y53809D01*
G01X5415Y53809D01*
G01X5415Y53921D01*
G37*

%LPD*%
G36*
G01X4231Y53921D02*
G01X3822Y53921D01*
G01X3822Y52832D01*
G01X3949Y52832D01*
G01X3949Y53258D01*
G01X4152Y53258D01*
G01X4384Y52832D01*
G01X4531Y52832D01*
G01X4297Y53263D01*
G01X4348Y53275D01*
G01X4393Y53294D01*
G01X4431Y53320D01*
G01X4462Y53352D01*
G01X4487Y53392D01*
G01X4504Y53439D01*
G01X4515Y53493D01*
G01X4518Y53553D01*
G01X4518Y53637D01*
G01X4514Y53703D01*
G01X4500Y53761D01*
G01X4477Y53810D01*
G01X4445Y53850D01*
G01X4404Y53881D01*
G01X4356Y53903D01*
G01X4298Y53917D01*
G01X4231Y53921D01*
G37*

%LPC*%
G36*
G01X4224Y53809D02*
G01X3949Y53809D01*
G01X3949Y53370D01*
G01X4224Y53370D01*
G01X4264Y53373D01*
G01X4299Y53381D01*
G01X4327Y53394D01*
G01X4351Y53413D01*
G01X4367Y53438D01*
G01X4379Y53470D01*
G01X4386Y53508D01*
G01X4389Y53553D01*
G01X4389Y53637D01*
G01X4386Y53678D01*
G01X4379Y53714D01*
G01X4367Y53744D01*
G01X4351Y53769D01*
G01X4327Y53787D01*
G01X4299Y53799D01*
G01X4264Y53807D01*
G01X4224Y53809D01*
G37*

%LPD*%
G36*
G01X2352Y53921D02*
G01X2032Y53921D01*
G01X2032Y52832D01*
G01X2159Y52832D01*
G01X2159Y53218D01*
G01X2352Y53218D01*
G01X2421Y53222D01*
G01X2481Y53236D01*
G01X2531Y53259D01*
G01X2573Y53291D01*
G01X2606Y53331D01*
G01X2629Y53380D01*
G01X2644Y53438D01*
G01X2649Y53505D01*
G01X2649Y53637D01*
G01X2644Y53703D01*
G01X2630Y53761D01*
G01X2606Y53810D01*
G01X2573Y53850D01*
G01X2531Y53881D01*
G01X2481Y53903D01*
G01X2421Y53917D01*
G01X2352Y53921D01*
G37*

%LPC*%
G36*
G01X2346Y53809D02*
G01X2159Y53809D01*
G01X2159Y53329D01*
G01X2346Y53329D01*
G01X2389Y53332D01*
G01X2426Y53340D01*
G01X2457Y53354D01*
G01X2481Y53373D01*
G01X2499Y53396D01*
G01X2512Y53426D01*
G01X2519Y53462D01*
G01X2522Y53505D01*
G01X2522Y53634D01*
G01X2519Y53677D01*
G01X2512Y53713D01*
G01X2499Y53744D01*
G01X2481Y53769D01*
G01X2457Y53787D01*
G01X2426Y53799D01*
G01X2389Y53807D01*
G01X2346Y53809D01*
G37*

%LPD*%
G36*
G01X3370Y53912D02*
G01X3220Y53936D01*
G01X3068Y53912D01*
G01X2959Y53840D01*
G01X2892Y53723D01*
G01X2870Y53560D01*
G01X2870Y53197D01*
G01X2892Y53034D01*
G01X2959Y52915D01*
G01X3068Y52843D01*
G01X3220Y52819D01*
G01X3370Y52843D01*
G01X3479Y52915D01*
G01X3546Y53034D01*
G01X3568Y53197D01*
G01X3568Y53560D01*
G01X3546Y53723D01*
G01X3479Y53840D01*
G01X3370Y53912D01*
G37*

%LPC*%
G36*
G01X3275Y53818D02*
G01X3220Y53822D01*
G01X3165Y53818D01*
G01X3118Y53807D01*
G01X3080Y53788D01*
G01X3050Y53761D01*
G01X3028Y53725D01*
G01X3012Y53679D01*
G01X3002Y53624D01*
G01X2999Y53560D01*
G01X2999Y53197D01*
G01X3002Y53132D01*
G01X3012Y53076D01*
G01X3028Y53031D01*
G01X3050Y52994D01*
G01X3080Y52966D01*
G01X3118Y52946D01*
G01X3165Y52935D01*
G01X3220Y52931D01*
G01X3275Y52935D01*
G01X3321Y52946D01*
G01X3358Y52966D01*
G01X3388Y52994D01*
G01X3411Y53031D01*
G01X3428Y53076D01*
G01X3438Y53132D01*
G01X3441Y53197D01*
G01X3441Y53560D01*
G01X3438Y53624D01*
G01X3428Y53679D01*
G01X3411Y53725D01*
G01X3388Y53761D01*
G01X3358Y53788D01*
G01X3321Y53807D01*
G01X3275Y53818D01*
G37*

%LPD*%

%LPD*%
G36*
G01X5140Y55811D02*
G01X4333Y55811D01*
G01X4333Y54356D01*
G01X5140Y54356D01*
G01X5140Y54505D01*
G01X4505Y54505D01*
G01X4505Y55072D01*
G01X5062Y55072D01*
G01X5062Y55224D01*
G01X4505Y55224D01*
G01X4505Y55659D01*
G01X5140Y55659D01*
G01X5140Y55811D01*
G37*

%LPD*%
G36*
G01X3492Y55811D02*
G01X3065Y55811D01*
G01X3065Y54356D01*
G01X3489Y54356D01*
G01X3602Y54364D01*
G01X3702Y54389D01*
G01X3789Y54431D01*
G01X3863Y54490D01*
G01X3921Y54562D01*
G01X3962Y54646D01*
G01X3987Y54741D01*
G01X3995Y54848D01*
G01X3995Y55311D01*
G01X3987Y55418D01*
G01X3962Y55514D01*
G01X3921Y55600D01*
G01X3863Y55674D01*
G01X3789Y55734D01*
G01X3703Y55777D01*
G01X3604Y55802D01*
G01X3492Y55811D01*
G37*

%LPC*%
G36*
G01X3487Y55659D02*
G01X3235Y55659D01*
G01X3235Y54505D01*
G01X3487Y54505D01*
G01X3632Y54528D01*
G01X3738Y54597D01*
G01X3803Y54706D01*
G01X3825Y54851D01*
G01X3825Y55308D01*
G01X3803Y55455D01*
G01X3738Y55565D01*
G01X3632Y55635D01*
G01X3487Y55659D01*
G37*

%LPD*%
G36*
G01X2725Y55811D02*
G01X1948Y55811D01*
G01X1948Y55659D01*
G01X2250Y55659D01*
G01X2250Y54505D01*
G01X1948Y54505D01*
G01X1948Y54356D01*
G01X2725Y54356D01*
G01X2725Y54505D01*
G01X2420Y54505D01*
G01X2420Y55659D01*
G01X2725Y55659D01*
G01X2725Y55811D01*
G37*

%LPD*%

%LPD*%
G36*
G01X15679Y51493D02*
G01X15509Y51493D01*
G01X15509Y50038D01*
G01X15679Y50038D01*
G01X15679Y50815D01*
G01X15707Y50852D01*
G01X15737Y50885D01*
G01X15768Y50914D01*
G01X15801Y50939D01*
G01X15834Y50959D01*
G01X15869Y50974D01*
G01X15906Y50982D01*
G01X15946Y50985D01*
G01X15983Y50981D01*
G01X16016Y50971D01*
G01X16045Y50953D01*
G01X16070Y50929D01*
G01X16090Y50898D01*
G01X16104Y50860D01*
G01X16113Y50815D01*
G01X16116Y50764D01*
G01X16116Y50038D01*
G01X16286Y50038D01*
G01X16286Y50802D01*
G01X16266Y50944D01*
G01X16205Y51054D01*
G01X16161Y51095D01*
G01X16111Y51124D01*
G01X16056Y51141D01*
G01X15994Y51147D01*
G01X15951Y51144D01*
G01X15910Y51136D01*
G01X15872Y51122D01*
G01X15836Y51102D01*
G01X15803Y51077D01*
G01X15773Y51047D01*
G01X15747Y51013D01*
G01X15725Y50975D01*
G01X15679Y50975D01*
G01X15679Y51493D01*
G37*

%LPD*%
G36*
G01X11391Y51493D02*
G01X10584Y51493D01*
G01X10584Y50038D01*
G01X10754Y50038D01*
G01X10754Y50604D01*
G01X11285Y50604D01*
G01X11285Y50756D01*
G01X10754Y50756D01*
G01X10754Y51341D01*
G01X11391Y51341D01*
G01X11391Y51493D01*
G37*

%LPD*%
G36*
G01X14816Y51501D02*
G01X14706Y51511D01*
G01X14596Y51501D01*
G01X14500Y51470D01*
G01X14417Y51419D01*
G01X14348Y51348D01*
G01X14295Y51258D01*
G01X14257Y51148D01*
G01X14234Y51020D01*
G01X14226Y50873D01*
G01X14226Y50650D01*
G01X14234Y50504D01*
G01X14257Y50377D01*
G01X14295Y50269D01*
G01X14348Y50180D01*
G01X14416Y50110D01*
G01X14498Y50060D01*
G01X14594Y50030D01*
G01X14704Y50020D01*
G01X14814Y50030D01*
G01X14911Y50060D01*
G01X14994Y50110D01*
G01X15062Y50180D01*
G01X15115Y50269D01*
G01X15153Y50377D01*
G01X15176Y50504D01*
G01X15184Y50650D01*
G01X15184Y50873D01*
G01X15176Y51020D01*
G01X15153Y51148D01*
G01X15115Y51258D01*
G01X15062Y51348D01*
G01X14994Y51419D01*
G01X14912Y51470D01*
G01X14816Y51501D01*
G37*

%LPC*%
G36*
G01X14844Y51327D02*
G01X14704Y51356D01*
G01X14565Y51326D01*
G01X14470Y51239D01*
G01X14438Y51171D01*
G01X14415Y51085D01*
G01X14401Y50981D01*
G01X14396Y50858D01*
G01X14396Y50665D01*
G01X14401Y50544D01*
G01X14415Y50441D01*
G01X14438Y50356D01*
G01X14470Y50289D01*
G01X14565Y50203D01*
G01X14704Y50175D01*
G01X14844Y50203D01*
G01X14940Y50289D01*
G01X14971Y50356D01*
G01X14993Y50441D01*
G01X15006Y50544D01*
G01X15011Y50665D01*
G01X15011Y50858D01*
G01X15006Y50981D01*
G01X14993Y51085D01*
G01X14971Y51171D01*
G01X14940Y51239D01*
G01X14844Y51327D01*
G37*

%LPD*%
G36*
G01X14727Y50902D02*
G01X14704Y50904D01*
G01X14681Y50902D01*
G01X14660Y50897D01*
G01X14641Y50889D01*
G01X14625Y50878D01*
G01X14612Y50863D01*
G01X14602Y50843D01*
G01X14596Y50817D01*
G01X14594Y50787D01*
G01X14594Y50741D01*
G01X14596Y50711D01*
G01X14602Y50685D01*
G01X14612Y50665D01*
G01X14625Y50650D01*
G01X14641Y50638D01*
G01X14660Y50630D01*
G01X14681Y50626D01*
G01X14704Y50624D01*
G01X14726Y50626D01*
G01X14747Y50630D01*
G01X14766Y50638D01*
G01X14782Y50650D01*
G01X14796Y50665D01*
G01X14805Y50685D01*
G01X14811Y50711D01*
G01X14813Y50741D01*
G01X14813Y50787D01*
G01X14811Y50817D01*
G01X14805Y50843D01*
G01X14796Y50863D01*
G01X14782Y50878D01*
G01X14767Y50889D01*
G01X14749Y50897D01*
G01X14727Y50902D01*
G37*

%LPD*%
G36*
G01X13547Y51501D02*
G01X13436Y51511D01*
G01X13326Y51501D01*
G01X13230Y51470D01*
G01X13149Y51419D01*
G01X13081Y51348D01*
G01X13026Y51258D01*
G01X12987Y51148D01*
G01X12964Y51020D01*
G01X12956Y50873D01*
G01X12956Y50650D01*
G01X12964Y50504D01*
G01X12987Y50377D01*
G01X13025Y50269D01*
G01X13078Y50180D01*
G01X13146Y50110D01*
G01X13228Y50060D01*
G01X13325Y50030D01*
G01X13436Y50020D01*
G01X13547Y50030D01*
G01X13643Y50060D01*
G01X13725Y50110D01*
G01X13792Y50180D01*
G01X13845Y50269D01*
G01X13883Y50377D01*
G01X13906Y50504D01*
G01X13914Y50650D01*
G01X13914Y50873D01*
G01X13906Y51020D01*
G01X13883Y51148D01*
G01X13845Y51258D01*
G01X13792Y51348D01*
G01X13725Y51419D01*
G01X13643Y51470D01*
G01X13547Y51501D01*
G37*

%LPC*%
G36*
G01X13574Y51327D02*
G01X13436Y51356D01*
G01X13296Y51326D01*
G01X13200Y51239D01*
G01X13169Y51171D01*
G01X13147Y51085D01*
G01X13133Y50981D01*
G01X13129Y50858D01*
G01X13129Y50665D01*
G01X13133Y50544D01*
G01X13147Y50441D01*
G01X13169Y50356D01*
G01X13200Y50289D01*
G01X13296Y50203D01*
G01X13436Y50175D01*
G01X13574Y50203D01*
G01X13670Y50289D01*
G01X13702Y50356D01*
G01X13725Y50441D01*
G01X13739Y50544D01*
G01X13743Y50665D01*
G01X13743Y50858D01*
G01X13739Y50981D01*
G01X13725Y51085D01*
G01X13702Y51171D01*
G01X13670Y51239D01*
G01X13574Y51327D01*
G37*

%LPD*%
G36*
G01X13459Y50902D02*
G01X13436Y50904D01*
G01X13412Y50902D01*
G01X13391Y50897D01*
G01X13373Y50889D01*
G01X13357Y50878D01*
G01X13344Y50863D01*
G01X13335Y50843D01*
G01X13329Y50817D01*
G01X13327Y50787D01*
G01X13327Y50741D01*
G01X13329Y50711D01*
G01X13335Y50685D01*
G01X13344Y50665D01*
G01X13357Y50650D01*
G01X13373Y50638D01*
G01X13391Y50630D01*
G01X13412Y50626D01*
G01X13436Y50624D01*
G01X13458Y50626D01*
G01X13478Y50630D01*
G01X13496Y50638D01*
G01X13512Y50650D01*
G01X13526Y50665D01*
G01X13535Y50685D01*
G01X13541Y50711D01*
G01X13543Y50741D01*
G01X13543Y50787D01*
G01X13541Y50817D01*
G01X13535Y50843D01*
G01X13526Y50863D01*
G01X13512Y50878D01*
G01X13497Y50889D01*
G01X13479Y50897D01*
G01X13459Y50902D01*
G37*

%LPD*%
G36*
G01X12352Y51491D02*
G01X12169Y51511D01*
G01X12061Y51503D01*
G01X11967Y51478D01*
G01X11887Y51438D01*
G01X11821Y51381D01*
G01X11768Y51310D01*
G01X11731Y51224D01*
G01X11709Y51122D01*
G01X11701Y51005D01*
G01X11701Y50540D01*
G01X11709Y50420D01*
G01X11731Y50315D01*
G01X11768Y50225D01*
G01X11821Y50152D01*
G01X11887Y50094D01*
G01X11967Y50053D01*
G01X12060Y50028D01*
G01X12166Y50020D01*
G01X12272Y50027D01*
G01X12365Y50049D01*
G01X12445Y50085D01*
G01X12512Y50137D01*
G01X12564Y50201D01*
G01X12601Y50278D01*
G01X12623Y50369D01*
G01X12631Y50474D01*
G01X12631Y50515D01*
G01X12605Y50695D01*
G01X12524Y50830D01*
G01X12392Y50916D01*
G01X12207Y50944D01*
G01X12152Y50942D01*
G01X12103Y50935D01*
G01X12058Y50923D01*
G01X12019Y50906D01*
G01X11984Y50885D01*
G01X11952Y50861D01*
G01X11924Y50835D01*
G01X11899Y50805D01*
G01X11871Y50805D01*
G01X11871Y51005D01*
G01X11889Y51170D01*
G01X11940Y51277D01*
G01X12029Y51336D01*
G01X12164Y51356D01*
G01X12225Y51353D01*
G01X12277Y51344D01*
G01X12319Y51330D01*
G01X12352Y51310D01*
G01X12378Y51281D01*
G01X12401Y51243D01*
G01X12419Y51196D01*
G01X12433Y51140D01*
G01X12618Y51181D01*
G01X12569Y51331D01*
G01X12484Y51432D01*
G01X12352Y51491D01*
G37*

%LPC*%
G36*
G01X12233Y50782D02*
G01X12164Y50787D01*
G01X12094Y50782D01*
G01X12036Y50769D01*
G01X11985Y50745D01*
G01X11945Y50713D01*
G01X11913Y50671D01*
G01X11890Y50621D01*
G01X11876Y50561D01*
G01X11871Y50492D01*
G01X11871Y50469D01*
G01X11876Y50400D01*
G01X11890Y50340D01*
G01X11913Y50290D01*
G01X11945Y50248D01*
G01X11985Y50216D01*
G01X12036Y50193D01*
G01X12094Y50179D01*
G01X12164Y50175D01*
G01X12233Y50179D01*
G01X12293Y50193D01*
G01X12343Y50216D01*
G01X12385Y50248D01*
G01X12417Y50290D01*
G01X12440Y50340D01*
G01X12454Y50400D01*
G01X12458Y50469D01*
G01X12458Y50492D01*
G01X12454Y50561D01*
G01X12440Y50621D01*
G01X12417Y50671D01*
G01X12385Y50713D01*
G01X12343Y50745D01*
G01X12293Y50769D01*
G01X12233Y50782D01*
G37*

%LPD*%

%LPD*%
G36*
G01X13291Y56573D02*
G01X13121Y56573D01*
G01X13121Y55118D01*
G01X13291Y55118D01*
G01X13291Y55895D01*
G01X13320Y55932D01*
G01X13350Y55965D01*
G01X13381Y55994D01*
G01X13413Y56019D01*
G01X13446Y56039D01*
G01X13481Y56054D01*
G01X13518Y56062D01*
G01X13558Y56065D01*
G01X13595Y56061D01*
G01X13629Y56051D01*
G01X13658Y56033D01*
G01X13682Y56009D01*
G01X13702Y55978D01*
G01X13717Y55940D01*
G01X13725Y55895D01*
G01X13728Y55844D01*
G01X13728Y55118D01*
G01X13898Y55118D01*
G01X13898Y55882D01*
G01X13878Y56024D01*
G01X13817Y56134D01*
G01X13725Y56204D01*
G01X13606Y56227D01*
G01X13564Y56224D01*
G01X13524Y56216D01*
G01X13485Y56202D01*
G01X13449Y56182D01*
G01X13415Y56157D01*
G01X13385Y56127D01*
G01X13359Y56093D01*
G01X13337Y56055D01*
G01X13291Y56055D01*
G01X13291Y56573D01*
G37*

%LPD*%
G36*
G01X11244Y56567D02*
G01X11046Y56591D01*
G01X10852Y56563D01*
G01X10718Y56481D01*
G01X10671Y56420D01*
G01X10635Y56341D01*
G01X10611Y56246D01*
G01X10599Y56134D01*
G01X10769Y56116D01*
G01X10793Y56270D01*
G01X10840Y56367D01*
G01X10876Y56397D01*
G01X10923Y56418D01*
G01X10980Y56432D01*
G01X11049Y56436D01*
G01X11118Y56432D01*
G01X11178Y56422D01*
G01X11226Y56404D01*
G01X11264Y56380D01*
G01X11292Y56348D01*
G01X11312Y56307D01*
G01X11324Y56259D01*
G01X11328Y56202D01*
G01X11328Y56121D01*
G01X11325Y56078D01*
G01X11318Y56040D01*
G01X11307Y56007D01*
G01X11290Y55979D01*
G01X11269Y55956D01*
G01X11242Y55937D01*
G01X11208Y55922D01*
G01X11168Y55910D01*
G01X10871Y55836D01*
G01X10739Y55783D01*
G01X10650Y55699D01*
G01X10600Y55582D01*
G01X10584Y55427D01*
G01X10584Y55118D01*
G01X11513Y55118D01*
G01X11513Y55267D01*
G01X10754Y55267D01*
G01X10754Y55432D01*
G01X10756Y55485D01*
G01X10764Y55530D01*
G01X10777Y55569D01*
G01X10795Y55600D01*
G01X10817Y55626D01*
G01X10846Y55647D01*
G01X10880Y55664D01*
G01X10919Y55676D01*
G01X11216Y55747D01*
G01X11282Y55767D01*
G01X11339Y55793D01*
G01X11387Y55824D01*
G01X11427Y55862D01*
G01X11480Y55961D01*
G01X11498Y56098D01*
G01X11498Y56222D01*
G01X11470Y56380D01*
G01X11384Y56497D01*
G01X11244Y56567D01*
G37*

%LPD*%
G36*
G01X12429Y56581D02*
G01X12319Y56591D01*
G01X12209Y56581D01*
G01X12113Y56550D01*
G01X12031Y56499D01*
G01X11963Y56428D01*
G01X11909Y56338D01*
G01X11869Y56228D01*
G01X11846Y56100D01*
G01X11838Y55953D01*
G01X11838Y55730D01*
G01X11846Y55584D01*
G01X11869Y55457D01*
G01X11907Y55349D01*
G01X11960Y55260D01*
G01X12028Y55190D01*
G01X12110Y55140D01*
G01X12206Y55110D01*
G01X12316Y55100D01*
G01X12428Y55110D01*
G01X12525Y55140D01*
G01X12607Y55190D01*
G01X12674Y55260D01*
G01X12727Y55349D01*
G01X12766Y55457D01*
G01X12788Y55584D01*
G01X12796Y55730D01*
G01X12796Y55953D01*
G01X12788Y56100D01*
G01X12766Y56228D01*
G01X12727Y56338D01*
G01X12674Y56428D01*
G01X12607Y56499D01*
G01X12526Y56550D01*
G01X12429Y56581D01*
G37*

%LPC*%
G36*
G01X12456Y56407D02*
G01X12316Y56436D01*
G01X12177Y56406D01*
G01X12082Y56319D01*
G01X12050Y56251D01*
G01X12027Y56165D01*
G01X12013Y56061D01*
G01X12009Y55938D01*
G01X12009Y55745D01*
G01X12013Y55624D01*
G01X12027Y55521D01*
G01X12050Y55436D01*
G01X12082Y55369D01*
G01X12177Y55283D01*
G01X12316Y55255D01*
G01X12456Y55283D01*
G01X12552Y55369D01*
G01X12583Y55436D01*
G01X12606Y55521D01*
G01X12619Y55624D01*
G01X12623Y55745D01*
G01X12623Y55938D01*
G01X12619Y56061D01*
G01X12606Y56165D01*
G01X12583Y56251D01*
G01X12552Y56319D01*
G01X12456Y56407D01*
G37*

%LPD*%
G36*
G01X12340Y55982D02*
G01X12316Y55984D01*
G01X12293Y55982D01*
G01X12272Y55977D01*
G01X12253Y55969D01*
G01X12237Y55958D01*
G01X12225Y55943D01*
G01X12216Y55923D01*
G01X12211Y55897D01*
G01X12209Y55867D01*
G01X12209Y55821D01*
G01X12211Y55791D01*
G01X12216Y55765D01*
G01X12225Y55745D01*
G01X12237Y55730D01*
G01X12253Y55718D01*
G01X12272Y55710D01*
G01X12293Y55706D01*
G01X12316Y55704D01*
G01X12339Y55706D01*
G01X12360Y55710D01*
G01X12378Y55718D01*
G01X12395Y55730D01*
G01X12408Y55745D01*
G01X12418Y55765D01*
G01X12423Y55791D01*
G01X12425Y55821D01*
G01X12425Y55867D01*
G01X12423Y55897D01*
G01X12418Y55923D01*
G01X12408Y55943D01*
G01X12395Y55958D01*
G01X12379Y55969D01*
G01X12361Y55977D01*
G01X12340Y55982D01*
G37*

%LPD*%

%LPD*%
G36*
G01X30639Y92558D02*
G01X30594Y92560D01*
G01X30550Y92558D01*
G01X30510Y92552D01*
G01X30475Y92541D01*
G01X30444Y92527D01*
G01X30420Y92507D01*
G01X30402Y92480D01*
G01X30392Y92446D01*
G01X30388Y92405D01*
G01X30388Y92389D01*
G01X30392Y92349D01*
G01X30402Y92315D01*
G01X30420Y92289D01*
G01X30444Y92270D01*
G01X30475Y92256D01*
G01X30510Y92245D01*
G01X30550Y92239D01*
G01X30594Y92237D01*
G01X30637Y92239D01*
G01X30677Y92245D01*
G01X30712Y92256D01*
G01X30744Y92270D01*
G01X30769Y92289D01*
G01X30787Y92315D01*
G01X30799Y92349D01*
G01X30802Y92389D01*
G01X30802Y92405D01*
G01X30799Y92446D01*
G01X30787Y92480D01*
G01X30769Y92507D01*
G01X30744Y92527D01*
G01X30713Y92541D01*
G01X30678Y92552D01*
G01X30639Y92558D01*
G37*

%LPD*%
G36*
G01X7168Y92558D02*
G01X7124Y92560D01*
G01X7079Y92558D01*
G01X7040Y92552D01*
G01X7005Y92541D01*
G01X6974Y92527D01*
G01X6949Y92507D01*
G01X6931Y92480D01*
G01X6919Y92446D01*
G01X6916Y92405D01*
G01X6916Y92389D01*
G01X6919Y92349D01*
G01X6931Y92315D01*
G01X6949Y92289D01*
G01X6974Y92270D01*
G01X7005Y92256D01*
G01X7040Y92245D01*
G01X7079Y92239D01*
G01X7124Y92237D01*
G01X7167Y92239D01*
G01X7205Y92245D01*
G01X7241Y92256D01*
G01X7272Y92270D01*
G01X7297Y92289D01*
G01X7315Y92315D01*
G01X7326Y92349D01*
G01X7330Y92389D01*
G01X7330Y92405D01*
G01X7326Y92446D01*
G01X7316Y92480D01*
G01X7298Y92507D01*
G01X7274Y92527D01*
G01X7243Y92541D01*
G01X7208Y92552D01*
G01X7168Y92558D01*
G37*

%LPD*%
G36*
G01X27739Y91376D02*
G01X26344Y91376D01*
G01X26344Y91122D01*
G01X27739Y91122D01*
G01X27739Y91376D01*
G37*

%LPD*%
G36*
G01X12821Y91376D02*
G01X11427Y91376D01*
G01X11427Y91122D01*
G01X12821Y91122D01*
G01X12821Y91376D01*
G37*

%LPD*%
G36*
G01X33375Y92478D02*
G01X33121Y92478D01*
G01X33121Y90297D01*
G01X33375Y90297D01*
G01X33375Y91048D01*
G01X33492Y91048D01*
G01X33919Y90297D01*
G01X34206Y90297D01*
G01X33690Y91170D01*
G01X34213Y91932D01*
G01X33914Y91932D01*
G01X33492Y91264D01*
G01X33375Y91264D01*
G01X33375Y92478D01*
G37*

%LPD*%
G36*
G01X30723Y91932D02*
G01X30467Y91932D01*
G01X30467Y90297D01*
G01X30723Y90297D01*
G01X30723Y91932D01*
G37*

%LPD*%
G36*
G01X28989Y92478D02*
G01X28348Y92478D01*
G01X28348Y90297D01*
G01X28986Y90297D01*
G01X29100Y90302D01*
G01X29206Y90319D01*
G01X29303Y90347D01*
G01X29391Y90386D01*
G01X29471Y90436D01*
G01X29542Y90497D01*
G01X29630Y90606D01*
G01X29693Y90732D01*
G01X29730Y90875D01*
G01X29743Y91036D01*
G01X29743Y91729D01*
G01X29730Y91891D01*
G01X29693Y92035D01*
G01X29630Y92162D01*
G01X29542Y92273D01*
G01X29471Y92336D01*
G01X29391Y92387D01*
G01X29303Y92427D01*
G01X29207Y92456D01*
G01X29102Y92473D01*
G01X28989Y92478D01*
G37*

%LPC*%
G36*
G01X28981Y92252D02*
G01X28602Y92252D01*
G01X28602Y90523D01*
G01X28981Y90523D01*
G01X29097Y90531D01*
G01X29198Y90557D01*
G01X29285Y90600D01*
G01X29357Y90660D01*
G01X29414Y90734D01*
G01X29454Y90822D01*
G01X29478Y90923D01*
G01X29486Y91038D01*
G01X29486Y91727D01*
G01X29478Y91842D01*
G01X29454Y91945D01*
G01X29414Y92035D01*
G01X29357Y92113D01*
G01X29285Y92174D01*
G01X29198Y92217D01*
G01X29097Y92244D01*
G01X28981Y92252D01*
G37*

%LPD*%
G36*
G01X24485Y92478D02*
G01X24112Y92478D01*
G01X24112Y90297D01*
G01X24348Y90297D01*
G01X24348Y92166D01*
G01X24777Y90843D01*
G01X25072Y90843D01*
G01X25496Y92168D01*
G01X25496Y90297D01*
G01X25735Y90297D01*
G01X25735Y92478D01*
G01X25379Y92478D01*
G01X24932Y91079D01*
G01X24485Y92478D01*
G37*

%LPD*%
G36*
G01X21125Y92478D02*
G01X20304Y92478D01*
G01X20304Y90297D01*
G01X20561Y90297D01*
G01X20561Y91150D01*
G01X20965Y91150D01*
G01X21427Y90297D01*
G01X21722Y90297D01*
G01X21254Y91158D01*
G01X21357Y91182D01*
G01X21446Y91221D01*
G01X21522Y91274D01*
G01X21584Y91340D01*
G01X21633Y91420D01*
G01X21668Y91513D01*
G01X21689Y91619D01*
G01X21696Y91739D01*
G01X21696Y91907D01*
G01X21687Y92039D01*
G01X21660Y92154D01*
G01X21615Y92253D01*
G01X21551Y92334D01*
G01X21472Y92397D01*
G01X21374Y92442D01*
G01X21258Y92469D01*
G01X21125Y92478D01*
G37*

%LPC*%
G36*
G01X21109Y92252D02*
G01X20561Y92252D01*
G01X20561Y91373D01*
G01X21109Y91373D01*
G01X21257Y91395D01*
G01X21361Y91460D01*
G01X21420Y91574D01*
G01X21440Y91739D01*
G01X21440Y91909D01*
G01X21420Y92062D01*
G01X21361Y92168D01*
G01X21257Y92231D01*
G01X21109Y92252D01*
G37*

%LPD*%
G36*
G01X15928Y92478D02*
G01X15107Y92478D01*
G01X15107Y90297D01*
G01X15361Y90297D01*
G01X15361Y91150D01*
G01X15765Y91150D01*
G01X16230Y90297D01*
G01X16525Y90297D01*
G01X16055Y91158D01*
G01X16157Y91182D01*
G01X16247Y91221D01*
G01X16323Y91274D01*
G01X16385Y91340D01*
G01X16434Y91420D01*
G01X16469Y91513D01*
G01X16490Y91619D01*
G01X16497Y91739D01*
G01X16497Y91907D01*
G01X16488Y92039D01*
G01X16461Y92154D01*
G01X16417Y92253D01*
G01X16355Y92334D01*
G01X16274Y92397D01*
G01X16175Y92442D01*
G01X16060Y92469D01*
G01X15928Y92478D01*
G37*

%LPC*%
G36*
G01X15910Y92252D02*
G01X15361Y92252D01*
G01X15361Y91373D01*
G01X15910Y91373D01*
G01X16059Y91395D01*
G01X16162Y91460D01*
G01X16220Y91574D01*
G01X16240Y91739D01*
G01X16240Y91909D01*
G01X16220Y92062D01*
G01X16162Y92168D01*
G01X16059Y92231D01*
G01X15910Y92252D01*
G37*

%LPD*%
G36*
G01X14071Y92478D02*
G01X13428Y92478D01*
G01X13428Y90297D01*
G01X13685Y90297D01*
G01X13685Y91071D01*
G01X14066Y91071D01*
G01X14204Y91080D01*
G01X14325Y91107D01*
G01X14428Y91152D01*
G01X14513Y91216D01*
G01X14580Y91297D01*
G01X14627Y91395D01*
G01X14656Y91510D01*
G01X14665Y91643D01*
G01X14665Y91909D01*
G01X14656Y92042D01*
G01X14627Y92157D01*
G01X14580Y92255D01*
G01X14513Y92336D01*
G01X14428Y92399D01*
G01X14326Y92443D01*
G01X14207Y92469D01*
G01X14071Y92478D01*
G37*

%LPC*%
G36*
G01X14058Y92252D02*
G01X13685Y92252D01*
G01X13685Y91292D01*
G01X14058Y91292D01*
G01X14216Y91313D01*
G01X14325Y91376D01*
G01X14390Y91485D01*
G01X14411Y91643D01*
G01X14411Y91902D01*
G01X14390Y92060D01*
G01X14325Y92168D01*
G01X14216Y92231D01*
G01X14058Y92252D01*
G37*

%LPD*%
G36*
G01X10471Y91951D02*
G01X10378Y91960D01*
G01X10253Y91942D01*
G01X10137Y91889D01*
G01X10040Y91806D01*
G01X9974Y91701D01*
G01X9906Y91701D01*
G01X9906Y91932D01*
G01X9649Y91932D01*
G01X9649Y90297D01*
G01X9906Y90297D01*
G01X9906Y91460D01*
G01X9991Y91567D01*
G01X10086Y91648D01*
G01X10138Y91678D01*
G01X10192Y91699D01*
G01X10248Y91712D01*
G01X10307Y91716D01*
G01X10362Y91711D01*
G01X10411Y91696D01*
G01X10455Y91669D01*
G01X10492Y91633D01*
G01X10544Y91529D01*
G01X10561Y91386D01*
G01X10561Y90297D01*
G01X10817Y90297D01*
G01X10817Y91440D01*
G01X10810Y91550D01*
G01X10787Y91649D01*
G01X10749Y91738D01*
G01X10695Y91815D01*
G01X10630Y91879D01*
G01X10555Y91924D01*
G01X10471Y91951D01*
G37*

%LPD*%
G36*
G01X7251Y91932D02*
G01X6995Y91932D01*
G01X6995Y90297D01*
G01X7251Y90297D01*
G01X7251Y91932D01*
G37*

%LPD*%
G36*
G01X6164Y91933D02*
G01X6024Y91960D01*
G01X5967Y91957D01*
G01X5911Y91945D01*
G01X5856Y91926D01*
G01X5803Y91899D01*
G01X5715Y91819D01*
G01X5656Y91701D01*
G01X5588Y91701D01*
G01X5588Y91932D01*
G01X5331Y91932D01*
G01X5331Y90297D01*
G01X5588Y90297D01*
G01X5588Y91460D01*
G01X5623Y91512D01*
G01X5662Y91560D01*
G01X5705Y91604D01*
G01X5753Y91643D01*
G01X5802Y91675D01*
G01X5850Y91698D01*
G01X5897Y91712D01*
G01X5943Y91716D01*
G01X5983Y91713D01*
G01X6018Y91702D01*
G01X6049Y91685D01*
G01X6075Y91660D01*
G01X6097Y91629D01*
G01X6111Y91593D01*
G01X6120Y91553D01*
G01X6123Y91508D01*
G01X6123Y91259D01*
G01X6365Y91259D01*
G01X6365Y91541D01*
G01X6342Y91719D01*
G01X6273Y91851D01*
G01X6164Y91933D01*
G37*

%LPD*%
G36*
G01X23070Y92495D02*
G01X22910Y92506D01*
G01X22748Y92495D01*
G01X22607Y92459D01*
G01X22487Y92399D01*
G01X22387Y92316D01*
G01X22309Y92208D01*
G01X22254Y92079D01*
G01X22220Y91926D01*
G01X22209Y91752D01*
G01X22209Y91031D01*
G01X22214Y90911D01*
G01X22229Y90801D01*
G01X22253Y90701D01*
G01X22287Y90612D01*
G01X22331Y90532D01*
G01X22385Y90462D01*
G01X22484Y90377D01*
G01X22603Y90317D01*
G01X22744Y90281D01*
G01X22905Y90269D01*
G01X23067Y90281D01*
G01X23209Y90317D01*
G01X23329Y90377D01*
G01X23428Y90462D01*
G01X23482Y90532D01*
G01X23526Y90612D01*
G01X23560Y90701D01*
G01X23584Y90801D01*
G01X23599Y90911D01*
G01X23604Y91031D01*
G01X23604Y91752D01*
G01X23593Y91926D01*
G01X23560Y92078D01*
G01X23505Y92208D01*
G01X23428Y92316D01*
G01X23329Y92399D01*
G01X23210Y92459D01*
G01X23070Y92495D01*
G37*

%LPC*%
G36*
G01X23015Y92273D02*
G01X22905Y92280D01*
G01X22797Y92273D01*
G01X22704Y92249D01*
G01X22627Y92210D01*
G01X22567Y92156D01*
G01X22522Y92084D01*
G01X22489Y91993D01*
G01X22470Y91882D01*
G01X22463Y91752D01*
G01X22463Y91031D01*
G01X22470Y90898D01*
G01X22489Y90786D01*
G01X22522Y90694D01*
G01X22567Y90622D01*
G01X22627Y90566D01*
G01X22704Y90526D01*
G01X22797Y90503D01*
G01X22905Y90495D01*
G01X23015Y90503D01*
G01X23108Y90526D01*
G01X23185Y90566D01*
G01X23246Y90622D01*
G01X23290Y90694D01*
G01X23322Y90786D01*
G01X23341Y90898D01*
G01X23347Y91031D01*
G01X23347Y91752D01*
G01X23341Y91882D01*
G01X23322Y91993D01*
G01X23290Y92084D01*
G01X23246Y92156D01*
G01X23185Y92210D01*
G01X23108Y92249D01*
G01X23015Y92273D01*
G37*

%LPD*%
G36*
G01X17871Y92495D02*
G01X17711Y92506D01*
G01X17549Y92495D01*
G01X17409Y92459D01*
G01X17288Y92399D01*
G01X17188Y92316D01*
G01X17110Y92208D01*
G01X17055Y92079D01*
G01X17021Y91926D01*
G01X17010Y91752D01*
G01X17010Y91031D01*
G01X17015Y90911D01*
G01X17030Y90801D01*
G01X17055Y90701D01*
G01X17089Y90612D01*
G01X17133Y90532D01*
G01X17188Y90462D01*
G01X17287Y90377D01*
G01X17407Y90317D01*
G01X17547Y90281D01*
G01X17708Y90269D01*
G01X17869Y90281D01*
G01X18010Y90317D01*
G01X18130Y90377D01*
G01X18229Y90462D01*
G01X18283Y90532D01*
G01X18328Y90612D01*
G01X18363Y90701D01*
G01X18387Y90801D01*
G01X18402Y90911D01*
G01X18407Y91031D01*
G01X18407Y91752D01*
G01X18396Y91926D01*
G01X18363Y92078D01*
G01X18307Y92208D01*
G01X18229Y92316D01*
G01X18130Y92399D01*
G01X18011Y92459D01*
G01X17871Y92495D01*
G37*

%LPC*%
G36*
G01X17817Y92273D02*
G01X17708Y92280D01*
G01X17600Y92273D01*
G01X17507Y92249D01*
G01X17431Y92210D01*
G01X17371Y92156D01*
G01X17325Y92084D01*
G01X17292Y91993D01*
G01X17273Y91882D01*
G01X17266Y91752D01*
G01X17266Y91031D01*
G01X17273Y90898D01*
G01X17292Y90786D01*
G01X17325Y90694D01*
G01X17371Y90622D01*
G01X17431Y90566D01*
G01X17507Y90526D01*
G01X17600Y90503D01*
G01X17708Y90495D01*
G01X17817Y90503D01*
G01X17910Y90526D01*
G01X17986Y90566D01*
G01X18046Y90622D01*
G01X18092Y90694D01*
G01X18124Y90786D01*
G01X18144Y90898D01*
G01X18150Y91031D01*
G01X18150Y91752D01*
G01X18144Y91882D01*
G01X18124Y91993D01*
G01X18092Y92084D01*
G01X18046Y92156D01*
G01X17986Y92210D01*
G01X17910Y92249D01*
G01X17817Y92273D01*
G37*

%LPD*%
G36*
G01X8688Y91950D02*
G01X8559Y91960D01*
G01X8429Y91950D01*
G01X8314Y91920D01*
G01X8213Y91870D01*
G01X8128Y91800D01*
G01X8060Y91711D01*
G01X8011Y91603D01*
G01X7982Y91477D01*
G01X7973Y91333D01*
G01X7973Y90886D01*
G01X7982Y90745D01*
G01X8011Y90622D01*
G01X8060Y90516D01*
G01X8128Y90429D01*
G01X8213Y90358D01*
G01X8313Y90309D01*
G01X8427Y90279D01*
G01X8554Y90269D01*
G01X8684Y90279D01*
G01X8799Y90309D01*
G01X8899Y90358D01*
G01X8983Y90429D01*
G01X9051Y90516D01*
G01X9100Y90622D01*
G01X9129Y90745D01*
G01X9138Y90886D01*
G01X9138Y91333D01*
G01X9129Y91477D01*
G01X9100Y91603D01*
G01X9053Y91711D01*
G01X8986Y91800D01*
G01X8901Y91870D01*
G01X8802Y91920D01*
G01X8688Y91950D01*
G37*

%LPC*%
G36*
G01X8701Y91705D02*
G01X8554Y91729D01*
G01X8412Y91705D01*
G01X8310Y91633D01*
G01X8249Y91511D01*
G01X8229Y91333D01*
G01X8229Y90886D01*
G01X8249Y90711D01*
G01X8310Y90591D01*
G01X8412Y90525D01*
G01X8554Y90502D01*
G01X8701Y90525D01*
G01X8803Y90591D01*
G01X8862Y90711D01*
G01X8882Y90886D01*
G01X8882Y91333D01*
G01X8862Y91511D01*
G01X8803Y91633D01*
G01X8701Y91705D01*
G37*

%LPD*%
G36*
G01X4290Y92495D02*
G01X4130Y92506D01*
G01X3969Y92495D01*
G01X3827Y92459D01*
G01X3707Y92399D01*
G01X3606Y92316D01*
G01X3529Y92208D01*
G01X3473Y92079D01*
G01X3440Y91926D01*
G01X3429Y91752D01*
G01X3429Y91031D01*
G01X3434Y90911D01*
G01X3448Y90801D01*
G01X3473Y90701D01*
G01X3508Y90612D01*
G01X3552Y90532D01*
G01X3606Y90462D01*
G01X3704Y90377D01*
G01X3824Y90317D01*
G01X3965Y90281D01*
G01X4127Y90269D01*
G01X4288Y90281D01*
G01X4429Y90317D01*
G01X4549Y90377D01*
G01X4648Y90462D01*
G01X4702Y90532D01*
G01X4746Y90612D01*
G01X4781Y90701D01*
G01X4806Y90801D01*
G01X4820Y90911D01*
G01X4826Y91031D01*
G01X4826Y91752D01*
G01X4814Y91926D01*
G01X4781Y92078D01*
G01X4725Y92208D01*
G01X4648Y92316D01*
G01X4549Y92399D01*
G01X4429Y92459D01*
G01X4290Y92495D01*
G37*

%LPC*%
G36*
G01X4236Y92273D02*
G01X4127Y92280D01*
G01X4017Y92273D01*
G01X3924Y92249D01*
G01X3849Y92210D01*
G01X3789Y92156D01*
G01X3743Y92084D01*
G01X3711Y91993D01*
G01X3692Y91882D01*
G01X3685Y91752D01*
G01X3685Y91031D01*
G01X3692Y90898D01*
G01X3711Y90786D01*
G01X3743Y90694D01*
G01X3789Y90622D01*
G01X3849Y90566D01*
G01X3924Y90526D01*
G01X4017Y90503D01*
G01X4127Y90495D01*
G01X4236Y90503D01*
G01X4328Y90526D01*
G01X4405Y90566D01*
G01X4465Y90622D01*
G01X4511Y90694D01*
G01X4543Y90786D01*
G01X4562Y90898D01*
G01X4569Y91031D01*
G01X4569Y91752D01*
G01X4562Y91882D01*
G01X4543Y91993D01*
G01X4511Y92084D01*
G01X4465Y92156D01*
G01X4405Y92210D01*
G01X4328Y92249D01*
G01X4236Y92273D01*
G37*

%LPD*%
G36*
G01X32137Y91945D02*
G01X31978Y91960D01*
G01X31870Y91953D01*
G01X31770Y91929D01*
G01X31680Y91890D01*
G01X31600Y91836D01*
G01X31533Y91767D01*
G01X31485Y91686D01*
G01X31457Y91594D01*
G01X31447Y91490D01*
G01X31456Y91382D01*
G01X31482Y91290D01*
G01X31524Y91214D01*
G01X31584Y91155D01*
G01X31659Y91106D01*
G01X31749Y91064D01*
G01X31854Y91029D01*
G01X31973Y91000D01*
G01X32164Y90952D01*
G01X32283Y90901D01*
G01X32319Y90871D01*
G01X32346Y90832D01*
G01X32362Y90783D01*
G01X32367Y90726D01*
G01X32361Y90668D01*
G01X32344Y90620D01*
G01X32315Y90580D01*
G01X32275Y90551D01*
G01X32227Y90527D01*
G01X32172Y90510D01*
G01X32111Y90501D01*
G01X32044Y90497D01*
G01X31901Y90510D01*
G01X31757Y90551D01*
G01X31623Y90611D01*
G01X31503Y90690D01*
G01X31402Y90484D01*
G01X31541Y90389D01*
G01X31699Y90322D01*
G01X31869Y90280D01*
G01X32042Y90266D01*
G01X32160Y90274D01*
G01X32268Y90297D01*
G01X32367Y90336D01*
G01X32456Y90390D01*
G01X32528Y90459D01*
G01X32580Y90540D01*
G01X32611Y90633D01*
G01X32621Y90738D01*
G01X32613Y90839D01*
G01X32588Y90926D01*
G01X32548Y91000D01*
G01X32491Y91061D01*
G01X32418Y91113D01*
G01X32329Y91158D01*
G01X32222Y91194D01*
G01X32100Y91224D01*
G01X31907Y91273D01*
G01X31785Y91325D01*
G01X31748Y91357D01*
G01X31722Y91397D01*
G01X31706Y91447D01*
G01X31701Y91506D01*
G01X31706Y91560D01*
G01X31721Y91607D01*
G01X31745Y91645D01*
G01X31780Y91676D01*
G01X31821Y91700D01*
G01X31868Y91718D01*
G01X31921Y91728D01*
G01X31981Y91732D01*
G01X32112Y91717D01*
G01X32240Y91673D01*
G01X32361Y91610D01*
G01X32471Y91533D01*
G01X32570Y91739D01*
G01X32440Y91832D01*
G01X32293Y91902D01*
G01X32137Y91945D01*
G37*

%LPD*%

%LPD*%
G36*
G01X92075Y89730D02*
G01X90619Y89730D01*
G01X90619Y88800D01*
G01X92075Y88800D01*
G01X92075Y88971D01*
G01X90771Y88971D01*
G01X90771Y89560D01*
G01X92075Y89560D01*
G01X92075Y89730D01*
G37*

%LPD*%
G36*
G01X92075Y88460D02*
G01X90619Y88460D01*
G01X90619Y87530D01*
G01X92075Y87530D01*
G01X92075Y87701D01*
G01X90771Y87701D01*
G01X90771Y88290D01*
G01X92075Y88290D01*
G01X92075Y88460D01*
G37*

%LPD*%
G36*
G01X91701Y87190D02*
G01X91356Y87190D01*
G01X91193Y87171D01*
G01X91069Y87114D01*
G01X90990Y87020D01*
G01X90965Y86898D01*
G01X90968Y86852D01*
G01X90976Y86810D01*
G01X90990Y86770D01*
G01X91010Y86733D01*
G01X91035Y86700D01*
G01X91065Y86671D01*
G01X91099Y86648D01*
G01X91137Y86629D01*
G01X91137Y86583D01*
G01X90985Y86583D01*
G01X90985Y86413D01*
G01X92438Y86413D01*
G01X92438Y86583D01*
G01X92041Y86583D01*
G01X92054Y86609D01*
G01X92064Y86635D01*
G01X92074Y86662D01*
G01X92082Y86690D01*
G01X92088Y86718D01*
G01X92092Y86745D01*
G01X92094Y86772D01*
G01X92095Y86799D01*
G01X92069Y86962D01*
G01X91991Y87086D01*
G01X91866Y87164D01*
G01X91701Y87190D01*
G37*

%LPC*%
G36*
G01X91696Y87020D02*
G01X91351Y87020D01*
G01X91293Y87017D01*
G01X91245Y87009D01*
G01X91207Y86996D01*
G01X91178Y86977D01*
G01X91156Y86952D01*
G01X91140Y86922D01*
G01X91130Y86886D01*
G01X91127Y86845D01*
G01X91130Y86806D01*
G01X91138Y86770D01*
G01X91151Y86735D01*
G01X91170Y86702D01*
G01X91195Y86672D01*
G01X91226Y86642D01*
G01X91262Y86612D01*
G01X91305Y86583D01*
G01X91871Y86583D01*
G01X91888Y86607D01*
G01X91902Y86632D01*
G01X91914Y86657D01*
G01X91925Y86682D01*
G01X91932Y86708D01*
G01X91938Y86735D01*
G01X91941Y86762D01*
G01X91942Y86791D01*
G01X91939Y86847D01*
G01X91928Y86894D01*
G01X91911Y86933D01*
G01X91887Y86964D01*
G01X91853Y86988D01*
G01X91810Y87006D01*
G01X91758Y87016D01*
G01X91696Y87020D01*
G37*

%LPD*%
G36*
G01X92346Y86075D02*
G01X91920Y86075D01*
G01X91920Y85923D01*
G01X90985Y85923D01*
G01X90985Y85300D01*
G01X91607Y85293D01*
G01X91665Y85291D01*
G01X91718Y85287D01*
G01X91764Y85280D01*
G01X91805Y85270D01*
G01X91840Y85257D01*
G01X91871Y85242D01*
G01X91897Y85224D01*
G01X91920Y85204D01*
G01X91920Y85095D01*
G01X92346Y85095D01*
G01X92346Y85262D01*
G01X92075Y85262D01*
G01X92075Y85907D01*
G01X92346Y85907D01*
G01X92346Y86075D01*
G37*

%LPC*%
G36*
G01X91920Y85755D02*
G01X91137Y85755D01*
G01X91137Y85460D01*
G01X91622Y85458D01*
G01X91661Y85456D01*
G01X91697Y85453D01*
G01X91732Y85448D01*
G01X91765Y85443D01*
G01X91794Y85434D01*
G01X91823Y85423D01*
G01X91849Y85411D01*
G01X91874Y85397D01*
G01X91920Y85397D01*
G01X91920Y85755D01*
G37*

%LPD*%
G36*
G01X92075Y84802D02*
G01X90985Y84802D01*
G01X90985Y84632D01*
G01X91368Y84632D01*
G01X91368Y84195D01*
G01X90985Y84195D01*
G01X90985Y84025D01*
G01X92075Y84025D01*
G01X92075Y84195D01*
G01X91521Y84195D01*
G01X91521Y84632D01*
G01X92075Y84632D01*
G01X92075Y84802D01*
G37*

%LPD*%
G36*
G01X92082Y83718D02*
G01X91922Y83718D01*
G01X91929Y83674D01*
G01X91931Y83636D01*
G01X91927Y83604D01*
G01X91917Y83578D01*
G01X91901Y83559D01*
G01X91876Y83546D01*
G01X91845Y83538D01*
G01X91805Y83535D01*
G01X91279Y83535D01*
G01X91139Y83509D01*
G01X91041Y83431D01*
G01X90984Y83310D01*
G01X90965Y83162D01*
G01X90984Y83011D01*
G01X91043Y82900D01*
G01X91140Y82822D01*
G01X91274Y82778D01*
G01X91318Y82923D01*
G01X91263Y82939D01*
G01X91218Y82957D01*
G01X91181Y82979D01*
G01X91155Y83004D01*
G01X91136Y83033D01*
G01X91123Y83069D01*
G01X91114Y83112D01*
G01X91112Y83162D01*
G01X91115Y83210D01*
G01X91125Y83253D01*
G01X91142Y83288D01*
G01X91165Y83317D01*
G01X91195Y83339D01*
G01X91228Y83355D01*
G01X91263Y83364D01*
G01X91302Y83367D01*
G01X91475Y83367D01*
G01X91475Y83060D01*
G01X91480Y82995D01*
G01X91496Y82937D01*
G01X91522Y82886D01*
G01X91559Y82842D01*
G01X91655Y82781D01*
G01X91782Y82760D01*
G01X91915Y82782D01*
G01X92014Y82847D01*
G01X92072Y82948D01*
G01X92092Y83073D01*
G01X92089Y83127D01*
G01X92079Y83178D01*
G01X92062Y83228D01*
G01X92039Y83276D01*
G01X92012Y83318D01*
G01X91981Y83354D01*
G01X91945Y83383D01*
G01X91907Y83405D01*
G01X91907Y83439D01*
G01X91960Y83449D01*
G01X92004Y83466D01*
G01X92038Y83492D01*
G01X92062Y83525D01*
G01X92078Y83564D01*
G01X92086Y83610D01*
G01X92088Y83661D01*
G01X92082Y83718D01*
G37*

%LPC*%
G36*
G01X91795Y83367D02*
G01X91607Y83367D01*
G01X91607Y83085D01*
G01X91609Y83049D01*
G01X91616Y83017D01*
G01X91627Y82990D01*
G01X91643Y82966D01*
G01X91665Y82946D01*
G01X91694Y82932D01*
G01X91730Y82923D01*
G01X91772Y82920D01*
G01X91810Y82923D01*
G01X91844Y82931D01*
G01X91873Y82945D01*
G01X91897Y82964D01*
G01X91917Y82988D01*
G01X91931Y83019D01*
G01X91939Y83055D01*
G01X91942Y83098D01*
G01X91940Y83138D01*
G01X91934Y83177D01*
G01X91924Y83214D01*
G01X91909Y83251D01*
G01X91891Y83284D01*
G01X91866Y83314D01*
G01X91834Y83342D01*
G01X91795Y83367D01*
G37*

%LPD*%
G36*
G01X91346Y82268D02*
G01X91335Y82433D01*
G01X91170Y82399D01*
G01X91056Y82323D01*
G01X90987Y82207D01*
G01X90965Y82044D01*
G01X90989Y81879D01*
G01X91064Y81749D01*
G01X91186Y81666D01*
G01X91361Y81638D01*
G01X91706Y81638D01*
G01X91869Y81663D01*
G01X91991Y81737D01*
G01X92067Y81865D01*
G01X92092Y82047D01*
G01X92072Y82211D01*
G01X92014Y82329D01*
G01X91909Y82402D01*
G01X91757Y82433D01*
G01X91749Y82268D01*
G01X91798Y82261D01*
G01X91838Y82249D01*
G01X91871Y82232D01*
G01X91897Y82209D01*
G01X91914Y82179D01*
G01X91927Y82142D01*
G01X91935Y82098D01*
G01X91937Y82047D01*
G01X91934Y81991D01*
G01X91924Y81942D01*
G01X91907Y81900D01*
G01X91884Y81866D01*
G01X91852Y81841D01*
G01X91812Y81823D01*
G01X91763Y81811D01*
G01X91706Y81808D01*
G01X91361Y81808D01*
G01X91301Y81811D01*
G01X91251Y81823D01*
G01X91209Y81841D01*
G01X91175Y81866D01*
G01X91151Y81899D01*
G01X91134Y81940D01*
G01X91123Y81988D01*
G01X91119Y82044D01*
G01X91123Y82095D01*
G01X91132Y82139D01*
G01X91148Y82177D01*
G01X91170Y82207D01*
G01X91200Y82230D01*
G01X91239Y82248D01*
G01X91288Y82261D01*
G01X91346Y82268D01*
G37*

%LPD*%
G36*
G01X91490Y81041D02*
G01X90985Y81401D01*
G01X90985Y81203D01*
G01X91429Y80919D01*
G01X91429Y80843D01*
G01X90985Y80843D01*
G01X90985Y80672D01*
G01X92075Y80672D01*
G01X92075Y80843D01*
G01X91572Y80843D01*
G01X91572Y80919D01*
G01X92075Y81206D01*
G01X92075Y81396D01*
G01X91490Y81041D01*
G37*

%LPD*%
G36*
G01X91954Y80282D02*
G01X91836Y80337D01*
G01X91790Y80177D01*
G01X91829Y80164D01*
G01X91862Y80147D01*
G01X91889Y80127D01*
G01X91909Y80103D01*
G01X91925Y80075D01*
G01X91936Y80039D01*
G01X91943Y79997D01*
G01X91945Y79949D01*
G01X91941Y79896D01*
G01X91931Y79850D01*
G01X91913Y79812D01*
G01X91889Y79781D01*
G01X91858Y79757D01*
G01X91817Y79739D01*
G01X91766Y79729D01*
G01X91706Y79725D01*
G01X91561Y79725D01*
G01X91561Y80332D01*
G01X91373Y80332D01*
G01X91199Y80306D01*
G01X91071Y80228D01*
G01X90991Y80106D01*
G01X90965Y79946D01*
G01X90990Y79784D01*
G01X91069Y79659D01*
G01X91193Y79581D01*
G01X91361Y79555D01*
G01X91706Y79555D01*
G01X91870Y79581D01*
G01X91991Y79659D01*
G01X92067Y79783D01*
G01X92092Y79946D01*
G01X92078Y80089D01*
G01X92034Y80200D01*
G01X91954Y80282D01*
G37*

%LPC*%
G36*
G01X91432Y80162D02*
G01X91379Y80162D01*
G01X91315Y80158D01*
G01X91260Y80149D01*
G01X91214Y80132D01*
G01X91178Y80109D01*
G01X91149Y80077D01*
G01X91129Y80039D01*
G01X91116Y79995D01*
G01X91112Y79943D01*
G01X91115Y79892D01*
G01X91127Y79847D01*
G01X91146Y79810D01*
G01X91173Y79778D01*
G01X91207Y79755D01*
G01X91250Y79738D01*
G01X91301Y79729D01*
G01X91361Y79725D01*
G01X91432Y79725D01*
G01X91432Y80162D01*
G37*

%LPD*%
G36*
G01X92075Y79214D02*
G01X90985Y79214D01*
G01X90985Y78562D01*
G01X91622Y78557D01*
G01X91701Y78555D01*
G01X91767Y78548D01*
G01X91823Y78538D01*
G01X91866Y78524D01*
G01X91898Y78506D01*
G01X91922Y78484D01*
G01X91935Y78458D01*
G01X91940Y78427D01*
G01X91939Y78420D01*
G01X91939Y78413D01*
G01X91935Y78397D01*
G01X91932Y78387D01*
G01X91929Y78376D01*
G01X91926Y78364D01*
G01X91922Y78351D01*
G01X92072Y78325D01*
G01X92078Y78353D01*
G01X92081Y78368D01*
G01X92085Y78384D01*
G01X92087Y78399D01*
G01X92089Y78415D01*
G01X92090Y78447D01*
G01X92062Y78562D01*
G01X91981Y78648D01*
G01X91842Y78702D01*
G01X91645Y78722D01*
G01X91137Y78724D01*
G01X91137Y79042D01*
G01X92075Y79042D01*
G01X92075Y79214D01*
G37*

%LPD*%
G36*
G01X92075Y78011D02*
G01X92075Y78191D01*
G01X90619Y77736D01*
G01X90619Y77548D01*
G01X92075Y77091D01*
G01X92075Y77264D01*
G01X91648Y77388D01*
G01X91648Y77884D01*
G01X92075Y78011D01*
G37*

%LPC*%
G36*
G01X91495Y77434D02*
G01X91495Y77840D01*
G01X90805Y77637D01*
G01X91495Y77434D01*
G37*

%LPD*%
G36*
G01X92082Y75920D02*
G01X91925Y75951D01*
G01X91775Y75605D01*
G01X91731Y75636D01*
G01X91686Y75667D01*
G01X91641Y75700D01*
G01X91594Y75732D01*
G01X91492Y75794D01*
G01X91371Y75849D01*
G01X91297Y75704D01*
G01X91353Y75685D01*
G01X91407Y75664D01*
G01X91459Y75643D01*
G01X91508Y75620D01*
G01X91555Y75598D01*
G01X91600Y75575D01*
G01X91643Y75553D01*
G01X91683Y75531D01*
G01X91636Y75484D01*
G01X91611Y75460D01*
G01X91584Y75438D01*
G01X91556Y75416D01*
G01X91528Y75395D01*
G01X91500Y75376D01*
G01X91473Y75356D01*
G01X91455Y75344D01*
G01X91436Y75332D01*
G01X91399Y75311D01*
G01X91380Y75299D01*
G01X91342Y75279D01*
G01X91323Y75270D01*
G01X91229Y75435D01*
G01X91135Y75542D01*
G01X91025Y75601D01*
G01X90891Y75620D01*
G01X90833Y75615D01*
G01X90780Y75600D01*
G01X90730Y75575D01*
G01X90685Y75539D01*
G01X90621Y75444D01*
G01X90599Y75321D01*
G01X90624Y75188D01*
G01X90698Y75090D01*
G01X90815Y75029D01*
G01X90970Y75008D01*
G01X91003Y75010D01*
G01X91038Y75014D01*
G01X91076Y75021D01*
G01X91117Y75031D01*
G01X91160Y75044D01*
G01X91203Y75059D01*
G01X91248Y75075D01*
G01X91295Y75095D01*
G01X91330Y75045D01*
G01X91371Y74999D01*
G01X91417Y74958D01*
G01X91467Y74922D01*
G01X91584Y74872D01*
G01X91721Y74856D01*
G01X91882Y74879D01*
G01X91998Y74947D01*
G01X92069Y75056D01*
G01X92092Y75194D01*
G01X92089Y75248D01*
G01X92078Y75300D01*
G01X92061Y75349D01*
G01X92036Y75394D01*
G01X92005Y75439D01*
G01X91970Y75481D01*
G01X91930Y75520D01*
G01X91887Y75557D01*
G01X91917Y75598D01*
G01X91945Y75641D01*
G01X91972Y75684D01*
G01X92024Y75776D01*
G01X92046Y75823D01*
G01X92065Y75871D01*
G01X92082Y75920D01*
G37*

%LPC*%
G36*
G01X91827Y75424D02*
G01X91795Y75453D01*
G01X91768Y75425D01*
G01X91740Y75398D01*
G01X91712Y75372D01*
G01X91683Y75346D01*
G01X91655Y75322D01*
G01X91627Y75299D01*
G01X91598Y75276D01*
G01X91569Y75255D01*
G01X91527Y75227D01*
G01X91505Y75212D01*
G01X91483Y75199D01*
G01X91461Y75185D01*
G01X91440Y75172D01*
G01X91419Y75160D01*
G01X91399Y75148D01*
G01X91428Y75121D01*
G01X91461Y75096D01*
G01X91497Y75075D01*
G01X91536Y75057D01*
G01X91577Y75043D01*
G01X91619Y75034D01*
G01X91662Y75028D01*
G01X91706Y75026D01*
G01X91754Y75029D01*
G01X91798Y75039D01*
G01X91837Y75054D01*
G01X91871Y75077D01*
G01X91899Y75104D01*
G01X91919Y75136D01*
G01X91931Y75173D01*
G01X91935Y75217D01*
G01X91933Y75246D01*
G01X91926Y75275D01*
G01X91915Y75305D01*
G01X91899Y75336D01*
G01X91878Y75366D01*
G01X91854Y75395D01*
G01X91827Y75424D01*
G37*
G36*
G01X90976Y75462D02*
G01X90929Y75465D01*
G01X90893Y75463D01*
G01X90860Y75456D01*
G01X90832Y75444D01*
G01X90807Y75427D01*
G01X90786Y75407D01*
G01X90771Y75382D01*
G01X90762Y75353D01*
G01X90759Y75321D01*
G01X90762Y75284D01*
G01X90774Y75253D01*
G01X90792Y75228D01*
G01X90817Y75209D01*
G01X90849Y75195D01*
G01X90888Y75184D01*
G01X90932Y75178D01*
G01X90982Y75176D01*
G01X91011Y75177D01*
G01X91040Y75179D01*
G01X91070Y75183D01*
G01X91102Y75189D01*
G01X91133Y75197D01*
G01X91164Y75206D01*
G01X91196Y75216D01*
G01X91229Y75227D01*
G01X91199Y75283D01*
G01X91167Y75331D01*
G01X91134Y75373D01*
G01X91099Y75407D01*
G01X91061Y75432D01*
G01X91020Y75451D01*
G01X90976Y75462D01*
G37*

%LPD*%
G36*
G01X91912Y73568D02*
G01X91780Y73596D01*
G01X91655Y73574D01*
G01X91564Y73510D01*
G01X91500Y73401D01*
G01X91457Y73248D01*
G01X91441Y73178D01*
G01X91424Y73119D01*
G01X91406Y73074D01*
G01X91389Y73040D01*
G01X91368Y73015D01*
G01X91341Y72998D01*
G01X91308Y72987D01*
G01X91269Y72984D01*
G01X91233Y72987D01*
G01X91201Y72997D01*
G01X91175Y73012D01*
G01X91155Y73035D01*
G01X91138Y73062D01*
G01X91127Y73094D01*
G01X91119Y73130D01*
G01X91117Y73169D01*
G01X91119Y73213D01*
G01X91127Y73257D01*
G01X91140Y73300D01*
G01X91158Y73342D01*
G01X91177Y73383D01*
G01X91200Y73423D01*
G01X91223Y73460D01*
G01X91249Y73497D01*
G01X91112Y73560D01*
G01X91079Y73519D01*
G01X91051Y73475D01*
G01X91026Y73428D01*
G01X91005Y73378D01*
G01X90987Y73325D01*
G01X90975Y73273D01*
G01X90967Y73220D01*
G01X90965Y73167D01*
G01X90985Y73029D01*
G01X91048Y72915D01*
G01X91147Y72839D01*
G01X91277Y72814D01*
G01X91412Y72837D01*
G01X91503Y72905D01*
G01X91563Y73014D01*
G01X91605Y73164D01*
G01X91620Y73233D01*
G01X91637Y73291D01*
G01X91653Y73336D01*
G01X91671Y73370D01*
G01X91691Y73394D01*
G01X91718Y73412D01*
G01X91751Y73422D01*
G01X91790Y73426D01*
G01X91828Y73422D01*
G01X91859Y73411D01*
G01X91885Y73391D01*
G01X91904Y73365D01*
G01X91920Y73332D01*
G01X91931Y73296D01*
G01X91938Y73256D01*
G01X91940Y73212D01*
G01X91938Y73164D01*
G01X91931Y73116D01*
G01X91920Y73068D01*
G01X91904Y73019D01*
G01X91886Y72974D01*
G01X91865Y72930D01*
G01X91840Y72888D01*
G01X91813Y72849D01*
G01X91950Y72783D01*
G01X91984Y72828D01*
G01X92013Y72876D01*
G01X92038Y72927D01*
G01X92059Y72981D01*
G01X92075Y73038D01*
G01X92086Y73094D01*
G01X92093Y73152D01*
G01X92095Y73210D01*
G01X92074Y73361D01*
G01X92011Y73484D01*
G01X91912Y73568D01*
G37*

%LPD*%
G36*
G01X92438Y72471D02*
G01X92270Y72471D01*
G01X92270Y71409D01*
G01X92438Y71409D01*
G01X92438Y72471D01*
G37*

%LPD*%
G36*
G01X91432Y71211D02*
G01X91246Y71211D01*
G01X91183Y71207D01*
G01X91127Y71195D01*
G01X91079Y71175D01*
G01X91038Y71147D01*
G01X91006Y71114D01*
G01X90983Y71076D01*
G01X90969Y71032D01*
G01X90965Y70982D01*
G01X90967Y70944D01*
G01X90975Y70906D01*
G01X90987Y70870D01*
G01X91005Y70835D01*
G01X91030Y70803D01*
G01X91060Y70777D01*
G01X91096Y70755D01*
G01X91137Y70739D01*
G01X91137Y70693D01*
G01X90985Y70693D01*
G01X90985Y70520D01*
G01X92075Y70520D01*
G01X92075Y70693D01*
G01X91297Y70693D01*
G01X91263Y70716D01*
G01X91231Y70742D01*
G01X91202Y70771D01*
G01X91175Y70802D01*
G01X91154Y70835D01*
G01X91139Y70867D01*
G01X91130Y70898D01*
G01X91127Y70929D01*
G01X91130Y70955D01*
G01X91137Y70978D01*
G01X91148Y70999D01*
G01X91165Y71015D01*
G01X91186Y71030D01*
G01X91209Y71040D01*
G01X91237Y71046D01*
G01X91267Y71048D01*
G01X91432Y71048D01*
G01X91432Y71211D01*
G37*

%LPD*%
G36*
G01X92075Y70040D02*
G01X90985Y70040D01*
G01X90985Y69870D01*
G01X92075Y69870D01*
G01X92075Y70040D01*
G37*

%LPD*%
G36*
G01X90680Y70093D02*
G01X90670Y70093D01*
G01X90642Y70091D01*
G01X90619Y70084D01*
G01X90600Y70072D01*
G01X90586Y70055D01*
G01X90577Y70035D01*
G01X90571Y70012D01*
G01X90567Y69985D01*
G01X90566Y69956D01*
G01X90567Y69926D01*
G01X90571Y69899D01*
G01X90577Y69875D01*
G01X90586Y69855D01*
G01X90600Y69838D01*
G01X90619Y69826D01*
G01X90642Y69819D01*
G01X90670Y69816D01*
G01X90680Y69816D01*
G01X90707Y69819D01*
G01X90729Y69826D01*
G01X90746Y69838D01*
G01X90759Y69855D01*
G01X90768Y69875D01*
G01X90774Y69899D01*
G01X90778Y69926D01*
G01X90779Y69956D01*
G01X90778Y69984D01*
G01X90774Y70010D01*
G01X90768Y70034D01*
G01X90759Y70055D01*
G01X90746Y70072D01*
G01X90729Y70084D01*
G01X90707Y70091D01*
G01X90680Y70093D01*
G37*

%LPD*%
G36*
G01X92075Y69387D02*
G01X91285Y69387D01*
G01X91217Y69383D01*
G01X91156Y69370D01*
G01X91101Y69350D01*
G01X91053Y69321D01*
G01X91014Y69284D01*
G01X90987Y69242D01*
G01X90970Y69194D01*
G01X90965Y69141D01*
G01X90968Y69099D01*
G01X90977Y69060D01*
G01X90991Y69022D01*
G01X91013Y68988D01*
G01X91039Y68957D01*
G01X91068Y68931D01*
G01X91101Y68910D01*
G01X91137Y68894D01*
G01X91137Y68834D01*
G01X91100Y68818D01*
G01X91067Y68798D01*
G01X91038Y68775D01*
G01X91013Y68747D01*
G01X90991Y68717D01*
G01X90977Y68684D01*
G01X90968Y68648D01*
G01X90965Y68610D01*
G01X90968Y68569D01*
G01X90977Y68531D01*
G01X90991Y68494D01*
G01X91013Y68460D01*
G01X91039Y68430D01*
G01X91068Y68405D01*
G01X91101Y68385D01*
G01X91137Y68371D01*
G01X91137Y68326D01*
G01X90985Y68326D01*
G01X90985Y68153D01*
G01X92075Y68153D01*
G01X92075Y68326D01*
G01X91282Y68326D01*
G01X91247Y68348D01*
G01X91216Y68373D01*
G01X91190Y68400D01*
G01X91168Y68430D01*
G01X91150Y68461D01*
G01X91137Y68492D01*
G01X91130Y68524D01*
G01X91127Y68557D01*
G01X91130Y68587D01*
G01X91139Y68613D01*
G01X91153Y68635D01*
G01X91173Y68653D01*
G01X91200Y68667D01*
G01X91232Y68678D01*
G01X91269Y68684D01*
G01X91313Y68686D01*
G01X92075Y68686D01*
G01X92075Y68856D01*
G01X91282Y68856D01*
G01X91247Y68879D01*
G01X91216Y68904D01*
G01X91190Y68931D01*
G01X91168Y68961D01*
G01X91150Y68993D01*
G01X91137Y69025D01*
G01X91130Y69057D01*
G01X91127Y69090D01*
G01X91130Y69119D01*
G01X91139Y69144D01*
G01X91153Y69166D01*
G01X91173Y69184D01*
G01X91200Y69198D01*
G01X91232Y69209D01*
G01X91269Y69215D01*
G01X91313Y69217D01*
G01X92075Y69217D01*
G01X92075Y69387D01*
G37*

%LPD*%
G36*
G01X92075Y67673D02*
G01X90985Y67673D01*
G01X90985Y67503D01*
G01X92075Y67503D01*
G01X92075Y67673D01*
G37*

%LPD*%
G36*
G01X90680Y67726D02*
G01X90670Y67726D01*
G01X90642Y67724D01*
G01X90619Y67716D01*
G01X90600Y67705D01*
G01X90586Y67688D01*
G01X90577Y67668D01*
G01X90571Y67644D01*
G01X90567Y67618D01*
G01X90566Y67589D01*
G01X90567Y67559D01*
G01X90571Y67531D01*
G01X90577Y67508D01*
G01X90586Y67487D01*
G01X90600Y67471D01*
G01X90619Y67459D01*
G01X90642Y67452D01*
G01X90670Y67449D01*
G01X90680Y67449D01*
G01X90707Y67452D01*
G01X90729Y67459D01*
G01X90746Y67471D01*
G01X90759Y67487D01*
G01X90768Y67508D01*
G01X90774Y67531D01*
G01X90778Y67559D01*
G01X90779Y67589D01*
G01X90778Y67617D01*
G01X90774Y67643D01*
G01X90768Y67667D01*
G01X90759Y67688D01*
G01X90746Y67705D01*
G01X90729Y67716D01*
G01X90707Y67724D01*
G01X90680Y67726D01*
G37*

%LPD*%
G36*
G01X92075Y67020D02*
G01X90619Y67020D01*
G01X90619Y66847D01*
G01X91015Y66847D01*
G01X91004Y66823D01*
G01X90994Y66797D01*
G01X90985Y66772D01*
G01X90977Y66746D01*
G01X90972Y66718D01*
G01X90968Y66690D01*
G01X90966Y66662D01*
G01X90965Y66634D01*
G01X90990Y66471D01*
G01X91069Y66347D01*
G01X91193Y66267D01*
G01X91358Y66240D01*
G01X91701Y66240D01*
G01X91866Y66260D01*
G01X91991Y66321D01*
G01X92067Y66414D01*
G01X92092Y66535D01*
G01X92089Y66582D01*
G01X92081Y66624D01*
G01X92066Y66664D01*
G01X92047Y66700D01*
G01X92022Y66733D01*
G01X91992Y66761D01*
G01X91958Y66785D01*
G01X91920Y66804D01*
G01X91920Y66847D01*
G01X92075Y66847D01*
G01X92075Y67020D01*
G37*

%LPC*%
G36*
G01X91752Y66847D02*
G01X91186Y66847D01*
G01X91169Y66825D01*
G01X91155Y66802D01*
G01X91142Y66777D01*
G01X91132Y66751D01*
G01X91125Y66725D01*
G01X91119Y66698D01*
G01X91115Y66670D01*
G01X91114Y66641D01*
G01X91118Y66588D01*
G01X91130Y66541D01*
G01X91149Y66501D01*
G01X91175Y66469D01*
G01X91210Y66444D01*
G01X91252Y66427D01*
G01X91302Y66416D01*
G01X91361Y66413D01*
G01X91706Y66413D01*
G01X91762Y66415D01*
G01X91809Y66424D01*
G01X91848Y66437D01*
G01X91879Y66456D01*
G01X91901Y66481D01*
G01X91917Y66511D01*
G01X91927Y66546D01*
G01X91930Y66586D01*
G01X91927Y66624D01*
G01X91919Y66660D01*
G01X91905Y66695D01*
G01X91887Y66728D01*
G01X91862Y66759D01*
G01X91831Y66789D01*
G01X91795Y66819D01*
G01X91752Y66847D01*
G37*

%LPD*%
G36*
G01X92082Y65933D02*
G01X91922Y65933D01*
G01X91929Y65889D01*
G01X91931Y65852D01*
G01X91927Y65821D01*
G01X91917Y65796D01*
G01X91901Y65777D01*
G01X91876Y65763D01*
G01X91845Y65755D01*
G01X91805Y65752D01*
G01X91279Y65752D01*
G01X91139Y65726D01*
G01X91041Y65646D01*
G01X90984Y65526D01*
G01X90965Y65377D01*
G01X90984Y65227D01*
G01X91043Y65115D01*
G01X91140Y65039D01*
G01X91274Y64996D01*
G01X91318Y65140D01*
G01X91263Y65156D01*
G01X91218Y65174D01*
G01X91181Y65195D01*
G01X91155Y65219D01*
G01X91136Y65248D01*
G01X91123Y65284D01*
G01X91114Y65327D01*
G01X91112Y65377D01*
G01X91115Y65425D01*
G01X91125Y65467D01*
G01X91142Y65503D01*
G01X91165Y65532D01*
G01X91195Y65554D01*
G01X91228Y65570D01*
G01X91263Y65579D01*
G01X91302Y65582D01*
G01X91475Y65582D01*
G01X91475Y65278D01*
G01X91496Y65154D01*
G01X91559Y65057D01*
G01X91655Y64996D01*
G01X91782Y64975D01*
G01X91915Y64998D01*
G01X92014Y65064D01*
G01X92048Y65111D01*
G01X92072Y65165D01*
G01X92087Y65223D01*
G01X92092Y65288D01*
G01X92089Y65342D01*
G01X92079Y65394D01*
G01X92062Y65444D01*
G01X92039Y65491D01*
G01X92012Y65534D01*
G01X91981Y65570D01*
G01X91945Y65600D01*
G01X91907Y65623D01*
G01X91907Y65656D01*
G01X91960Y65665D01*
G01X92004Y65682D01*
G01X92038Y65708D01*
G01X92062Y65742D01*
G01X92078Y65782D01*
G01X92086Y65827D01*
G01X92088Y65877D01*
G01X92082Y65933D01*
G37*

%LPC*%
G36*
G01X91795Y65582D02*
G01X91607Y65582D01*
G01X91607Y65300D01*
G01X91609Y65265D01*
G01X91616Y65234D01*
G01X91627Y65205D01*
G01X91643Y65181D01*
G01X91665Y65162D01*
G01X91694Y65148D01*
G01X91730Y65140D01*
G01X91772Y65138D01*
G01X91810Y65140D01*
G01X91844Y65148D01*
G01X91873Y65162D01*
G01X91897Y65181D01*
G01X91917Y65205D01*
G01X91931Y65236D01*
G01X91939Y65273D01*
G01X91942Y65316D01*
G01X91940Y65355D01*
G01X91934Y65394D01*
G01X91924Y65430D01*
G01X91909Y65465D01*
G01X91891Y65499D01*
G01X91866Y65530D01*
G01X91834Y65558D01*
G01X91795Y65582D01*
G37*

%LPD*%
G36*
G01X92052Y64703D02*
G01X92044Y64719D01*
G01X91894Y64688D01*
G01X91900Y64676D01*
G01X91906Y64663D01*
G01X91910Y64648D01*
G01X91914Y64632D01*
G01X91919Y64618D01*
G01X91922Y64603D01*
G01X91924Y64590D01*
G01X91925Y64576D01*
G01X91921Y64536D01*
G01X91909Y64501D01*
G01X91889Y64471D01*
G01X91861Y64447D01*
G01X91828Y64428D01*
G01X91789Y64414D01*
G01X91744Y64406D01*
G01X91694Y64404D01*
G01X90619Y64404D01*
G01X90619Y64234D01*
G01X91694Y64234D01*
G01X91850Y64255D01*
G01X91975Y64320D01*
G01X92056Y64426D01*
G01X92082Y64566D01*
G01X92082Y64588D01*
G01X92080Y64609D01*
G01X92077Y64630D01*
G01X92072Y64650D01*
G01X92065Y64669D01*
G01X92059Y64686D01*
G01X92052Y64703D01*
G37*

%LPD*%
G36*
G01X92075Y63456D02*
G01X90619Y63911D01*
G01X90619Y63738D01*
G01X91869Y63367D01*
G01X90619Y62997D01*
G01X90619Y62814D01*
G01X92075Y63268D01*
G01X92075Y63456D01*
G37*

%LPD*%

%LPD*%
G36*
G01X28519Y89085D02*
G01X28348Y89085D01*
G01X28348Y87630D01*
G01X28519Y87630D01*
G01X28519Y88407D01*
G01X28547Y88444D01*
G01X28577Y88477D01*
G01X28608Y88506D01*
G01X28641Y88531D01*
G01X28674Y88551D01*
G01X28709Y88566D01*
G01X28747Y88574D01*
G01X28788Y88577D01*
G01X28824Y88573D01*
G01X28856Y88563D01*
G01X28885Y88545D01*
G01X28910Y88521D01*
G01X28930Y88490D01*
G01X28944Y88452D01*
G01X28952Y88407D01*
G01X28956Y88356D01*
G01X28956Y87630D01*
G01X29126Y87630D01*
G01X29126Y88394D01*
G01X29106Y88536D01*
G01X29047Y88646D01*
G01X28953Y88716D01*
G01X28834Y88739D01*
G01X28791Y88736D01*
G01X28751Y88728D01*
G01X28713Y88714D01*
G01X28676Y88694D01*
G01X28643Y88669D01*
G01X28613Y88639D01*
G01X28587Y88605D01*
G01X28564Y88567D01*
G01X28519Y88567D01*
G01X28519Y89085D01*
G37*

%LPD*%
G36*
G01X25186Y88736D02*
G01X25148Y88739D01*
G01X25107Y88736D01*
G01X25069Y88727D01*
G01X25032Y88713D01*
G01X24998Y88691D01*
G01X24968Y88665D01*
G01X24943Y88636D01*
G01X24924Y88603D01*
G01X24909Y88567D01*
G01X24864Y88567D01*
G01X24864Y88719D01*
G01X24691Y88719D01*
G01X24691Y87630D01*
G01X24864Y87630D01*
G01X24864Y88422D01*
G01X24886Y88457D01*
G01X24911Y88488D01*
G01X24938Y88514D01*
G01X24968Y88536D01*
G01X24999Y88554D01*
G01X25030Y88567D01*
G01X25062Y88574D01*
G01X25095Y88577D01*
G01X25125Y88574D01*
G01X25151Y88565D01*
G01X25173Y88551D01*
G01X25191Y88531D01*
G01X25205Y88504D01*
G01X25216Y88472D01*
G01X25222Y88435D01*
G01X25224Y88392D01*
G01X25224Y87630D01*
G01X25394Y87630D01*
G01X25394Y88422D01*
G01X25417Y88457D01*
G01X25442Y88488D01*
G01X25469Y88514D01*
G01X25499Y88536D01*
G01X25531Y88554D01*
G01X25563Y88567D01*
G01X25595Y88574D01*
G01X25628Y88577D01*
G01X25657Y88574D01*
G01X25682Y88565D01*
G01X25704Y88551D01*
G01X25722Y88531D01*
G01X25736Y88504D01*
G01X25747Y88472D01*
G01X25753Y88435D01*
G01X25755Y88392D01*
G01X25755Y87630D01*
G01X25928Y87630D01*
G01X25928Y88419D01*
G01X25911Y88548D01*
G01X25859Y88651D01*
G01X25822Y88690D01*
G01X25780Y88717D01*
G01X25732Y88734D01*
G01X25679Y88739D01*
G01X25638Y88736D01*
G01X25599Y88727D01*
G01X25562Y88713D01*
G01X25527Y88691D01*
G01X25495Y88665D01*
G01X25469Y88636D01*
G01X25449Y88603D01*
G01X25435Y88567D01*
G01X25372Y88567D01*
G01X25356Y88604D01*
G01X25336Y88637D01*
G01X25313Y88666D01*
G01X25285Y88691D01*
G01X25255Y88713D01*
G01X25222Y88727D01*
G01X25186Y88736D01*
G37*

%LPD*%
G36*
G01X22852Y89085D02*
G01X22306Y89085D01*
G01X22306Y87630D01*
G01X22476Y87630D01*
G01X22476Y88198D01*
G01X22745Y88198D01*
G01X23055Y87630D01*
G01X23251Y87630D01*
G01X22938Y88204D01*
G01X23065Y88247D01*
G01X23157Y88325D01*
G01X23214Y88440D01*
G01X23233Y88592D01*
G01X23233Y88701D01*
G01X23209Y88869D01*
G01X23136Y88988D01*
G01X23019Y89061D01*
G01X22852Y89085D01*
G37*

%LPC*%
G36*
G01X22842Y88933D02*
G01X22476Y88933D01*
G01X22476Y88348D01*
G01X22842Y88348D01*
G01X22895Y88352D01*
G01X22941Y88363D01*
G01X22979Y88381D01*
G01X23009Y88407D01*
G01X23032Y88440D01*
G01X23047Y88482D01*
G01X23057Y88533D01*
G01X23060Y88592D01*
G01X23060Y88704D01*
G01X23057Y88759D01*
G01X23047Y88807D01*
G01X23032Y88846D01*
G01X23009Y88877D01*
G01X22979Y88901D01*
G01X22941Y88918D01*
G01X22895Y88929D01*
G01X22842Y88933D01*
G37*

%LPD*%
G36*
G01X14122Y89079D02*
G01X13924Y89103D01*
G01X13730Y89075D01*
G01X13596Y88993D01*
G01X13549Y88932D01*
G01X13513Y88853D01*
G01X13489Y88758D01*
G01X13477Y88646D01*
G01X13647Y88628D01*
G01X13672Y88782D01*
G01X13721Y88879D01*
G01X13755Y88909D01*
G01X13801Y88930D01*
G01X13858Y88944D01*
G01X13926Y88948D01*
G01X13997Y88944D01*
G01X14056Y88934D01*
G01X14105Y88916D01*
G01X14142Y88892D01*
G01X14170Y88860D01*
G01X14190Y88819D01*
G01X14202Y88771D01*
G01X14206Y88714D01*
G01X14206Y88633D01*
G01X14204Y88590D01*
G01X14197Y88552D01*
G01X14186Y88519D01*
G01X14170Y88491D01*
G01X14148Y88468D01*
G01X14120Y88449D01*
G01X14086Y88434D01*
G01X14046Y88422D01*
G01X13749Y88348D01*
G01X13617Y88295D01*
G01X13528Y88211D01*
G01X13478Y88094D01*
G01X13462Y87939D01*
G01X13462Y87630D01*
G01X14391Y87630D01*
G01X14391Y87779D01*
G01X13632Y87779D01*
G01X13632Y87944D01*
G01X13634Y87997D01*
G01X13642Y88042D01*
G01X13655Y88081D01*
G01X13672Y88112D01*
G01X13695Y88138D01*
G01X13724Y88159D01*
G01X13758Y88176D01*
G01X13797Y88188D01*
G01X14097Y88259D01*
G01X14161Y88279D01*
G01X14217Y88305D01*
G01X14265Y88336D01*
G01X14305Y88374D01*
G01X14358Y88473D01*
G01X14376Y88610D01*
G01X14376Y88734D01*
G01X14348Y88892D01*
G01X14264Y89009D01*
G01X14122Y89079D01*
G37*

%LPD*%
G36*
G01X8249Y88719D02*
G01X8067Y88719D01*
G01X8387Y87630D01*
G01X8602Y87630D01*
G01X8920Y88719D01*
G01X8747Y88719D01*
G01X8498Y87774D01*
G01X8249Y88719D01*
G37*

%LPD*%
G36*
G01X6489Y89085D02*
G01X5984Y89085D01*
G01X5984Y87630D01*
G01X6497Y87630D01*
G01X6680Y87654D01*
G01X6819Y87726D01*
G01X6905Y87843D01*
G01X6934Y87998D01*
G01X6934Y88082D01*
G01X6930Y88139D01*
G01X6918Y88191D01*
G01X6898Y88238D01*
G01X6870Y88280D01*
G01X6835Y88316D01*
G01X6793Y88344D01*
G01X6747Y88363D01*
G01X6695Y88374D01*
G01X6695Y88427D01*
G01X6737Y88439D01*
G01X6775Y88456D01*
G01X6808Y88478D01*
G01X6837Y88506D01*
G01X6860Y88539D01*
G01X6875Y88576D01*
G01X6885Y88616D01*
G01X6888Y88658D01*
G01X6888Y88742D01*
G01X6861Y88886D01*
G01X6781Y88993D01*
G01X6655Y89062D01*
G01X6489Y89085D01*
G37*

%LPC*%
G36*
G01X6510Y88310D02*
G01X6156Y88310D01*
G01X6156Y87779D01*
G01X6510Y87779D01*
G01X6574Y87783D01*
G01X6628Y87793D01*
G01X6672Y87811D01*
G01X6705Y87835D01*
G01X6731Y87867D01*
G01X6749Y87908D01*
G01X6760Y87958D01*
G01X6764Y88018D01*
G01X6764Y88074D01*
G01X6760Y88134D01*
G01X6749Y88184D01*
G01X6731Y88225D01*
G01X6705Y88257D01*
G01X6672Y88280D01*
G01X6628Y88297D01*
G01X6574Y88307D01*
G01X6510Y88310D01*
G37*
G36*
G01X6484Y88933D02*
G01X6156Y88933D01*
G01X6156Y88460D01*
G01X6484Y88460D01*
G01X6543Y88463D01*
G01X6593Y88472D01*
G01X6634Y88487D01*
G01X6667Y88508D01*
G01X6690Y88538D01*
G01X6707Y88575D01*
G01X6717Y88620D01*
G01X6720Y88673D01*
G01X6720Y88719D01*
G01X6717Y88774D01*
G01X6707Y88819D01*
G01X6690Y88856D01*
G01X6667Y88884D01*
G01X6634Y88906D01*
G01X6593Y88920D01*
G01X6543Y88929D01*
G01X6484Y88933D01*
G37*

%LPD*%
G36*
G01X4025Y89085D02*
G01X3599Y89085D01*
G01X3599Y87630D01*
G01X3769Y87630D01*
G01X3769Y88145D01*
G01X4023Y88145D01*
G01X4195Y88170D01*
G01X4320Y88242D01*
G01X4396Y88362D01*
G01X4422Y88529D01*
G01X4422Y88704D01*
G01X4396Y88869D01*
G01X4320Y88988D01*
G01X4196Y89061D01*
G01X4025Y89085D01*
G37*

%LPC*%
G36*
G01X4018Y88933D02*
G01X3769Y88933D01*
G01X3769Y88292D01*
G01X4018Y88292D01*
G01X4075Y88296D01*
G01X4123Y88306D01*
G01X4164Y88324D01*
G01X4196Y88348D01*
G01X4220Y88381D01*
G01X4238Y88422D01*
G01X4248Y88472D01*
G01X4251Y88529D01*
G01X4251Y88701D01*
G01X4248Y88758D01*
G01X4238Y88806D01*
G01X4220Y88846D01*
G01X4196Y88877D01*
G01X4164Y88901D01*
G01X4123Y88918D01*
G01X4075Y88929D01*
G01X4018Y88933D01*
G37*

%LPD*%
G36*
G01X27798Y88717D02*
G01X27637Y88739D01*
G01X27472Y88715D01*
G01X27343Y88640D01*
G01X27259Y88518D01*
G01X27231Y88343D01*
G01X27231Y87998D01*
G01X27256Y87835D01*
G01X27330Y87713D01*
G01X27458Y87637D01*
G01X27640Y87612D01*
G01X27804Y87632D01*
G01X27922Y87690D01*
G01X27995Y87795D01*
G01X28026Y87947D01*
G01X27858Y87955D01*
G01X27853Y87906D01*
G01X27842Y87866D01*
G01X27825Y87833D01*
G01X27802Y87807D01*
G01X27772Y87790D01*
G01X27735Y87777D01*
G01X27691Y87769D01*
G01X27640Y87767D01*
G01X27584Y87770D01*
G01X27535Y87780D01*
G01X27493Y87797D01*
G01X27459Y87820D01*
G01X27434Y87852D01*
G01X27416Y87892D01*
G01X27405Y87941D01*
G01X27401Y87998D01*
G01X27401Y88343D01*
G01X27405Y88403D01*
G01X27416Y88453D01*
G01X27434Y88495D01*
G01X27459Y88529D01*
G01X27492Y88553D01*
G01X27533Y88570D01*
G01X27581Y88581D01*
G01X27637Y88585D01*
G01X27689Y88581D01*
G01X27733Y88572D01*
G01X27770Y88556D01*
G01X27800Y88534D01*
G01X27824Y88504D01*
G01X27841Y88465D01*
G01X27853Y88416D01*
G01X27858Y88358D01*
G01X28026Y88369D01*
G01X27992Y88534D01*
G01X27917Y88648D01*
G01X27798Y88717D01*
G37*

%LPD*%
G36*
G01X24127Y88713D02*
G01X23964Y88739D01*
G01X23802Y88713D01*
G01X23677Y88633D01*
G01X23599Y88501D01*
G01X23573Y88320D01*
G01X23573Y88023D01*
G01X23599Y87846D01*
G01X23677Y87716D01*
G01X23802Y87638D01*
G01X23962Y87612D01*
G01X24125Y87638D01*
G01X24249Y87716D01*
G01X24327Y87846D01*
G01X24353Y88023D01*
G01X24353Y88320D01*
G01X24327Y88501D01*
G01X24249Y88633D01*
G01X24127Y88713D01*
G37*

%LPC*%
G36*
G01X24014Y88580D02*
G01X23962Y88585D01*
G01X23912Y88580D01*
G01X23868Y88569D01*
G01X23830Y88549D01*
G01X23799Y88521D01*
G01X23776Y88484D01*
G01X23759Y88439D01*
G01X23750Y88384D01*
G01X23746Y88320D01*
G01X23746Y88023D01*
G01X23750Y87961D01*
G01X23759Y87907D01*
G01X23776Y87863D01*
G01X23799Y87828D01*
G01X23830Y87801D01*
G01X23868Y87782D01*
G01X23912Y87770D01*
G01X23962Y87767D01*
G01X24014Y87770D01*
G01X24059Y87782D01*
G01X24096Y87801D01*
G01X24127Y87828D01*
G01X24150Y87863D01*
G01X24167Y87907D01*
G01X24177Y87961D01*
G01X24180Y88023D01*
G01X24180Y88320D01*
G01X24177Y88384D01*
G01X24167Y88439D01*
G01X24150Y88484D01*
G01X24127Y88521D01*
G01X24096Y88549D01*
G01X24059Y88569D01*
G01X24014Y88580D01*
G37*

%LPD*%
G36*
G01X17742Y89080D02*
G01X17548Y89103D01*
G01X17361Y89080D01*
G01X17228Y89011D01*
G01X17148Y88892D01*
G01X17114Y88719D01*
G01X17284Y88701D01*
G01X17293Y88764D01*
G01X17308Y88818D01*
G01X17327Y88862D01*
G01X17353Y88897D01*
G01X17387Y88922D01*
G01X17431Y88941D01*
G01X17485Y88952D01*
G01X17548Y88955D01*
G01X17616Y88952D01*
G01X17673Y88943D01*
G01X17721Y88928D01*
G01X17759Y88907D01*
G01X17789Y88879D01*
G01X17810Y88841D01*
G01X17824Y88795D01*
G01X17828Y88739D01*
G01X17828Y88681D01*
G01X17824Y88625D01*
G01X17813Y88580D01*
G01X17793Y88545D01*
G01X17767Y88521D01*
G01X17732Y88503D01*
G01X17687Y88491D01*
G01X17631Y88483D01*
G01X17564Y88480D01*
G01X17391Y88480D01*
G01X17391Y88328D01*
G01X17564Y88328D01*
G01X17640Y88324D01*
G01X17703Y88314D01*
G01X17754Y88297D01*
G01X17792Y88272D01*
G01X17821Y88238D01*
G01X17842Y88193D01*
G01X17854Y88138D01*
G01X17858Y88071D01*
G01X17858Y88023D01*
G01X17854Y87955D01*
G01X17841Y87898D01*
G01X17820Y87852D01*
G01X17790Y87817D01*
G01X17697Y87774D01*
G01X17551Y87759D01*
G01X17475Y87763D01*
G01X17413Y87773D01*
G01X17363Y87791D01*
G01X17327Y87815D01*
G01X17301Y87850D01*
G01X17280Y87899D01*
G01X17264Y87963D01*
G01X17254Y88041D01*
G01X17084Y88023D01*
G01X17120Y87833D01*
G01X17203Y87706D01*
G01X17265Y87665D01*
G01X17345Y87635D01*
G01X17440Y87618D01*
G01X17551Y87612D01*
G01X17665Y87618D01*
G01X17763Y87637D01*
G01X17845Y87669D01*
G01X17912Y87713D01*
G01X17999Y87840D01*
G01X18028Y88023D01*
G01X18028Y88074D01*
G01X18024Y88130D01*
G01X18011Y88183D01*
G01X17990Y88232D01*
G01X17960Y88280D01*
G01X17922Y88319D01*
G01X17876Y88349D01*
G01X17823Y88370D01*
G01X17762Y88381D01*
G01X17762Y88432D01*
G01X17814Y88439D01*
G01X17859Y88453D01*
G01X17900Y88475D01*
G01X17934Y88503D01*
G01X17962Y88538D01*
G01X17982Y88578D01*
G01X17994Y88624D01*
G01X17998Y88676D01*
G01X17998Y88734D01*
G01X17969Y88900D01*
G01X17884Y89014D01*
G01X17742Y89080D01*
G37*

%LPD*%
G36*
G01X16418Y87988D02*
G01X16380Y87990D01*
G01X16342Y87988D01*
G01X16309Y87980D01*
G01X16279Y87967D01*
G01X16253Y87950D01*
G01X16231Y87926D01*
G01X16215Y87897D01*
G01X16205Y87863D01*
G01X16202Y87823D01*
G01X16202Y87774D01*
G01X16205Y87735D01*
G01X16215Y87701D01*
G01X16231Y87673D01*
G01X16253Y87650D01*
G01X16279Y87633D01*
G01X16309Y87621D01*
G01X16342Y87614D01*
G01X16380Y87612D01*
G01X16418Y87614D01*
G01X16451Y87621D01*
G01X16481Y87633D01*
G01X16507Y87650D01*
G01X16528Y87673D01*
G01X16543Y87701D01*
G01X16552Y87735D01*
G01X16555Y87774D01*
G01X16555Y87823D01*
G01X16552Y87863D01*
G01X16543Y87897D01*
G01X16528Y87926D01*
G01X16507Y87950D01*
G01X16481Y87967D01*
G01X16451Y87980D01*
G01X16418Y87988D01*
G37*

%LPD*%
G36*
G01X15307Y89093D02*
G01X15196Y89103D01*
G01X15087Y89093D01*
G01X14991Y89062D01*
G01X14909Y89011D01*
G01X14841Y88940D01*
G01X14787Y88850D01*
G01X14749Y88740D01*
G01X14726Y88612D01*
G01X14719Y88465D01*
G01X14719Y88242D01*
G01X14726Y88096D01*
G01X14749Y87969D01*
G01X14786Y87861D01*
G01X14838Y87772D01*
G01X14906Y87702D01*
G01X14989Y87652D01*
G01X15086Y87622D01*
G01X15196Y87612D01*
G01X15307Y87622D01*
G01X15404Y87652D01*
G01X15485Y87702D01*
G01X15552Y87772D01*
G01X15605Y87861D01*
G01X15643Y87969D01*
G01X15666Y88096D01*
G01X15674Y88242D01*
G01X15674Y88465D01*
G01X15666Y88612D01*
G01X15643Y88740D01*
G01X15605Y88850D01*
G01X15552Y88940D01*
G01X15485Y89011D01*
G01X15404Y89062D01*
G01X15307Y89093D01*
G37*

%LPC*%
G36*
G01X15335Y88919D02*
G01X15196Y88948D01*
G01X15056Y88918D01*
G01X14960Y88831D01*
G01X14929Y88763D01*
G01X14907Y88677D01*
G01X14894Y88573D01*
G01X14889Y88450D01*
G01X14889Y88257D01*
G01X14894Y88136D01*
G01X14907Y88033D01*
G01X14929Y87948D01*
G01X14960Y87881D01*
G01X15056Y87795D01*
G01X15196Y87767D01*
G01X15335Y87795D01*
G01X15430Y87881D01*
G01X15462Y87948D01*
G01X15485Y88033D01*
G01X15499Y88136D01*
G01X15504Y88257D01*
G01X15504Y88450D01*
G01X15499Y88573D01*
G01X15485Y88677D01*
G01X15462Y88763D01*
G01X15430Y88831D01*
G01X15335Y88919D01*
G37*

%LPD*%
G36*
G01X15219Y88494D02*
G01X15196Y88496D01*
G01X15172Y88494D01*
G01X15151Y88489D01*
G01X15133Y88481D01*
G01X15118Y88470D01*
G01X15104Y88455D01*
G01X15095Y88435D01*
G01X15089Y88409D01*
G01X15087Y88379D01*
G01X15087Y88333D01*
G01X15089Y88303D01*
G01X15095Y88277D01*
G01X15104Y88257D01*
G01X15118Y88242D01*
G01X15133Y88230D01*
G01X15151Y88222D01*
G01X15172Y88218D01*
G01X15196Y88216D01*
G01X15218Y88218D01*
G01X15238Y88222D01*
G01X15256Y88230D01*
G01X15273Y88242D01*
G01X15286Y88257D01*
G01X15295Y88277D01*
G01X15301Y88303D01*
G01X15303Y88333D01*
G01X15303Y88379D01*
G01X15301Y88409D01*
G01X15296Y88435D01*
G01X15287Y88455D01*
G01X15275Y88470D01*
G01X15259Y88481D01*
G01X15240Y88489D01*
G01X15219Y88494D01*
G37*

%LPD*%
G36*
G01X12783Y87988D02*
G01X12745Y87990D01*
G01X12707Y87988D01*
G01X12672Y87980D01*
G01X12642Y87967D01*
G01X12616Y87950D01*
G01X12594Y87926D01*
G01X12580Y87897D01*
G01X12570Y87863D01*
G01X12567Y87823D01*
G01X12567Y87774D01*
G01X12570Y87735D01*
G01X12580Y87701D01*
G01X12594Y87673D01*
G01X12616Y87650D01*
G01X12642Y87633D01*
G01X12672Y87621D01*
G01X12707Y87614D01*
G01X12745Y87612D01*
G01X12782Y87614D01*
G01X12814Y87621D01*
G01X12844Y87633D01*
G01X12870Y87650D01*
G01X12892Y87673D01*
G01X12908Y87701D01*
G01X12917Y87735D01*
G01X12920Y87774D01*
G01X12920Y87823D01*
G01X12917Y87863D01*
G01X12908Y87897D01*
G01X12894Y87926D01*
G01X12872Y87950D01*
G01X12846Y87967D01*
G01X12816Y87980D01*
G01X12783Y87988D01*
G37*

%LPD*%
G36*
G01X11738Y89080D02*
G01X11544Y89103D01*
G01X11358Y89080D01*
G01X11226Y89011D01*
G01X11145Y88892D01*
G01X11109Y88719D01*
G01X11280Y88701D01*
G01X11289Y88764D01*
G01X11304Y88818D01*
G01X11324Y88862D01*
G01X11351Y88897D01*
G01X11385Y88922D01*
G01X11428Y88941D01*
G01X11481Y88952D01*
G01X11544Y88955D01*
G01X11611Y88952D01*
G01X11669Y88943D01*
G01X11717Y88928D01*
G01X11755Y88907D01*
G01X11785Y88879D01*
G01X11806Y88841D01*
G01X11819Y88795D01*
G01X11823Y88739D01*
G01X11823Y88681D01*
G01X11820Y88625D01*
G01X11808Y88580D01*
G01X11790Y88545D01*
G01X11765Y88521D01*
G01X11729Y88503D01*
G01X11683Y88491D01*
G01X11626Y88483D01*
G01X11559Y88480D01*
G01X11389Y88480D01*
G01X11389Y88328D01*
G01X11559Y88328D01*
G01X11635Y88324D01*
G01X11699Y88314D01*
G01X11751Y88297D01*
G01X11790Y88272D01*
G01X11818Y88238D01*
G01X11838Y88193D01*
G01X11850Y88138D01*
G01X11854Y88071D01*
G01X11854Y88023D01*
G01X11850Y87955D01*
G01X11837Y87898D01*
G01X11817Y87852D01*
G01X11788Y87817D01*
G01X11693Y87774D01*
G01X11546Y87759D01*
G01X11472Y87763D01*
G01X11409Y87773D01*
G01X11360Y87791D01*
G01X11323Y87815D01*
G01X11296Y87850D01*
G01X11275Y87899D01*
G01X11259Y87963D01*
G01X11249Y88041D01*
G01X11079Y88023D01*
G01X11116Y87833D01*
G01X11201Y87706D01*
G01X11341Y87635D01*
G01X11546Y87612D01*
G01X11662Y87618D01*
G01X11760Y87637D01*
G01X11843Y87669D01*
G01X11910Y87713D01*
G01X11995Y87840D01*
G01X12024Y88023D01*
G01X12024Y88074D01*
G01X12020Y88130D01*
G01X12007Y88183D01*
G01X11987Y88232D01*
G01X11958Y88280D01*
G01X11920Y88319D01*
G01X11873Y88349D01*
G01X11819Y88370D01*
G01X11757Y88381D01*
G01X11757Y88432D01*
G01X11809Y88439D01*
G01X11855Y88453D01*
G01X11895Y88475D01*
G01X11930Y88503D01*
G01X11958Y88538D01*
G01X11978Y88578D01*
G01X11989Y88624D01*
G01X11993Y88676D01*
G01X11993Y88734D01*
G01X11965Y88900D01*
G01X11879Y89014D01*
G01X11738Y89080D01*
G37*

%LPD*%
G36*
G01X9488Y87988D02*
G01X9451Y87990D01*
G01X9412Y87988D01*
G01X9378Y87980D01*
G01X9348Y87967D01*
G01X9321Y87950D01*
G01X9300Y87926D01*
G01X9285Y87897D01*
G01X9276Y87863D01*
G01X9273Y87823D01*
G01X9273Y87774D01*
G01X9276Y87735D01*
G01X9285Y87701D01*
G01X9300Y87673D01*
G01X9321Y87650D01*
G01X9348Y87633D01*
G01X9378Y87621D01*
G01X9412Y87614D01*
G01X9451Y87612D01*
G01X9487Y87614D01*
G01X9520Y87621D01*
G01X9549Y87633D01*
G01X9575Y87650D01*
G01X9598Y87673D01*
G01X9613Y87701D01*
G01X9623Y87735D01*
G01X9626Y87774D01*
G01X9626Y87823D01*
G01X9623Y87863D01*
G01X9614Y87897D01*
G01X9599Y87926D01*
G01X9578Y87950D01*
G01X9552Y87967D01*
G01X9522Y87980D01*
G01X9488Y87988D01*
G37*

%LPD*%
G36*
G01X5306Y89095D02*
G01X5201Y89103D01*
G01X5089Y89095D01*
G01X4991Y89071D01*
G01X4908Y89031D01*
G01X4838Y88976D01*
G01X4785Y88905D01*
G01X4747Y88818D01*
G01X4724Y88717D01*
G01X4716Y88600D01*
G01X4716Y88107D01*
G01X4724Y87992D01*
G01X4747Y87892D01*
G01X4785Y87807D01*
G01X4838Y87736D01*
G01X4906Y87682D01*
G01X4990Y87643D01*
G01X5087Y87619D01*
G01X5199Y87612D01*
G01X5307Y87619D01*
G01X5401Y87642D01*
G01X5482Y87680D01*
G01X5549Y87734D01*
G01X5603Y87802D01*
G01X5642Y87885D01*
G01X5667Y87982D01*
G01X5676Y88094D01*
G01X5509Y88112D01*
G01X5483Y87951D01*
G01X5427Y87843D01*
G01X5335Y87782D01*
G01X5199Y87762D01*
G01X5055Y87782D01*
G01X4960Y87843D01*
G01X4905Y87948D01*
G01X4886Y88107D01*
G01X4886Y88600D01*
G01X4905Y88761D01*
G01X4960Y88869D01*
G01X5056Y88930D01*
G01X5199Y88950D01*
G01X5331Y88930D01*
G01X5425Y88872D01*
G01X5481Y88762D01*
G01X5509Y88595D01*
G01X5676Y88612D01*
G01X5664Y88727D01*
G01X5638Y88826D01*
G01X5598Y88910D01*
G01X5544Y88978D01*
G01X5477Y89033D01*
G01X5398Y89072D01*
G01X5306Y89095D01*
G37*

%LPD*%
G36*
G01X19466Y89085D02*
G01X19293Y89085D01*
G01X19293Y87729D01*
G01X19334Y87701D01*
G01X19378Y87677D01*
G01X19424Y87656D01*
G01X19474Y87640D01*
G01X19523Y87626D01*
G01X19573Y87617D01*
G01X19623Y87611D01*
G01X19672Y87609D01*
G01X19830Y87634D01*
G01X19959Y87708D01*
G01X20045Y87831D01*
G01X20073Y88003D01*
G01X20073Y88348D01*
G01X20053Y88513D01*
G01X19994Y88635D01*
G01X19901Y88714D01*
G01X19778Y88739D01*
G01X19733Y88736D01*
G01X19691Y88728D01*
G01X19652Y88714D01*
G01X19616Y88694D01*
G01X19582Y88669D01*
G01X19553Y88639D01*
G01X19529Y88605D01*
G01X19509Y88567D01*
G01X19466Y88567D01*
G01X19466Y89085D01*
G37*

%LPC*%
G36*
G01X19768Y88574D02*
G01X19728Y88577D01*
G01X19689Y88574D01*
G01X19653Y88566D01*
G01X19618Y88553D01*
G01X19585Y88534D01*
G01X19554Y88509D01*
G01X19524Y88478D01*
G01X19495Y88442D01*
G01X19466Y88399D01*
G01X19466Y87820D01*
G01X19486Y87807D01*
G01X19507Y87795D01*
G01X19531Y87785D01*
G01X19555Y87777D01*
G01X19581Y87770D01*
G01X19610Y87765D01*
G01X19640Y87763D01*
G01X19672Y87762D01*
G01X19722Y87765D01*
G01X19767Y87775D01*
G01X19806Y87793D01*
G01X19839Y87817D01*
G01X19866Y87850D01*
G01X19885Y87893D01*
G01X19897Y87945D01*
G01X19900Y88008D01*
G01X19900Y88348D01*
G01X19898Y88406D01*
G01X19890Y88455D01*
G01X19876Y88495D01*
G01X19857Y88526D01*
G01X19833Y88548D01*
G01X19803Y88564D01*
G01X19768Y88574D01*
G37*

%LPD*%
G36*
G01X26332Y88719D02*
G01X26151Y88719D01*
G01X26464Y87622D01*
G01X26545Y87622D01*
G01X26540Y87604D01*
G01X26525Y87557D01*
G01X26507Y87516D01*
G01X26487Y87482D01*
G01X26464Y87454D01*
G01X26436Y87434D01*
G01X26404Y87420D01*
G01X26368Y87412D01*
G01X26327Y87409D01*
G01X26312Y87409D01*
G01X26296Y87410D01*
G01X26279Y87412D01*
G01X26261Y87414D01*
G01X26223Y87420D01*
G01X26203Y87424D01*
G01X26182Y87429D01*
G01X26156Y87274D01*
G01X26202Y87268D01*
G01X26245Y87261D01*
G01X26286Y87257D01*
G01X26327Y87256D01*
G01X26383Y87260D01*
G01X26436Y87271D01*
G01X26486Y87289D01*
G01X26532Y87315D01*
G01X26611Y87393D01*
G01X26672Y87518D01*
G01X27005Y88719D01*
G01X26830Y88719D01*
G01X26583Y87769D01*
G01X26332Y88719D01*
G37*

%LPD*%
G36*
G01X20480Y88719D02*
G01X20297Y88719D01*
G01X20612Y87622D01*
G01X20693Y87622D01*
G01X20688Y87604D01*
G01X20673Y87557D01*
G01X20654Y87516D01*
G01X20633Y87482D01*
G01X20609Y87454D01*
G01X20583Y87434D01*
G01X20551Y87420D01*
G01X20515Y87412D01*
G01X20474Y87409D01*
G01X20459Y87409D01*
G01X20442Y87410D01*
G01X20426Y87412D01*
G01X20408Y87414D01*
G01X20390Y87417D01*
G01X20371Y87420D01*
G01X20351Y87424D01*
G01X20330Y87429D01*
G01X20304Y87274D01*
G01X20327Y87271D01*
G01X20349Y87268D01*
G01X20393Y87261D01*
G01X20434Y87257D01*
G01X20474Y87256D01*
G01X20531Y87260D01*
G01X20584Y87271D01*
G01X20632Y87289D01*
G01X20678Y87315D01*
G01X20758Y87393D01*
G01X20820Y87518D01*
G01X21153Y88719D01*
G01X20977Y88719D01*
G01X20731Y87769D01*
G01X20480Y88719D01*
G37*

%LPD*%
G54D26*
G01X5727Y57414D02*
G01X5727Y56583D01*
G01X5674Y56426D01*
G01X5623Y56375D01*
G01X5519Y56324D01*
G01X5415Y56324D01*
G01X5311Y56375D01*
G01X5257Y56426D01*
G01X5207Y56583D01*
G01X5207Y56687D01*
G01X6070Y57205D02*
G01X6172Y57259D01*
G01X6329Y57414D01*
G01X6329Y56324D01*

%LPD*%
G36*
G01X51419Y71813D02*
G01X50916Y71813D01*
G01X50916Y70358D01*
G01X51427Y70358D01*
G01X51610Y70382D01*
G01X51749Y70454D01*
G01X51835Y70571D01*
G01X51864Y70726D01*
G01X51864Y70810D01*
G01X51860Y70867D01*
G01X51848Y70919D01*
G01X51828Y70966D01*
G01X51800Y71008D01*
G01X51765Y71044D01*
G01X51724Y71072D01*
G01X51677Y71091D01*
G01X51625Y71102D01*
G01X51625Y71155D01*
G01X51668Y71167D01*
G01X51706Y71184D01*
G01X51739Y71206D01*
G01X51767Y71234D01*
G01X51790Y71267D01*
G01X51805Y71304D01*
G01X51815Y71344D01*
G01X51818Y71386D01*
G01X51818Y71470D01*
G01X51792Y71614D01*
G01X51711Y71721D01*
G01X51586Y71790D01*
G01X51419Y71813D01*
G37*

%LPC*%
G36*
G01X51440Y71038D02*
G01X51087Y71038D01*
G01X51087Y70507D01*
G01X51440Y70507D01*
G01X51504Y70511D01*
G01X51558Y70521D01*
G01X51602Y70539D01*
G01X51635Y70563D01*
G01X51661Y70595D01*
G01X51679Y70636D01*
G01X51690Y70686D01*
G01X51694Y70746D01*
G01X51694Y70802D01*
G01X51690Y70862D01*
G01X51679Y70912D01*
G01X51661Y70953D01*
G01X51635Y70985D01*
G01X51602Y71008D01*
G01X51558Y71025D01*
G01X51504Y71035D01*
G01X51440Y71038D01*
G37*
G36*
G01X51414Y71661D02*
G01X51087Y71661D01*
G01X51087Y71188D01*
G01X51414Y71188D01*
G01X51474Y71191D01*
G01X51525Y71200D01*
G01X51566Y71215D01*
G01X51597Y71236D01*
G01X51620Y71266D01*
G01X51637Y71303D01*
G01X51647Y71348D01*
G01X51650Y71401D01*
G01X51650Y71447D01*
G01X51647Y71502D01*
G01X51637Y71547D01*
G01X51620Y71584D01*
G01X51597Y71612D01*
G01X51566Y71634D01*
G01X51525Y71648D01*
G01X51474Y71657D01*
G01X51414Y71661D01*
G37*

%LPD*%
G36*
G01X50149Y71813D02*
G01X49646Y71813D01*
G01X49646Y70358D01*
G01X50159Y70358D01*
G01X50342Y70382D01*
G01X50479Y70454D01*
G01X50567Y70571D01*
G01X50596Y70726D01*
G01X50596Y70810D01*
G01X50592Y70867D01*
G01X50580Y70919D01*
G01X50559Y70966D01*
G01X50530Y71008D01*
G01X50496Y71044D01*
G01X50455Y71072D01*
G01X50409Y71091D01*
G01X50358Y71102D01*
G01X50358Y71155D01*
G01X50400Y71167D01*
G01X50437Y71184D01*
G01X50469Y71206D01*
G01X50497Y71234D01*
G01X50521Y71267D01*
G01X50537Y71304D01*
G01X50547Y71344D01*
G01X50551Y71386D01*
G01X50551Y71470D01*
G01X50524Y71614D01*
G01X50444Y71721D01*
G01X50317Y71790D01*
G01X50149Y71813D01*
G37*

%LPC*%
G36*
G01X50172Y71038D02*
G01X49817Y71038D01*
G01X49817Y70507D01*
G01X50172Y70507D01*
G01X50236Y70511D01*
G01X50289Y70521D01*
G01X50334Y70539D01*
G01X50368Y70563D01*
G01X50392Y70595D01*
G01X50410Y70636D01*
G01X50420Y70686D01*
G01X50424Y70746D01*
G01X50424Y70802D01*
G01X50420Y70862D01*
G01X50410Y70912D01*
G01X50392Y70953D01*
G01X50368Y70985D01*
G01X50334Y71008D01*
G01X50289Y71025D01*
G01X50236Y71035D01*
G01X50172Y71038D01*
G37*
G36*
G01X50147Y71661D02*
G01X49817Y71661D01*
G01X49817Y71188D01*
G01X50147Y71188D01*
G01X50206Y71191D01*
G01X50255Y71200D01*
G01X50296Y71215D01*
G01X50327Y71236D01*
G01X50350Y71266D01*
G01X50367Y71303D01*
G01X50377Y71348D01*
G01X50380Y71401D01*
G01X50380Y71447D01*
G01X50377Y71502D01*
G01X50367Y71547D01*
G01X50350Y71584D01*
G01X50327Y71612D01*
G01X50296Y71634D01*
G01X50255Y71648D01*
G01X50206Y71657D01*
G01X50147Y71661D01*
G37*

%LPD*%
G36*
G01X45148Y71813D02*
G01X44721Y71813D01*
G01X44721Y70358D01*
G01X44891Y70358D01*
G01X44891Y70873D01*
G01X45145Y70873D01*
G01X45319Y70898D01*
G01X45443Y70970D01*
G01X45519Y71090D01*
G01X45544Y71257D01*
G01X45544Y71432D01*
G01X45519Y71597D01*
G01X45443Y71716D01*
G01X45320Y71789D01*
G01X45148Y71813D01*
G37*

%LPC*%
G36*
G01X45140Y71661D02*
G01X44891Y71661D01*
G01X44891Y71020D01*
G01X45140Y71020D01*
G01X45197Y71024D01*
G01X45246Y71034D01*
G01X45286Y71052D01*
G01X45318Y71076D01*
G01X45343Y71109D01*
G01X45360Y71150D01*
G01X45371Y71200D01*
G01X45374Y71257D01*
G01X45374Y71429D01*
G01X45371Y71486D01*
G01X45360Y71534D01*
G01X45343Y71574D01*
G01X45318Y71605D01*
G01X45286Y71629D01*
G01X45246Y71646D01*
G01X45197Y71657D01*
G01X45140Y71661D01*
G37*

%LPD*%
G36*
G01X43774Y71813D02*
G01X43604Y71813D01*
G01X43604Y70358D01*
G01X43774Y70358D01*
G01X43774Y71059D01*
G01X43832Y71059D01*
G01X44269Y70358D01*
G01X44472Y70358D01*
G01X43964Y71142D01*
G01X44475Y71813D01*
G01X44282Y71813D01*
G01X43827Y71211D01*
G01X43774Y71211D01*
G01X43774Y71813D01*
G37*

%LPD*%
G36*
G01X54325Y71813D02*
G01X53484Y71813D01*
G01X53484Y71089D01*
G01X53962Y71089D01*
G01X54024Y71085D01*
G01X54078Y71074D01*
G01X54121Y71054D01*
G01X54155Y71028D01*
G01X54180Y70993D01*
G01X54199Y70949D01*
G01X54210Y70896D01*
G01X54213Y70835D01*
G01X54213Y70744D01*
G01X54209Y70683D01*
G01X54196Y70631D01*
G01X54175Y70588D01*
G01X54145Y70553D01*
G01X54105Y70528D01*
G01X54054Y70509D01*
G01X53992Y70498D01*
G01X53919Y70495D01*
G01X53772Y70509D01*
G01X53682Y70551D01*
G01X53655Y70585D01*
G01X53634Y70634D01*
G01X53618Y70696D01*
G01X53609Y70772D01*
G01X53439Y70754D01*
G01X53474Y70559D01*
G01X53560Y70431D01*
G01X53623Y70391D01*
G01X53704Y70363D01*
G01X53801Y70345D01*
G01X53916Y70340D01*
G01X54024Y70346D01*
G01X54119Y70365D01*
G01X54199Y70397D01*
G01X54264Y70441D01*
G01X54353Y70563D01*
G01X54383Y70731D01*
G01X54383Y70848D01*
G01X54358Y71026D01*
G01X54279Y71153D01*
G01X54151Y71227D01*
G01X53975Y71252D01*
G01X53654Y71252D01*
G01X53654Y71658D01*
G01X54325Y71658D01*
G01X54325Y71813D01*
G37*

%LPD*%
G36*
G01X53055Y71813D02*
G01X52214Y71813D01*
G01X52214Y71089D01*
G01X52692Y71089D01*
G01X52754Y71085D01*
G01X52808Y71074D01*
G01X52851Y71054D01*
G01X52885Y71028D01*
G01X52910Y70993D01*
G01X52929Y70949D01*
G01X52940Y70896D01*
G01X52943Y70835D01*
G01X52943Y70744D01*
G01X52939Y70683D01*
G01X52926Y70631D01*
G01X52905Y70588D01*
G01X52875Y70553D01*
G01X52835Y70528D01*
G01X52784Y70509D01*
G01X52722Y70498D01*
G01X52649Y70495D01*
G01X52503Y70509D01*
G01X52412Y70551D01*
G01X52385Y70585D01*
G01X52364Y70634D01*
G01X52349Y70696D01*
G01X52341Y70772D01*
G01X52171Y70754D01*
G01X52206Y70559D01*
G01X52290Y70431D01*
G01X52354Y70391D01*
G01X52435Y70363D01*
G01X52533Y70345D01*
G01X52649Y70340D01*
G01X52756Y70346D01*
G01X52850Y70365D01*
G01X52930Y70397D01*
G01X52997Y70441D01*
G01X53086Y70563D01*
G01X53116Y70731D01*
G01X53116Y70848D01*
G01X53090Y71026D01*
G01X53012Y71153D01*
G01X52882Y71227D01*
G01X52707Y71252D01*
G01X52387Y71252D01*
G01X52387Y71658D01*
G01X53055Y71658D01*
G01X53055Y71813D01*
G37*

%LPD*%
G36*
G01X48954Y71821D02*
G01X48844Y71831D01*
G01X48734Y71821D01*
G01X48638Y71790D01*
G01X48556Y71739D01*
G01X48488Y71668D01*
G01X48434Y71578D01*
G01X48395Y71468D01*
G01X48371Y71340D01*
G01X48364Y71193D01*
G01X48364Y70970D01*
G01X48371Y70824D01*
G01X48394Y70697D01*
G01X48432Y70589D01*
G01X48486Y70500D01*
G01X48554Y70430D01*
G01X48636Y70380D01*
G01X48733Y70350D01*
G01X48844Y70340D01*
G01X48954Y70350D01*
G01X49051Y70380D01*
G01X49132Y70430D01*
G01X49199Y70500D01*
G01X49253Y70589D01*
G01X49291Y70697D01*
G01X49314Y70824D01*
G01X49321Y70970D01*
G01X49321Y71193D01*
G01X49314Y71340D01*
G01X49291Y71468D01*
G01X49253Y71578D01*
G01X49199Y71668D01*
G01X49132Y71739D01*
G01X49051Y71790D01*
G01X48954Y71821D01*
G37*

%LPC*%
G36*
G01X48982Y71647D02*
G01X48844Y71676D01*
G01X48703Y71646D01*
G01X48607Y71559D01*
G01X48576Y71491D01*
G01X48554Y71405D01*
G01X48541Y71301D01*
G01X48536Y71178D01*
G01X48536Y70985D01*
G01X48541Y70864D01*
G01X48554Y70761D01*
G01X48576Y70676D01*
G01X48607Y70609D01*
G01X48703Y70523D01*
G01X48844Y70495D01*
G01X48982Y70523D01*
G01X49077Y70609D01*
G01X49109Y70676D01*
G01X49133Y70761D01*
G01X49146Y70864D01*
G01X49151Y70985D01*
G01X49151Y71178D01*
G01X49146Y71301D01*
G01X49133Y71405D01*
G01X49109Y71491D01*
G01X49077Y71559D01*
G01X48982Y71647D01*
G37*

%LPD*%
G36*
G01X48867Y71222D02*
G01X48844Y71224D01*
G01X48820Y71222D01*
G01X48798Y71217D01*
G01X48779Y71209D01*
G01X48762Y71198D01*
G01X48750Y71183D01*
G01X48742Y71163D01*
G01X48736Y71137D01*
G01X48734Y71107D01*
G01X48734Y71061D01*
G01X48736Y71031D01*
G01X48742Y71005D01*
G01X48750Y70985D01*
G01X48762Y70970D01*
G01X48779Y70958D01*
G01X48798Y70950D01*
G01X48820Y70946D01*
G01X48844Y70944D01*
G01X48866Y70946D01*
G01X48886Y70950D01*
G01X48904Y70958D01*
G01X48920Y70970D01*
G01X48933Y70985D01*
G01X48943Y71005D01*
G01X48948Y71031D01*
G01X48950Y71061D01*
G01X48950Y71107D01*
G01X48948Y71137D01*
G01X48943Y71163D01*
G01X48933Y71183D01*
G01X48920Y71198D01*
G01X48905Y71209D01*
G01X48887Y71217D01*
G01X48867Y71222D01*
G37*

%LPD*%
G36*
G01X47766Y71810D02*
G01X47574Y71831D01*
G01X47381Y71810D01*
G01X47246Y71747D01*
G01X47166Y71638D01*
G01X47139Y71483D01*
G01X47139Y71424D01*
G01X47143Y71363D01*
G01X47153Y71311D01*
G01X47169Y71266D01*
G01X47193Y71229D01*
G01X47222Y71198D01*
G01X47258Y71175D01*
G01X47300Y71159D01*
G01X47348Y71150D01*
G01X47348Y71097D01*
G01X47293Y71086D01*
G01X47245Y71067D01*
G01X47204Y71040D01*
G01X47170Y71005D01*
G01X47143Y70960D01*
G01X47124Y70906D01*
G01X47113Y70843D01*
G01X47109Y70772D01*
G01X47109Y70731D01*
G01X47137Y70558D01*
G01X47221Y70436D01*
G01X47286Y70394D01*
G01X47366Y70364D01*
G01X47462Y70346D01*
G01X47574Y70340D01*
G01X47685Y70346D01*
G01X47781Y70364D01*
G01X47860Y70394D01*
G01X47924Y70436D01*
G01X48010Y70558D01*
G01X48039Y70731D01*
G01X48039Y70772D01*
G01X48035Y70843D01*
G01X48023Y70906D01*
G01X48004Y70960D01*
G01X47978Y71005D01*
G01X47944Y71040D01*
G01X47902Y71067D01*
G01X47853Y71086D01*
G01X47797Y71097D01*
G01X47797Y71150D01*
G01X47846Y71159D01*
G01X47889Y71175D01*
G01X47925Y71198D01*
G01X47955Y71229D01*
G01X47978Y71266D01*
G01X47995Y71311D01*
G01X48004Y71363D01*
G01X48008Y71424D01*
G01X48008Y71483D01*
G01X47982Y71638D01*
G01X47901Y71747D01*
G01X47766Y71810D01*
G37*

%LPC*%
G36*
G01X47649Y71042D02*
G01X47574Y71046D01*
G01X47498Y71042D01*
G01X47434Y71031D01*
G01X47383Y71011D01*
G01X47345Y70985D01*
G01X47316Y70950D01*
G01X47296Y70905D01*
G01X47283Y70849D01*
G01X47279Y70782D01*
G01X47279Y70749D01*
G01X47283Y70682D01*
G01X47296Y70625D01*
G01X47316Y70580D01*
G01X47345Y70545D01*
G01X47383Y70520D01*
G01X47434Y70502D01*
G01X47498Y70491D01*
G01X47574Y70487D01*
G01X47649Y70491D01*
G01X47712Y70502D01*
G01X47763Y70520D01*
G01X47802Y70545D01*
G01X47831Y70580D01*
G01X47852Y70626D01*
G01X47864Y70682D01*
G01X47868Y70749D01*
G01X47868Y70782D01*
G01X47864Y70849D01*
G01X47852Y70905D01*
G01X47831Y70950D01*
G01X47802Y70985D01*
G01X47763Y71011D01*
G01X47712Y71031D01*
G01X47649Y71042D01*
G37*
G36*
G01X47642Y71680D02*
G01X47574Y71683D01*
G01X47507Y71680D01*
G01X47450Y71671D01*
G01X47404Y71656D01*
G01X47368Y71635D01*
G01X47343Y71607D01*
G01X47324Y71569D01*
G01X47313Y71523D01*
G01X47310Y71467D01*
G01X47310Y71417D01*
G01X47313Y71360D01*
G01X47324Y71313D01*
G01X47343Y71275D01*
G01X47368Y71247D01*
G01X47404Y71225D01*
G01X47450Y71210D01*
G01X47507Y71201D01*
G01X47574Y71198D01*
G01X47642Y71201D01*
G01X47699Y71210D01*
G01X47745Y71225D01*
G01X47779Y71247D01*
G01X47805Y71275D01*
G01X47823Y71313D01*
G01X47834Y71360D01*
G01X47838Y71417D01*
G01X47838Y71467D01*
G01X47834Y71523D01*
G01X47823Y71569D01*
G01X47805Y71607D01*
G01X47779Y71635D01*
G01X47745Y71656D01*
G01X47699Y71671D01*
G01X47642Y71680D01*
G37*

%LPD*%
G36*
G01X46710Y71813D02*
G01X45869Y71813D01*
G01X45869Y71089D01*
G01X46347Y71089D01*
G01X46409Y71085D01*
G01X46463Y71074D01*
G01X46506Y71054D01*
G01X46540Y71028D01*
G01X46565Y70993D01*
G01X46584Y70949D01*
G01X46595Y70896D01*
G01X46598Y70835D01*
G01X46598Y70744D01*
G01X46594Y70683D01*
G01X46581Y70631D01*
G01X46560Y70588D01*
G01X46530Y70553D01*
G01X46490Y70528D01*
G01X46439Y70509D01*
G01X46377Y70498D01*
G01X46304Y70495D01*
G01X46158Y70509D01*
G01X46067Y70551D01*
G01X46040Y70585D01*
G01X46019Y70634D01*
G01X46004Y70696D01*
G01X45996Y70772D01*
G01X45824Y70754D01*
G01X45861Y70559D01*
G01X45946Y70431D01*
G01X46009Y70391D01*
G01X46090Y70363D01*
G01X46188Y70345D01*
G01X46304Y70340D01*
G01X46411Y70346D01*
G01X46505Y70365D01*
G01X46585Y70397D01*
G01X46652Y70441D01*
G01X46741Y70563D01*
G01X46771Y70731D01*
G01X46771Y70848D01*
G01X46745Y71026D01*
G01X46664Y71153D01*
G01X46536Y71227D01*
G01X46360Y71252D01*
G01X46040Y71252D01*
G01X46040Y71658D01*
G01X46710Y71658D01*
G01X46710Y71813D01*
G37*

%LPD*%

%LPD*%
G36*
G01X82638Y72321D02*
G01X82212Y72321D01*
G01X82212Y70866D01*
G01X82636Y70866D01*
G01X82749Y70874D01*
G01X82848Y70899D01*
G01X82934Y70941D01*
G01X83007Y71000D01*
G01X83066Y71072D01*
G01X83108Y71156D01*
G01X83133Y71251D01*
G01X83141Y71358D01*
G01X83141Y71821D01*
G01X83133Y71928D01*
G01X83108Y72024D01*
G01X83066Y72110D01*
G01X83007Y72184D01*
G01X82934Y72244D01*
G01X82849Y72287D01*
G01X82750Y72312D01*
G01X82638Y72321D01*
G37*

%LPC*%
G36*
G01X82633Y72169D02*
G01X82382Y72169D01*
G01X82382Y71015D01*
G01X82633Y71015D01*
G01X82779Y71038D01*
G01X82885Y71107D01*
G01X82950Y71216D01*
G01X82971Y71361D01*
G01X82971Y71818D01*
G01X82950Y71965D01*
G01X82885Y72075D01*
G01X82779Y72145D01*
G01X82633Y72169D01*
G37*

%LPD*%
G36*
G01X84139Y72318D02*
G01X83944Y72339D01*
G01X83751Y72318D01*
G01X83616Y72255D01*
G01X83537Y72146D01*
G01X83510Y71991D01*
G01X83510Y71932D01*
G01X83513Y71871D01*
G01X83523Y71819D01*
G01X83540Y71774D01*
G01X83563Y71737D01*
G01X83594Y71706D01*
G01X83630Y71683D01*
G01X83673Y71667D01*
G01X83720Y71658D01*
G01X83720Y71605D01*
G01X83665Y71594D01*
G01X83616Y71575D01*
G01X83574Y71548D01*
G01X83540Y71513D01*
G01X83514Y71468D01*
G01X83494Y71414D01*
G01X83483Y71351D01*
G01X83479Y71280D01*
G01X83479Y71239D01*
G01X83508Y71066D01*
G01X83593Y70944D01*
G01X83658Y70902D01*
G01X83738Y70872D01*
G01X83833Y70854D01*
G01X83944Y70848D01*
G01X84056Y70854D01*
G01X84152Y70872D01*
G01X84232Y70902D01*
G01X84297Y70944D01*
G01X84383Y71066D01*
G01X84411Y71239D01*
G01X84411Y71280D01*
G01X84408Y71351D01*
G01X84396Y71414D01*
G01X84377Y71468D01*
G01X84350Y71513D01*
G01X84316Y71548D01*
G01X84275Y71575D01*
G01X84226Y71594D01*
G01X84170Y71605D01*
G01X84170Y71658D01*
G01X84218Y71667D01*
G01X84259Y71683D01*
G01X84295Y71706D01*
G01X84325Y71737D01*
G01X84349Y71774D01*
G01X84367Y71819D01*
G01X84377Y71871D01*
G01X84381Y71932D01*
G01X84381Y71991D01*
G01X84354Y72146D01*
G01X84274Y72255D01*
G01X84139Y72318D01*
G37*

%LPC*%
G36*
G01X84084Y71539D02*
G01X83944Y71554D01*
G01X83869Y71550D01*
G01X83806Y71539D01*
G01X83754Y71519D01*
G01X83715Y71493D01*
G01X83686Y71458D01*
G01X83666Y71413D01*
G01X83653Y71357D01*
G01X83649Y71290D01*
G01X83649Y71257D01*
G01X83653Y71190D01*
G01X83666Y71133D01*
G01X83686Y71088D01*
G01X83715Y71053D01*
G01X83754Y71028D01*
G01X83806Y71010D01*
G01X83869Y70999D01*
G01X83944Y70995D01*
G01X84020Y70999D01*
G01X84084Y71010D01*
G01X84136Y71028D01*
G01X84175Y71053D01*
G01X84203Y71088D01*
G01X84223Y71134D01*
G01X84235Y71190D01*
G01X84239Y71257D01*
G01X84239Y71290D01*
G01X84235Y71357D01*
G01X84223Y71413D01*
G01X84203Y71458D01*
G01X84175Y71493D01*
G01X84084Y71539D01*
G37*
G36*
G01X84012Y72188D02*
G01X83944Y72191D01*
G01X83877Y72188D01*
G01X83821Y72179D01*
G01X83775Y72164D01*
G01X83741Y72143D01*
G01X83715Y72115D01*
G01X83697Y72077D01*
G01X83686Y72031D01*
G01X83682Y71975D01*
G01X83682Y71925D01*
G01X83686Y71868D01*
G01X83697Y71821D01*
G01X83715Y71783D01*
G01X83741Y71755D01*
G01X83775Y71733D01*
G01X83821Y71718D01*
G01X83877Y71709D01*
G01X83944Y71706D01*
G01X84012Y71709D01*
G01X84069Y71718D01*
G01X84115Y71733D01*
G01X84150Y71755D01*
G01X84175Y71783D01*
G01X84193Y71821D01*
G01X84205Y71868D01*
G01X84208Y71925D01*
G01X84208Y71975D01*
G01X84205Y72031D01*
G01X84193Y72077D01*
G01X84175Y72115D01*
G01X84150Y72143D01*
G01X84115Y72164D01*
G01X84069Y72179D01*
G01X84012Y72188D01*
G37*

%LPD*%

%LPD*%
G36*
G01X10782Y32590D02*
G01X10609Y32590D01*
G01X10609Y31661D01*
G01X10782Y31661D01*
G01X10782Y32420D01*
G01X10897Y32356D01*
G01X11006Y32299D01*
G01X11109Y32247D01*
G01X11206Y32202D01*
G01X11298Y32163D01*
G01X11384Y32131D01*
G01X11472Y32101D01*
G01X11570Y32073D01*
G01X11678Y32044D01*
G01X11797Y32017D01*
G01X11926Y31989D01*
G01X12065Y31963D01*
G01X12065Y32148D01*
G01X11898Y32176D01*
G01X11742Y32209D01*
G01X11597Y32246D01*
G01X11463Y32288D01*
G01X11372Y32322D01*
G01X11272Y32362D01*
G01X11163Y32409D01*
G01X11045Y32463D01*
G01X10918Y32523D01*
G01X10782Y32590D01*
G37*

%LPD*%
G36*
G01X12336Y31320D02*
G01X11915Y31320D01*
G01X11915Y31170D01*
G01X10609Y31170D01*
G01X10609Y30393D01*
G01X11503Y30388D01*
G01X11650Y30380D01*
G01X11765Y30358D01*
G01X11812Y30342D01*
G01X11852Y30323D01*
G01X11886Y30300D01*
G01X11915Y30274D01*
G01X11915Y30165D01*
G01X12336Y30165D01*
G01X12336Y30332D01*
G01X12065Y30332D01*
G01X12065Y31150D01*
G01X12336Y31150D01*
G01X12336Y31320D01*
G37*

%LPC*%
G36*
G01X11915Y30998D02*
G01X10761Y30998D01*
G01X10761Y30558D01*
G01X11513Y30553D01*
G01X11574Y30551D01*
G01X11629Y30547D01*
G01X11678Y30541D01*
G01X11722Y30533D01*
G01X11760Y30522D01*
G01X11797Y30506D01*
G01X11832Y30486D01*
G01X11866Y30462D01*
G01X11915Y30462D01*
G01X11915Y30998D01*
G37*

%LPD*%
G36*
G01X12065Y29900D02*
G01X10609Y29900D01*
G01X10609Y29667D01*
G01X11871Y29136D01*
G01X10609Y29136D01*
G01X10609Y28968D01*
G01X12065Y28968D01*
G01X12065Y29220D01*
G01X10825Y29733D01*
G01X12065Y29733D01*
G01X12065Y29900D01*
G37*

%LPD*%
G36*
G01X11671Y28630D02*
G01X11620Y28630D01*
G01X11564Y28626D01*
G01X11511Y28613D01*
G01X11462Y28592D01*
G01X11414Y28562D01*
G01X11375Y28525D01*
G01X11345Y28479D01*
G01X11324Y28426D01*
G01X11313Y28364D01*
G01X11262Y28364D01*
G01X11255Y28415D01*
G01X11241Y28461D01*
G01X11219Y28502D01*
G01X11191Y28536D01*
G01X11156Y28564D01*
G01X11116Y28584D01*
G01X11070Y28596D01*
G01X11018Y28600D01*
G01X10960Y28600D01*
G01X10795Y28571D01*
G01X10680Y28486D01*
G01X10614Y28344D01*
G01X10591Y28150D01*
G01X10614Y27964D01*
G01X10683Y27833D01*
G01X10802Y27750D01*
G01X10975Y27716D01*
G01X10993Y27886D01*
G01X10930Y27895D01*
G01X10876Y27910D01*
G01X10832Y27931D01*
G01X10797Y27957D01*
G01X10772Y27991D01*
G01X10753Y28034D01*
G01X10742Y28088D01*
G01X10739Y28150D01*
G01X10742Y28218D01*
G01X10751Y28275D01*
G01X10766Y28323D01*
G01X10787Y28361D01*
G01X10815Y28391D01*
G01X10853Y28412D01*
G01X10899Y28426D01*
G01X10955Y28430D01*
G01X11013Y28430D01*
G01X11069Y28426D01*
G01X11114Y28415D01*
G01X11149Y28397D01*
G01X11173Y28371D01*
G01X11191Y28336D01*
G01X11203Y28290D01*
G01X11211Y28233D01*
G01X11214Y28166D01*
G01X11214Y27995D01*
G01X11366Y27995D01*
G01X11366Y28166D01*
G01X11370Y28242D01*
G01X11380Y28306D01*
G01X11397Y28358D01*
G01X11422Y28397D01*
G01X11456Y28425D01*
G01X11501Y28444D01*
G01X11557Y28456D01*
G01X11623Y28460D01*
G01X11671Y28460D01*
G01X11739Y28456D01*
G01X11796Y28443D01*
G01X11842Y28422D01*
G01X11877Y28392D01*
G01X11920Y28299D01*
G01X11935Y28153D01*
G01X11931Y28078D01*
G01X11921Y28016D01*
G01X11903Y27966D01*
G01X11879Y27929D01*
G01X11844Y27903D01*
G01X11795Y27882D01*
G01X11731Y27866D01*
G01X11653Y27856D01*
G01X11671Y27686D01*
G01X11861Y27722D01*
G01X11988Y27807D01*
G01X12059Y27947D01*
G01X12082Y28153D01*
G01X12076Y28268D01*
G01X12057Y28366D01*
G01X12025Y28448D01*
G01X11981Y28514D01*
G01X11854Y28601D01*
G01X11671Y28630D01*
G37*

%LPD*%
G36*
G01X11671Y27363D02*
G01X11620Y27363D01*
G01X11564Y27359D01*
G01X11511Y27346D01*
G01X11462Y27324D01*
G01X11414Y27294D01*
G01X11375Y27256D01*
G01X11345Y27210D01*
G01X11324Y27156D01*
G01X11313Y27094D01*
G01X11262Y27094D01*
G01X11255Y27145D01*
G01X11241Y27191D01*
G01X11219Y27232D01*
G01X11191Y27266D01*
G01X11156Y27294D01*
G01X11116Y27314D01*
G01X11070Y27326D01*
G01X11018Y27330D01*
G01X10960Y27330D01*
G01X10795Y27301D01*
G01X10680Y27216D01*
G01X10614Y27075D01*
G01X10591Y26883D01*
G01X10614Y26695D01*
G01X10683Y26563D01*
G01X10802Y26482D01*
G01X10975Y26449D01*
G01X10993Y26616D01*
G01X10930Y26625D01*
G01X10876Y26640D01*
G01X10832Y26661D01*
G01X10797Y26687D01*
G01X10772Y26721D01*
G01X10753Y26766D01*
G01X10742Y26819D01*
G01X10739Y26883D01*
G01X10742Y26949D01*
G01X10751Y27007D01*
G01X10766Y27055D01*
G01X10787Y27094D01*
G01X10815Y27123D01*
G01X10853Y27143D01*
G01X10899Y27156D01*
G01X10955Y27160D01*
G01X11013Y27160D01*
G01X11069Y27156D01*
G01X11114Y27145D01*
G01X11149Y27127D01*
G01X11173Y27101D01*
G01X11191Y27067D01*
G01X11203Y27021D01*
G01X11211Y26964D01*
G01X11214Y26896D01*
G01X11214Y26725D01*
G01X11366Y26725D01*
G01X11366Y26896D01*
G01X11370Y26972D01*
G01X11380Y27036D01*
G01X11397Y27088D01*
G01X11422Y27127D01*
G01X11456Y27155D01*
G01X11501Y27174D01*
G01X11557Y27186D01*
G01X11623Y27190D01*
G01X11671Y27190D01*
G01X11739Y27186D01*
G01X11796Y27173D01*
G01X11842Y27153D01*
G01X11877Y27124D01*
G01X11920Y27030D01*
G01X11935Y26883D01*
G01X11931Y26808D01*
G01X11921Y26746D01*
G01X11903Y26697D01*
G01X11879Y26662D01*
G01X11844Y26634D01*
G01X11795Y26613D01*
G01X11731Y26597D01*
G01X11653Y26588D01*
G01X11671Y26416D01*
G01X11861Y26452D01*
G01X11988Y26537D01*
G01X12059Y26678D01*
G01X12082Y26883D01*
G01X12076Y26998D01*
G01X12057Y27097D01*
G01X12025Y27180D01*
G01X11981Y27246D01*
G01X11854Y27334D01*
G01X11671Y27363D01*
G37*

%LPD*%
G36*
G01X11691Y26093D02*
G01X11574Y26093D01*
G01X11396Y26067D01*
G01X11269Y25989D01*
G01X11195Y25860D01*
G01X11170Y25684D01*
G01X11170Y25364D01*
G01X10764Y25364D01*
G01X10764Y26032D01*
G01X10609Y26032D01*
G01X10609Y25194D01*
G01X11333Y25194D01*
G01X11333Y25669D01*
G01X11337Y25731D01*
G01X11348Y25784D01*
G01X11368Y25828D01*
G01X11394Y25862D01*
G01X11429Y25888D01*
G01X11473Y25908D01*
G01X11526Y25919D01*
G01X11587Y25923D01*
G01X11678Y25923D01*
G01X11739Y25918D01*
G01X11791Y25905D01*
G01X11834Y25883D01*
G01X11869Y25852D01*
G01X11894Y25812D01*
G01X11913Y25761D01*
G01X11924Y25700D01*
G01X11927Y25628D01*
G01X11913Y25481D01*
G01X11871Y25392D01*
G01X11837Y25363D01*
G01X11788Y25342D01*
G01X11726Y25327D01*
G01X11650Y25318D01*
G01X11668Y25148D01*
G01X11863Y25183D01*
G01X11991Y25267D01*
G01X12031Y25332D01*
G01X12059Y25413D01*
G01X12077Y25511D01*
G01X12082Y25626D01*
G01X12076Y25733D01*
G01X12057Y25827D01*
G01X12025Y25907D01*
G01X11981Y25974D01*
G01X11859Y26063D01*
G01X11691Y26093D01*
G37*

%LPD*%
G36*
G01X12065Y24823D02*
G01X11915Y24823D01*
G01X11915Y24521D01*
G01X10609Y24521D01*
G01X10609Y24353D01*
G01X10757Y24308D01*
G01X10871Y24229D01*
G01X10947Y24118D01*
G01X10980Y23985D01*
G01X11148Y24000D01*
G01X11140Y24054D01*
G01X11125Y24105D01*
G01X11103Y24153D01*
G01X11074Y24198D01*
G01X11037Y24238D01*
G01X10995Y24271D01*
G01X10948Y24298D01*
G01X10896Y24317D01*
G01X10896Y24348D01*
G01X11915Y24348D01*
G01X11915Y24015D01*
G01X12065Y24015D01*
G01X12065Y24823D01*
G37*

%LPD*%
G36*
G01X11280Y23136D02*
G01X10609Y23647D01*
G01X10609Y23454D01*
G01X11211Y22999D01*
G01X11211Y22946D01*
G01X10609Y22946D01*
G01X10609Y22776D01*
G01X12065Y22776D01*
G01X12065Y22946D01*
G01X11363Y22946D01*
G01X11363Y23004D01*
G01X12065Y23441D01*
G01X12065Y23644D01*
G01X11280Y23136D01*
G37*

%LPD*%

%LPD*%
G36*
G01X12479Y38031D02*
G01X12311Y38031D01*
G01X12267Y37883D01*
G01X12186Y37769D01*
G01X12077Y37693D01*
G01X11945Y37660D01*
G01X11958Y37492D01*
G01X12012Y37500D01*
G01X12063Y37515D01*
G01X12111Y37537D01*
G01X12156Y37566D01*
G01X12197Y37603D01*
G01X12231Y37645D01*
G01X12258Y37692D01*
G01X12278Y37744D01*
G01X12308Y37744D01*
G01X12308Y36725D01*
G01X11973Y36725D01*
G01X11973Y36576D01*
G01X12783Y36576D01*
G01X12783Y36725D01*
G01X12479Y36725D01*
G01X12479Y38031D01*
G37*

%LPD*%
G36*
G01X11010Y38031D02*
G01X10584Y38031D01*
G01X10584Y36576D01*
G01X11008Y36576D01*
G01X11121Y36584D01*
G01X11220Y36609D01*
G01X11306Y36651D01*
G01X11379Y36710D01*
G01X11438Y36782D01*
G01X11480Y36866D01*
G01X11505Y36961D01*
G01X11513Y37068D01*
G01X11513Y37531D01*
G01X11505Y37638D01*
G01X11480Y37734D01*
G01X11438Y37820D01*
G01X11379Y37894D01*
G01X11306Y37954D01*
G01X11221Y37997D01*
G01X11122Y38022D01*
G01X11010Y38031D01*
G37*

%LPC*%
G36*
G01X11005Y37879D02*
G01X10754Y37879D01*
G01X10754Y36725D01*
G01X11005Y36725D01*
G01X11151Y36748D01*
G01X11257Y36817D01*
G01X11322Y36926D01*
G01X11343Y37071D01*
G01X11343Y37528D01*
G01X11322Y37675D01*
G01X11257Y37785D01*
G01X11151Y37855D01*
G01X11005Y37879D01*
G37*

%LPD*%

%LPD*%
G36*
G01X25788Y32440D02*
G01X25747Y32440D01*
G01X25676Y32436D01*
G01X25613Y32425D01*
G01X25559Y32406D01*
G01X25514Y32379D01*
G01X25479Y32345D01*
G01X25452Y32304D01*
G01X25433Y32255D01*
G01X25422Y32199D01*
G01X25369Y32199D01*
G01X25360Y32247D01*
G01X25344Y32289D01*
G01X25321Y32326D01*
G01X25290Y32357D01*
G01X25253Y32380D01*
G01X25208Y32397D01*
G01X25156Y32406D01*
G01X25095Y32410D01*
G01X25036Y32410D01*
G01X24881Y32383D01*
G01X24772Y32303D01*
G01X24709Y32168D01*
G01X24688Y31976D01*
G01X24709Y31781D01*
G01X24772Y31645D01*
G01X24881Y31567D01*
G01X25036Y31541D01*
G01X25095Y31541D01*
G01X25156Y31545D01*
G01X25208Y31554D01*
G01X25253Y31571D01*
G01X25290Y31595D01*
G01X25321Y31624D01*
G01X25344Y31660D01*
G01X25360Y31702D01*
G01X25369Y31750D01*
G01X25422Y31750D01*
G01X25433Y31694D01*
G01X25452Y31645D01*
G01X25479Y31603D01*
G01X25514Y31569D01*
G01X25559Y31543D01*
G01X25613Y31523D01*
G01X25676Y31512D01*
G01X25747Y31508D01*
G01X25788Y31508D01*
G01X25961Y31537D01*
G01X26083Y31623D01*
G01X26125Y31688D01*
G01X26155Y31768D01*
G01X26173Y31864D01*
G01X26179Y31976D01*
G01X26173Y32086D01*
G01X26155Y32181D01*
G01X26125Y32262D01*
G01X26083Y32326D01*
G01X25961Y32412D01*
G01X25788Y32440D01*
G37*

%LPC*%
G36*
G01X25770Y32270D02*
G01X25737Y32270D01*
G01X25670Y32266D01*
G01X25614Y32254D01*
G01X25569Y32233D01*
G01X25534Y32204D01*
G01X25507Y32165D01*
G01X25488Y32114D01*
G01X25477Y32051D01*
G01X25473Y31976D01*
G01X25488Y31835D01*
G01X25534Y31744D01*
G01X25569Y31716D01*
G01X25614Y31697D01*
G01X25670Y31685D01*
G01X25737Y31681D01*
G01X25770Y31681D01*
G01X25837Y31685D01*
G01X25893Y31697D01*
G01X25939Y31716D01*
G01X25974Y31744D01*
G01X25999Y31784D01*
G01X26017Y31835D01*
G01X26028Y31899D01*
G01X26032Y31976D01*
G01X26028Y32051D01*
G01X26017Y32114D01*
G01X25999Y32165D01*
G01X25974Y32204D01*
G01X25939Y32233D01*
G01X25893Y32253D01*
G01X25837Y32266D01*
G01X25770Y32270D01*
G37*
G36*
G01X25102Y32237D02*
G01X25052Y32237D01*
G01X24996Y32234D01*
G01X24950Y32223D01*
G01X24912Y32206D01*
G01X24884Y32181D01*
G01X24863Y32147D01*
G01X24848Y32101D01*
G01X24839Y32044D01*
G01X24836Y31976D01*
G01X24839Y31907D01*
G01X24848Y31851D01*
G01X24863Y31804D01*
G01X24884Y31770D01*
G01X24912Y31744D01*
G01X24950Y31726D01*
G01X24996Y31715D01*
G01X25052Y31711D01*
G01X25102Y31711D01*
G01X25159Y31715D01*
G01X25206Y31726D01*
G01X25244Y31744D01*
G01X25273Y31770D01*
G01X25294Y31804D01*
G01X25309Y31851D01*
G01X25318Y31907D01*
G01X25321Y31976D01*
G01X25318Y32044D01*
G01X25309Y32101D01*
G01X25294Y32147D01*
G01X25273Y32181D01*
G01X25244Y32206D01*
G01X25206Y32223D01*
G01X25159Y32234D01*
G01X25102Y32237D01*
G37*

%LPD*%
G36*
G01X26162Y31170D02*
G01X24706Y31170D01*
G01X24706Y30932D01*
G01X25641Y30634D01*
G01X24706Y30337D01*
G01X24706Y30088D01*
G01X26162Y30088D01*
G01X26162Y30246D01*
G01X24917Y30246D01*
G01X25798Y30530D01*
G01X25798Y30728D01*
G01X24914Y31010D01*
G01X26162Y31010D01*
G01X26162Y31170D01*
G37*

%LPD*%
G36*
G01X24858Y29824D02*
G01X24706Y29824D01*
G01X24706Y28895D01*
G01X24858Y28895D01*
G01X24858Y29273D01*
G01X26162Y29273D01*
G01X26162Y29443D01*
G01X24858Y29443D01*
G01X24858Y29824D01*
G37*

%LPD*%
G36*
G01X25768Y28630D02*
G01X25717Y28630D01*
G01X25661Y28626D01*
G01X25608Y28613D01*
G01X25559Y28592D01*
G01X25511Y28562D01*
G01X25472Y28525D01*
G01X25442Y28479D01*
G01X25421Y28426D01*
G01X25410Y28364D01*
G01X25359Y28364D01*
G01X25352Y28415D01*
G01X25338Y28461D01*
G01X25316Y28502D01*
G01X25288Y28536D01*
G01X25253Y28564D01*
G01X25213Y28584D01*
G01X25167Y28596D01*
G01X25115Y28600D01*
G01X25057Y28600D01*
G01X24892Y28571D01*
G01X24777Y28486D01*
G01X24711Y28344D01*
G01X24688Y28150D01*
G01X24711Y27964D01*
G01X24780Y27833D01*
G01X24899Y27750D01*
G01X25072Y27716D01*
G01X25090Y27886D01*
G01X25027Y27895D01*
G01X24973Y27910D01*
G01X24929Y27931D01*
G01X24894Y27957D01*
G01X24869Y27991D01*
G01X24850Y28034D01*
G01X24839Y28088D01*
G01X24836Y28150D01*
G01X24839Y28218D01*
G01X24848Y28275D01*
G01X24863Y28323D01*
G01X24884Y28361D01*
G01X24912Y28391D01*
G01X24950Y28412D01*
G01X24996Y28426D01*
G01X25052Y28430D01*
G01X25110Y28430D01*
G01X25166Y28426D01*
G01X25211Y28415D01*
G01X25246Y28397D01*
G01X25270Y28371D01*
G01X25288Y28336D01*
G01X25300Y28290D01*
G01X25308Y28233D01*
G01X25311Y28166D01*
G01X25311Y27995D01*
G01X25463Y27995D01*
G01X25463Y28166D01*
G01X25467Y28242D01*
G01X25477Y28306D01*
G01X25494Y28358D01*
G01X25519Y28397D01*
G01X25553Y28425D01*
G01X25598Y28444D01*
G01X25654Y28456D01*
G01X25720Y28460D01*
G01X25768Y28460D01*
G01X25836Y28456D01*
G01X25893Y28443D01*
G01X25939Y28422D01*
G01X25974Y28392D01*
G01X26017Y28299D01*
G01X26032Y28153D01*
G01X26028Y28078D01*
G01X26018Y28016D01*
G01X26000Y27966D01*
G01X25976Y27929D01*
G01X25941Y27903D01*
G01X25892Y27882D01*
G01X25828Y27866D01*
G01X25750Y27856D01*
G01X25768Y27686D01*
G01X25958Y27722D01*
G01X26085Y27807D01*
G01X26156Y27947D01*
G01X26179Y28153D01*
G01X26173Y28268D01*
G01X26154Y28366D01*
G01X26122Y28448D01*
G01X26078Y28514D01*
G01X25951Y28601D01*
G01X25768Y28630D01*
G37*

%LPD*%
G36*
G01X25768Y27363D02*
G01X25717Y27363D01*
G01X25661Y27359D01*
G01X25608Y27346D01*
G01X25559Y27324D01*
G01X25511Y27294D01*
G01X25472Y27256D01*
G01X25442Y27210D01*
G01X25421Y27156D01*
G01X25410Y27094D01*
G01X25359Y27094D01*
G01X25352Y27145D01*
G01X25338Y27191D01*
G01X25316Y27232D01*
G01X25288Y27266D01*
G01X25253Y27294D01*
G01X25213Y27314D01*
G01X25167Y27326D01*
G01X25115Y27330D01*
G01X25057Y27330D01*
G01X24892Y27301D01*
G01X24777Y27216D01*
G01X24711Y27075D01*
G01X24688Y26883D01*
G01X24711Y26695D01*
G01X24780Y26563D01*
G01X24899Y26482D01*
G01X25072Y26449D01*
G01X25090Y26616D01*
G01X25027Y26625D01*
G01X24973Y26640D01*
G01X24929Y26661D01*
G01X24894Y26687D01*
G01X24869Y26721D01*
G01X24850Y26766D01*
G01X24839Y26819D01*
G01X24836Y26883D01*
G01X24839Y26949D01*
G01X24848Y27007D01*
G01X24863Y27055D01*
G01X24884Y27094D01*
G01X24912Y27123D01*
G01X24950Y27143D01*
G01X24996Y27156D01*
G01X25052Y27160D01*
G01X25110Y27160D01*
G01X25166Y27156D01*
G01X25211Y27145D01*
G01X25246Y27127D01*
G01X25270Y27101D01*
G01X25288Y27067D01*
G01X25300Y27021D01*
G01X25308Y26964D01*
G01X25311Y26896D01*
G01X25311Y26725D01*
G01X25463Y26725D01*
G01X25463Y26896D01*
G01X25467Y26972D01*
G01X25477Y27036D01*
G01X25494Y27088D01*
G01X25519Y27127D01*
G01X25553Y27155D01*
G01X25598Y27174D01*
G01X25654Y27186D01*
G01X25720Y27190D01*
G01X25768Y27190D01*
G01X25836Y27186D01*
G01X25893Y27173D01*
G01X25939Y27153D01*
G01X25974Y27124D01*
G01X26017Y27030D01*
G01X26032Y26883D01*
G01X26028Y26808D01*
G01X26018Y26746D01*
G01X26000Y26697D01*
G01X25976Y26662D01*
G01X25941Y26634D01*
G01X25892Y26613D01*
G01X25828Y26597D01*
G01X25750Y26588D01*
G01X25768Y26416D01*
G01X25958Y26452D01*
G01X26085Y26537D01*
G01X26156Y26678D01*
G01X26179Y26883D01*
G01X26173Y26998D01*
G01X26154Y27097D01*
G01X26122Y27180D01*
G01X26078Y27246D01*
G01X25951Y27334D01*
G01X25768Y27363D01*
G37*

%LPD*%
G36*
G01X25788Y26093D02*
G01X25671Y26093D01*
G01X25493Y26067D01*
G01X25366Y25989D01*
G01X25292Y25860D01*
G01X25267Y25684D01*
G01X25267Y25364D01*
G01X24861Y25364D01*
G01X24861Y26032D01*
G01X24706Y26032D01*
G01X24706Y25194D01*
G01X25430Y25194D01*
G01X25430Y25669D01*
G01X25434Y25731D01*
G01X25445Y25784D01*
G01X25465Y25828D01*
G01X25491Y25862D01*
G01X25526Y25888D01*
G01X25570Y25908D01*
G01X25623Y25919D01*
G01X25684Y25923D01*
G01X25775Y25923D01*
G01X25836Y25918D01*
G01X25888Y25905D01*
G01X25931Y25883D01*
G01X25966Y25852D01*
G01X25991Y25812D01*
G01X26010Y25761D01*
G01X26021Y25700D01*
G01X26024Y25628D01*
G01X26010Y25481D01*
G01X25968Y25392D01*
G01X25934Y25363D01*
G01X25885Y25342D01*
G01X25823Y25327D01*
G01X25747Y25318D01*
G01X25765Y25148D01*
G01X25960Y25183D01*
G01X26088Y25267D01*
G01X26128Y25332D01*
G01X26156Y25413D01*
G01X26174Y25511D01*
G01X26179Y25626D01*
G01X26173Y25733D01*
G01X26154Y25827D01*
G01X26122Y25907D01*
G01X26078Y25974D01*
G01X25956Y26063D01*
G01X25788Y26093D01*
G37*

%LPD*%
G36*
G01X26162Y24823D02*
G01X26012Y24823D01*
G01X26012Y24521D01*
G01X24706Y24521D01*
G01X24706Y24353D01*
G01X24854Y24308D01*
G01X24968Y24229D01*
G01X25044Y24118D01*
G01X25077Y23985D01*
G01X25245Y24000D01*
G01X25237Y24054D01*
G01X25222Y24105D01*
G01X25200Y24153D01*
G01X25171Y24198D01*
G01X25134Y24238D01*
G01X25092Y24271D01*
G01X25045Y24298D01*
G01X24993Y24317D01*
G01X24993Y24348D01*
G01X26012Y24348D01*
G01X26012Y24015D01*
G01X26162Y24015D01*
G01X26162Y24823D01*
G37*

%LPD*%
G36*
G01X25377Y23136D02*
G01X24706Y23647D01*
G01X24706Y23454D01*
G01X25308Y22999D01*
G01X25308Y22946D01*
G01X24706Y22946D01*
G01X24706Y22776D01*
G01X26162Y22776D01*
G01X26162Y22946D01*
G01X25460Y22946D01*
G01X25460Y23004D01*
G01X26162Y23441D01*
G01X26162Y23644D01*
G01X25377Y23136D01*
G37*

%LPD*%

%LPD*%
G36*
G01X24980Y37904D02*
G01X24554Y37904D01*
G01X24554Y36449D01*
G01X24978Y36449D01*
G01X25091Y36457D01*
G01X25190Y36482D01*
G01X25276Y36524D01*
G01X25349Y36583D01*
G01X25408Y36655D01*
G01X25450Y36739D01*
G01X25475Y36834D01*
G01X25483Y36941D01*
G01X25483Y37404D01*
G01X25475Y37511D01*
G01X25450Y37607D01*
G01X25408Y37693D01*
G01X25349Y37767D01*
G01X25276Y37827D01*
G01X25191Y37870D01*
G01X25092Y37895D01*
G01X24980Y37904D01*
G37*

%LPC*%
G36*
G01X24975Y37752D02*
G01X24724Y37752D01*
G01X24724Y36598D01*
G01X24975Y36598D01*
G01X25121Y36621D01*
G01X25227Y36690D01*
G01X25292Y36799D01*
G01X25313Y36944D01*
G01X25313Y37401D01*
G01X25292Y37548D01*
G01X25227Y37658D01*
G01X25121Y37728D01*
G01X24975Y37752D01*
G37*

%LPD*%
G36*
G01X26692Y37904D02*
G01X25852Y37904D01*
G01X25852Y37180D01*
G01X26329Y37180D01*
G01X26392Y37176D01*
G01X26445Y37165D01*
G01X26488Y37145D01*
G01X26522Y37119D01*
G01X26548Y37084D01*
G01X26566Y37040D01*
G01X26577Y36987D01*
G01X26581Y36926D01*
G01X26581Y36835D01*
G01X26577Y36774D01*
G01X26563Y36722D01*
G01X26542Y36679D01*
G01X26512Y36644D01*
G01X26472Y36619D01*
G01X26421Y36600D01*
G01X26359Y36589D01*
G01X26286Y36586D01*
G01X26141Y36600D01*
G01X26050Y36642D01*
G01X26022Y36676D01*
G01X26001Y36725D01*
G01X25987Y36787D01*
G01X25979Y36863D01*
G01X25806Y36845D01*
G01X25843Y36650D01*
G01X25928Y36522D01*
G01X25991Y36482D01*
G01X26072Y36454D01*
G01X26170Y36436D01*
G01X26286Y36431D01*
G01X26394Y36437D01*
G01X26487Y36456D01*
G01X26567Y36488D01*
G01X26634Y36532D01*
G01X26723Y36654D01*
G01X26753Y36822D01*
G01X26753Y36939D01*
G01X26727Y37117D01*
G01X26649Y37244D01*
G01X26520Y37318D01*
G01X26344Y37343D01*
G01X26024Y37343D01*
G01X26024Y37749D01*
G01X26692Y37749D01*
G01X26692Y37904D01*
G37*

%LPD*%

%LPD*%
G36*
G01X26036Y69399D02*
G01X25886Y69399D01*
G01X25886Y69094D01*
G01X24580Y69094D01*
G01X24580Y68926D01*
G01X24728Y68882D01*
G01X24842Y68802D01*
G01X24918Y68692D01*
G01X24951Y68561D01*
G01X25119Y68573D01*
G01X25111Y68628D01*
G01X25096Y68679D01*
G01X25074Y68727D01*
G01X25045Y68772D01*
G01X25008Y68813D01*
G01X24966Y68847D01*
G01X24919Y68874D01*
G01X24867Y68893D01*
G01X24867Y68924D01*
G01X25886Y68924D01*
G01X25886Y68589D01*
G01X26036Y68589D01*
G01X26036Y69399D01*
G37*

%LPD*%
G36*
G01X25667Y68147D02*
G01X25583Y68147D01*
G01X25527Y68143D01*
G01X25474Y68131D01*
G01X25427Y68111D01*
G01X25385Y68083D01*
G01X25349Y68048D01*
G01X25321Y68006D01*
G01X25302Y67960D01*
G01X25291Y67908D01*
G01X25238Y67908D01*
G01X25226Y67951D01*
G01X25210Y67988D01*
G01X25187Y68022D01*
G01X25159Y68050D01*
G01X25126Y68073D01*
G01X25090Y68088D01*
G01X25050Y68098D01*
G01X25007Y68101D01*
G01X24923Y68101D01*
G01X24779Y68075D01*
G01X24672Y67994D01*
G01X24603Y67868D01*
G01X24580Y67702D01*
G01X24580Y67197D01*
G01X26036Y67197D01*
G01X26036Y67710D01*
G01X26012Y67894D01*
G01X25939Y68032D01*
G01X25822Y68118D01*
G01X25667Y68147D01*
G37*

%LPC*%
G36*
G01X24992Y67933D02*
G01X24946Y67933D01*
G01X24892Y67930D01*
G01X24846Y67920D01*
G01X24809Y67902D01*
G01X24781Y67877D01*
G01X24760Y67846D01*
G01X24745Y67806D01*
G01X24736Y67756D01*
G01X24732Y67697D01*
G01X24732Y67369D01*
G01X25205Y67369D01*
G01X25205Y67697D01*
G01X25202Y67756D01*
G01X25193Y67806D01*
G01X25178Y67846D01*
G01X25157Y67877D01*
G01X25127Y67902D01*
G01X25090Y67920D01*
G01X25045Y67930D01*
G01X24992Y67933D01*
G37*
G36*
G01X25647Y67977D02*
G01X25591Y67977D01*
G01X25531Y67973D01*
G01X25481Y67962D01*
G01X25440Y67944D01*
G01X25408Y67918D01*
G01X25385Y67885D01*
G01X25368Y67841D01*
G01X25358Y67788D01*
G01X25355Y67723D01*
G01X25355Y67369D01*
G01X25886Y67369D01*
G01X25886Y67723D01*
G01X25882Y67788D01*
G01X25872Y67841D01*
G01X25854Y67885D01*
G01X25830Y67918D01*
G01X25798Y67944D01*
G01X25758Y67962D01*
G01X25707Y67973D01*
G01X25647Y67977D01*
G37*

%LPD*%
G36*
G01X26036Y66859D02*
G01X24580Y66859D01*
G01X24580Y66628D01*
G01X25842Y66097D01*
G01X24580Y66097D01*
G01X24580Y65929D01*
G01X26036Y65929D01*
G01X26036Y66181D01*
G01X24796Y66691D01*
G01X26036Y66691D01*
G01X26036Y66859D01*
G37*

%LPD*%
G36*
G01X25662Y65591D02*
G01X25545Y65591D01*
G01X25367Y65565D01*
G01X25240Y65485D01*
G01X25166Y65357D01*
G01X25141Y65183D01*
G01X25141Y64862D01*
G01X24735Y64862D01*
G01X24735Y65530D01*
G01X24580Y65530D01*
G01X24580Y64690D01*
G01X25304Y64690D01*
G01X25304Y65167D01*
G01X25308Y65230D01*
G01X25319Y65283D01*
G01X25339Y65327D01*
G01X25365Y65360D01*
G01X25400Y65386D01*
G01X25444Y65405D01*
G01X25497Y65415D01*
G01X25558Y65419D01*
G01X25649Y65419D01*
G01X25710Y65415D01*
G01X25762Y65402D01*
G01X25805Y65381D01*
G01X25840Y65350D01*
G01X25865Y65311D01*
G01X25884Y65260D01*
G01X25895Y65198D01*
G01X25898Y65124D01*
G01X25885Y64979D01*
G01X25842Y64888D01*
G01X25808Y64861D01*
G01X25759Y64840D01*
G01X25697Y64825D01*
G01X25621Y64817D01*
G01X25639Y64644D01*
G01X25834Y64681D01*
G01X25962Y64766D01*
G01X26002Y64829D01*
G01X26030Y64910D01*
G01X26048Y65009D01*
G01X26053Y65124D01*
G01X26047Y65232D01*
G01X26028Y65326D01*
G01X25996Y65406D01*
G01X25952Y65472D01*
G01X25830Y65562D01*
G01X25662Y65591D01*
G37*

%LPD*%
G36*
G01X25662Y64321D02*
G01X25545Y64321D01*
G01X25367Y64296D01*
G01X25240Y64217D01*
G01X25166Y64089D01*
G01X25141Y63913D01*
G01X25141Y63592D01*
G01X24735Y63592D01*
G01X24735Y64260D01*
G01X24580Y64260D01*
G01X24580Y63422D01*
G01X25304Y63422D01*
G01X25304Y63897D01*
G01X25308Y63960D01*
G01X25319Y64013D01*
G01X25339Y64057D01*
G01X25365Y64090D01*
G01X25400Y64117D01*
G01X25444Y64136D01*
G01X25497Y64148D01*
G01X25558Y64151D01*
G01X25649Y64151D01*
G01X25710Y64147D01*
G01X25762Y64133D01*
G01X25805Y64112D01*
G01X25840Y64080D01*
G01X25865Y64041D01*
G01X25884Y63990D01*
G01X25895Y63929D01*
G01X25898Y63857D01*
G01X25885Y63710D01*
G01X25842Y63620D01*
G01X25808Y63592D01*
G01X25759Y63571D01*
G01X25697Y63555D01*
G01X25621Y63547D01*
G01X25639Y63377D01*
G01X25834Y63412D01*
G01X25962Y63496D01*
G01X26002Y63560D01*
G01X26030Y63642D01*
G01X26048Y63740D01*
G01X26053Y63854D01*
G01X26047Y63962D01*
G01X26028Y64056D01*
G01X25996Y64136D01*
G01X25952Y64202D01*
G01X25830Y64292D01*
G01X25662Y64321D01*
G37*

%LPD*%
G36*
G01X25662Y63051D02*
G01X25545Y63051D01*
G01X25367Y63026D01*
G01X25240Y62947D01*
G01X25166Y62819D01*
G01X25141Y62643D01*
G01X25141Y62322D01*
G01X24735Y62322D01*
G01X24735Y62993D01*
G01X24580Y62993D01*
G01X24580Y62152D01*
G01X25304Y62152D01*
G01X25304Y62630D01*
G01X25308Y62692D01*
G01X25319Y62744D01*
G01X25339Y62788D01*
G01X25365Y62823D01*
G01X25400Y62849D01*
G01X25444Y62867D01*
G01X25497Y62878D01*
G01X25558Y62881D01*
G01X25649Y62881D01*
G01X25710Y62877D01*
G01X25762Y62865D01*
G01X25805Y62843D01*
G01X25840Y62813D01*
G01X25865Y62773D01*
G01X25884Y62722D01*
G01X25895Y62660D01*
G01X25898Y62587D01*
G01X25885Y62440D01*
G01X25842Y62350D01*
G01X25808Y62323D01*
G01X25759Y62302D01*
G01X25697Y62286D01*
G01X25621Y62277D01*
G01X25639Y62107D01*
G01X25834Y62142D01*
G01X25962Y62228D01*
G01X26002Y62292D01*
G01X26030Y62372D01*
G01X26048Y62470D01*
G01X26053Y62584D01*
G01X26047Y62693D01*
G01X26028Y62787D01*
G01X25996Y62867D01*
G01X25952Y62932D01*
G01X25830Y63022D01*
G01X25662Y63051D01*
G37*

%LPD*%
G36*
G01X25251Y61365D02*
G01X24580Y61875D01*
G01X24580Y61682D01*
G01X25182Y61228D01*
G01X25182Y61174D01*
G01X24580Y61174D01*
G01X24580Y61004D01*
G01X26036Y61004D01*
G01X26036Y61174D01*
G01X25334Y61174D01*
G01X25334Y61233D01*
G01X26036Y61670D01*
G01X26036Y61873D01*
G01X25251Y61365D01*
G37*

%LPD*%

%LPD*%
G36*
G01X26373Y77529D02*
G01X25441Y77529D01*
G01X25441Y77357D01*
G01X26201Y77357D01*
G01X26138Y77242D01*
G01X26081Y77133D01*
G01X26030Y77030D01*
G01X25985Y76933D01*
G01X25946Y76841D01*
G01X25914Y76755D01*
G01X25884Y76667D01*
G01X25856Y76569D01*
G01X25827Y76460D01*
G01X25800Y76342D01*
G01X25772Y76213D01*
G01X25746Y76074D01*
G01X25931Y76074D01*
G01X25958Y76241D01*
G01X25990Y76396D01*
G01X26028Y76541D01*
G01X26071Y76676D01*
G01X26104Y76767D01*
G01X26144Y76867D01*
G01X26191Y76976D01*
G01X26245Y77094D01*
G01X26306Y77221D01*
G01X26373Y77357D01*
G01X26373Y77529D01*
G37*

%LPD*%
G36*
G01X24600Y77529D02*
G01X24174Y77529D01*
G01X24174Y76074D01*
G01X24598Y76074D01*
G01X24711Y76083D01*
G01X24810Y76108D01*
G01X24896Y76150D01*
G01X24969Y76209D01*
G01X25028Y76281D01*
G01X25070Y76365D01*
G01X25095Y76460D01*
G01X25103Y76567D01*
G01X25103Y77029D01*
G01X25095Y77137D01*
G01X25070Y77233D01*
G01X25028Y77319D01*
G01X24969Y77392D01*
G01X24896Y77453D01*
G01X24811Y77495D01*
G01X24712Y77521D01*
G01X24600Y77529D01*
G37*

%LPC*%
G36*
G01X24595Y77377D02*
G01X24344Y77377D01*
G01X24344Y76224D01*
G01X24595Y76224D01*
G01X24741Y76247D01*
G01X24847Y76315D01*
G01X24912Y76425D01*
G01X24933Y76569D01*
G01X24933Y77027D01*
G01X24912Y77173D01*
G01X24847Y77283D01*
G01X24741Y77354D01*
G01X24595Y77377D01*
G37*

%LPD*%

%LPD*%
G36*
G01X12192Y70388D02*
G01X12042Y70388D01*
G01X12042Y70083D01*
G01X10736Y70083D01*
G01X10736Y69916D01*
G01X10884Y69872D01*
G01X10998Y69791D01*
G01X11074Y69681D01*
G01X11107Y69550D01*
G01X11275Y69562D01*
G01X11267Y69617D01*
G01X11252Y69668D01*
G01X11230Y69716D01*
G01X11201Y69761D01*
G01X11164Y69802D01*
G01X11122Y69835D01*
G01X11075Y69863D01*
G01X11023Y69883D01*
G01X11023Y69913D01*
G01X12042Y69913D01*
G01X12042Y69578D01*
G01X12192Y69578D01*
G01X12192Y70388D01*
G37*

%LPD*%
G36*
G01X10888Y69143D02*
G01X10736Y69143D01*
G01X10736Y68338D01*
G01X12192Y68338D01*
G01X12192Y69143D01*
G01X12042Y69143D01*
G01X12042Y68508D01*
G01X11475Y68508D01*
G01X11475Y69067D01*
G01X11323Y69067D01*
G01X11323Y68508D01*
G01X10888Y68508D01*
G01X10888Y69143D01*
G37*

%LPD*%
G36*
G01X12192Y68000D02*
G01X10736Y68000D01*
G01X10736Y67226D01*
G01X11739Y67221D01*
G01X11887Y67212D01*
G01X11986Y67185D01*
G01X12018Y67166D01*
G01X12041Y67140D01*
G01X12055Y67110D01*
G01X12059Y67073D01*
G01X12059Y67063D01*
G01X12058Y67052D01*
G01X12054Y67030D01*
G01X12051Y67019D01*
G01X12047Y67008D01*
G01X12044Y66997D01*
G01X12042Y66984D01*
G01X12189Y66959D01*
G01X12193Y66974D01*
G01X12202Y67022D01*
G01X12204Y67039D01*
G01X12206Y67057D01*
G01X12206Y67075D01*
G01X12207Y67094D01*
G01X12179Y67217D01*
G01X12098Y67307D01*
G01X11960Y67365D01*
G01X11765Y67386D01*
G01X10888Y67388D01*
G01X10888Y67830D01*
G01X12192Y67830D01*
G01X12192Y68000D01*
G37*

%LPD*%
G36*
G01X11798Y66730D02*
G01X11747Y66730D01*
G01X11691Y66726D01*
G01X11638Y66713D01*
G01X11589Y66692D01*
G01X11541Y66662D01*
G01X11502Y66625D01*
G01X11472Y66579D01*
G01X11451Y66526D01*
G01X11440Y66464D01*
G01X11389Y66464D01*
G01X11382Y66515D01*
G01X11368Y66561D01*
G01X11346Y66602D01*
G01X11318Y66636D01*
G01X11283Y66664D01*
G01X11243Y66684D01*
G01X11197Y66696D01*
G01X11145Y66700D01*
G01X11087Y66700D01*
G01X10922Y66671D01*
G01X10807Y66586D01*
G01X10741Y66444D01*
G01X10718Y66250D01*
G01X10741Y66064D01*
G01X10810Y65933D01*
G01X10929Y65850D01*
G01X11102Y65816D01*
G01X11120Y65986D01*
G01X11057Y65995D01*
G01X11003Y66010D01*
G01X10959Y66031D01*
G01X10924Y66057D01*
G01X10899Y66091D01*
G01X10880Y66134D01*
G01X10869Y66188D01*
G01X10866Y66250D01*
G01X10869Y66318D01*
G01X10878Y66375D01*
G01X10893Y66423D01*
G01X10914Y66461D01*
G01X10942Y66491D01*
G01X10980Y66512D01*
G01X11026Y66526D01*
G01X11082Y66530D01*
G01X11140Y66530D01*
G01X11196Y66526D01*
G01X11241Y66515D01*
G01X11276Y66497D01*
G01X11300Y66471D01*
G01X11318Y66436D01*
G01X11330Y66390D01*
G01X11338Y66333D01*
G01X11341Y66266D01*
G01X11341Y66095D01*
G01X11493Y66095D01*
G01X11493Y66266D01*
G01X11497Y66342D01*
G01X11507Y66406D01*
G01X11524Y66458D01*
G01X11549Y66497D01*
G01X11583Y66525D01*
G01X11628Y66544D01*
G01X11684Y66556D01*
G01X11750Y66560D01*
G01X11798Y66560D01*
G01X11866Y66556D01*
G01X11923Y66543D01*
G01X11969Y66522D01*
G01X12004Y66492D01*
G01X12047Y66399D01*
G01X12062Y66253D01*
G01X12058Y66178D01*
G01X12048Y66116D01*
G01X12030Y66066D01*
G01X12006Y66029D01*
G01X11971Y66003D01*
G01X11922Y65982D01*
G01X11858Y65966D01*
G01X11780Y65956D01*
G01X11798Y65786D01*
G01X11988Y65822D01*
G01X12115Y65907D01*
G01X12186Y66047D01*
G01X12209Y66253D01*
G01X12203Y66368D01*
G01X12184Y66466D01*
G01X12152Y66548D01*
G01X12108Y66614D01*
G01X11981Y66701D01*
G01X11798Y66730D01*
G37*

%LPD*%
G36*
G01X11798Y65463D02*
G01X11747Y65463D01*
G01X11691Y65459D01*
G01X11638Y65446D01*
G01X11589Y65424D01*
G01X11541Y65394D01*
G01X11502Y65356D01*
G01X11472Y65310D01*
G01X11451Y65256D01*
G01X11440Y65194D01*
G01X11389Y65194D01*
G01X11382Y65245D01*
G01X11368Y65291D01*
G01X11346Y65332D01*
G01X11318Y65366D01*
G01X11283Y65394D01*
G01X11243Y65414D01*
G01X11197Y65426D01*
G01X11145Y65430D01*
G01X11087Y65430D01*
G01X10922Y65401D01*
G01X10807Y65316D01*
G01X10741Y65175D01*
G01X10718Y64983D01*
G01X10741Y64795D01*
G01X10810Y64663D01*
G01X10929Y64582D01*
G01X11102Y64549D01*
G01X11120Y64716D01*
G01X11057Y64725D01*
G01X11003Y64740D01*
G01X10959Y64761D01*
G01X10924Y64787D01*
G01X10899Y64821D01*
G01X10880Y64866D01*
G01X10869Y64919D01*
G01X10866Y64983D01*
G01X10869Y65049D01*
G01X10878Y65107D01*
G01X10893Y65155D01*
G01X10914Y65194D01*
G01X10942Y65223D01*
G01X10980Y65243D01*
G01X11026Y65256D01*
G01X11082Y65260D01*
G01X11140Y65260D01*
G01X11196Y65256D01*
G01X11241Y65245D01*
G01X11276Y65227D01*
G01X11300Y65201D01*
G01X11318Y65167D01*
G01X11330Y65121D01*
G01X11338Y65064D01*
G01X11341Y64996D01*
G01X11341Y64825D01*
G01X11493Y64825D01*
G01X11493Y64996D01*
G01X11497Y65072D01*
G01X11507Y65136D01*
G01X11524Y65188D01*
G01X11549Y65227D01*
G01X11583Y65255D01*
G01X11628Y65274D01*
G01X11684Y65286D01*
G01X11750Y65290D01*
G01X11798Y65290D01*
G01X11866Y65286D01*
G01X11923Y65273D01*
G01X11969Y65253D01*
G01X12004Y65224D01*
G01X12047Y65130D01*
G01X12062Y64983D01*
G01X12058Y64908D01*
G01X12048Y64846D01*
G01X12030Y64797D01*
G01X12006Y64762D01*
G01X11971Y64734D01*
G01X11922Y64713D01*
G01X11858Y64697D01*
G01X11780Y64688D01*
G01X11798Y64516D01*
G01X11988Y64552D01*
G01X12115Y64637D01*
G01X12186Y64778D01*
G01X12209Y64983D01*
G01X12203Y65098D01*
G01X12184Y65197D01*
G01X12152Y65280D01*
G01X12108Y65346D01*
G01X11981Y65434D01*
G01X11798Y65463D01*
G37*

%LPD*%
G36*
G01X11818Y64193D02*
G01X11701Y64193D01*
G01X11523Y64167D01*
G01X11396Y64089D01*
G01X11322Y63960D01*
G01X11297Y63784D01*
G01X11297Y63464D01*
G01X10891Y63464D01*
G01X10891Y64132D01*
G01X10736Y64132D01*
G01X10736Y63294D01*
G01X11460Y63294D01*
G01X11460Y63769D01*
G01X11464Y63831D01*
G01X11475Y63884D01*
G01X11495Y63928D01*
G01X11521Y63962D01*
G01X11556Y63988D01*
G01X11600Y64008D01*
G01X11653Y64019D01*
G01X11714Y64023D01*
G01X11805Y64023D01*
G01X11866Y64018D01*
G01X11918Y64005D01*
G01X11961Y63983D01*
G01X11996Y63952D01*
G01X12021Y63912D01*
G01X12040Y63861D01*
G01X12051Y63800D01*
G01X12054Y63728D01*
G01X12040Y63581D01*
G01X11998Y63492D01*
G01X11964Y63463D01*
G01X11915Y63442D01*
G01X11853Y63427D01*
G01X11777Y63418D01*
G01X11795Y63248D01*
G01X11990Y63283D01*
G01X12118Y63367D01*
G01X12158Y63432D01*
G01X12186Y63513D01*
G01X12204Y63611D01*
G01X12209Y63726D01*
G01X12203Y63833D01*
G01X12184Y63927D01*
G01X12152Y64007D01*
G01X12108Y64074D01*
G01X11986Y64163D01*
G01X11818Y64193D01*
G37*

%LPD*%
G36*
G01X12192Y62923D02*
G01X12042Y62923D01*
G01X12042Y62621D01*
G01X10736Y62621D01*
G01X10736Y62453D01*
G01X10884Y62408D01*
G01X10998Y62329D01*
G01X11074Y62218D01*
G01X11107Y62085D01*
G01X11275Y62100D01*
G01X11267Y62154D01*
G01X11252Y62205D01*
G01X11230Y62253D01*
G01X11201Y62298D01*
G01X11164Y62338D01*
G01X11122Y62371D01*
G01X11075Y62398D01*
G01X11023Y62417D01*
G01X11023Y62448D01*
G01X12042Y62448D01*
G01X12042Y62115D01*
G01X12192Y62115D01*
G01X12192Y62923D01*
G37*

%LPD*%
G36*
G01X11407Y61236D02*
G01X10736Y61747D01*
G01X10736Y61554D01*
G01X11338Y61099D01*
G01X11338Y61046D01*
G01X10736Y61046D01*
G01X10736Y60876D01*
G01X12192Y60876D01*
G01X12192Y61046D01*
G01X11490Y61046D01*
G01X11490Y61104D01*
G01X12192Y61541D01*
G01X12192Y61744D01*
G01X11407Y61236D01*
G37*

%LPD*%

%LPD*%
G36*
G01X12260Y75998D02*
G01X12062Y76022D01*
G01X11868Y75994D01*
G01X11732Y75912D01*
G01X11686Y75851D01*
G01X11650Y75772D01*
G01X11627Y75677D01*
G01X11615Y75565D01*
G01X11783Y75547D01*
G01X11807Y75701D01*
G01X11856Y75798D01*
G01X11891Y75828D01*
G01X11937Y75849D01*
G01X11994Y75863D01*
G01X12062Y75867D01*
G01X12133Y75863D01*
G01X12192Y75853D01*
G01X12241Y75835D01*
G01X12278Y75811D01*
G01X12307Y75779D01*
G01X12328Y75738D01*
G01X12340Y75690D01*
G01X12344Y75633D01*
G01X12344Y75552D01*
G01X12341Y75509D01*
G01X12334Y75471D01*
G01X12323Y75438D01*
G01X12306Y75410D01*
G01X12284Y75387D01*
G01X12257Y75368D01*
G01X12223Y75353D01*
G01X12184Y75341D01*
G01X11884Y75267D01*
G01X11753Y75214D01*
G01X11666Y75130D01*
G01X11614Y75013D01*
G01X11597Y74858D01*
G01X11597Y74549D01*
G01X12529Y74549D01*
G01X12529Y74698D01*
G01X11770Y74698D01*
G01X11770Y74863D01*
G01X11772Y74916D01*
G01X11780Y74961D01*
G01X11793Y75000D01*
G01X11811Y75031D01*
G01X11833Y75057D01*
G01X11862Y75078D01*
G01X11896Y75095D01*
G01X11935Y75107D01*
G01X12232Y75178D01*
G01X12297Y75198D01*
G01X12353Y75224D01*
G01X12401Y75255D01*
G01X12440Y75293D01*
G01X12494Y75392D01*
G01X12512Y75529D01*
G01X12512Y75653D01*
G01X12484Y75811D01*
G01X12400Y75928D01*
G01X12260Y75998D01*
G37*

%LPD*%
G36*
G01X10756Y76004D02*
G01X10330Y76004D01*
G01X10330Y74549D01*
G01X10754Y74549D01*
G01X10867Y74557D01*
G01X10966Y74582D01*
G01X11052Y74624D01*
G01X11125Y74683D01*
G01X11184Y74755D01*
G01X11226Y74839D01*
G01X11251Y74934D01*
G01X11259Y75041D01*
G01X11259Y75504D01*
G01X11251Y75611D01*
G01X11226Y75707D01*
G01X11184Y75793D01*
G01X11125Y75867D01*
G01X11052Y75927D01*
G01X10967Y75970D01*
G01X10868Y75995D01*
G01X10756Y76004D01*
G37*

%LPC*%
G36*
G01X10751Y75852D02*
G01X10500Y75852D01*
G01X10500Y74698D01*
G01X10751Y74698D01*
G01X10897Y74721D01*
G01X11003Y74790D01*
G01X11068Y74899D01*
G01X11089Y75044D01*
G01X11089Y75501D01*
G01X11068Y75648D01*
G01X11003Y75758D01*
G01X10897Y75828D01*
G01X10751Y75852D01*
G37*

%LPD*%

%LPD*%
G36*
G01X53451Y29014D02*
G01X52948Y29014D01*
G01X52948Y27559D01*
G01X53459Y27559D01*
G01X53642Y27583D01*
G01X53781Y27655D01*
G01X53867Y27772D01*
G01X53896Y27927D01*
G01X53896Y28011D01*
G01X53892Y28068D01*
G01X53880Y28120D01*
G01X53860Y28167D01*
G01X53832Y28209D01*
G01X53797Y28245D01*
G01X53756Y28273D01*
G01X53709Y28292D01*
G01X53657Y28303D01*
G01X53657Y28356D01*
G01X53700Y28368D01*
G01X53738Y28385D01*
G01X53771Y28407D01*
G01X53799Y28435D01*
G01X53822Y28468D01*
G01X53837Y28505D01*
G01X53847Y28545D01*
G01X53850Y28587D01*
G01X53850Y28671D01*
G01X53824Y28815D01*
G01X53743Y28922D01*
G01X53618Y28991D01*
G01X53451Y29014D01*
G37*

%LPC*%
G36*
G01X53472Y28239D02*
G01X53119Y28239D01*
G01X53119Y27708D01*
G01X53472Y27708D01*
G01X53536Y27712D01*
G01X53590Y27722D01*
G01X53634Y27740D01*
G01X53667Y27764D01*
G01X53693Y27796D01*
G01X53711Y27837D01*
G01X53722Y27887D01*
G01X53726Y27947D01*
G01X53726Y28003D01*
G01X53722Y28063D01*
G01X53711Y28113D01*
G01X53693Y28154D01*
G01X53667Y28186D01*
G01X53634Y28209D01*
G01X53590Y28226D01*
G01X53536Y28236D01*
G01X53472Y28239D01*
G37*
G36*
G01X53446Y28862D02*
G01X53119Y28862D01*
G01X53119Y28389D01*
G01X53446Y28389D01*
G01X53506Y28392D01*
G01X53557Y28401D01*
G01X53598Y28416D01*
G01X53629Y28437D01*
G01X53652Y28467D01*
G01X53669Y28504D01*
G01X53679Y28549D01*
G01X53682Y28602D01*
G01X53682Y28648D01*
G01X53679Y28703D01*
G01X53669Y28748D01*
G01X53652Y28785D01*
G01X53629Y28813D01*
G01X53598Y28835D01*
G01X53557Y28849D01*
G01X53506Y28858D01*
G01X53446Y28862D01*
G37*

%LPD*%
G36*
G01X52181Y29014D02*
G01X51678Y29014D01*
G01X51678Y27559D01*
G01X52191Y27559D01*
G01X52374Y27583D01*
G01X52511Y27655D01*
G01X52599Y27772D01*
G01X52628Y27927D01*
G01X52628Y28011D01*
G01X52624Y28068D01*
G01X52612Y28120D01*
G01X52591Y28167D01*
G01X52562Y28209D01*
G01X52528Y28245D01*
G01X52487Y28273D01*
G01X52441Y28292D01*
G01X52390Y28303D01*
G01X52390Y28356D01*
G01X52432Y28368D01*
G01X52469Y28385D01*
G01X52501Y28407D01*
G01X52529Y28435D01*
G01X52553Y28468D01*
G01X52569Y28505D01*
G01X52579Y28545D01*
G01X52583Y28587D01*
G01X52583Y28671D01*
G01X52556Y28815D01*
G01X52476Y28922D01*
G01X52349Y28991D01*
G01X52181Y29014D01*
G37*

%LPC*%
G36*
G01X52204Y28239D02*
G01X51849Y28239D01*
G01X51849Y27708D01*
G01X52204Y27708D01*
G01X52268Y27712D01*
G01X52321Y27722D01*
G01X52366Y27740D01*
G01X52400Y27764D01*
G01X52424Y27796D01*
G01X52442Y27837D01*
G01X52452Y27887D01*
G01X52456Y27947D01*
G01X52456Y28003D01*
G01X52452Y28063D01*
G01X52442Y28113D01*
G01X52424Y28154D01*
G01X52400Y28186D01*
G01X52366Y28209D01*
G01X52321Y28226D01*
G01X52268Y28236D01*
G01X52204Y28239D01*
G37*
G36*
G01X52179Y28862D02*
G01X51849Y28862D01*
G01X51849Y28389D01*
G01X52179Y28389D01*
G01X52238Y28392D01*
G01X52287Y28401D01*
G01X52328Y28416D01*
G01X52359Y28437D01*
G01X52382Y28467D01*
G01X52399Y28504D01*
G01X52409Y28549D01*
G01X52412Y28602D01*
G01X52412Y28648D01*
G01X52409Y28703D01*
G01X52399Y28748D01*
G01X52382Y28785D01*
G01X52359Y28813D01*
G01X52328Y28835D01*
G01X52287Y28849D01*
G01X52238Y28858D01*
G01X52179Y28862D01*
G37*

%LPD*%
G36*
G01X47180Y29014D02*
G01X46753Y29014D01*
G01X46753Y27559D01*
G01X46923Y27559D01*
G01X46923Y28074D01*
G01X47177Y28074D01*
G01X47351Y28099D01*
G01X47475Y28171D01*
G01X47551Y28291D01*
G01X47576Y28458D01*
G01X47576Y28633D01*
G01X47551Y28798D01*
G01X47475Y28917D01*
G01X47352Y28990D01*
G01X47180Y29014D01*
G37*

%LPC*%
G36*
G01X47172Y28862D02*
G01X46923Y28862D01*
G01X46923Y28221D01*
G01X47172Y28221D01*
G01X47229Y28225D01*
G01X47278Y28235D01*
G01X47318Y28253D01*
G01X47350Y28277D01*
G01X47375Y28310D01*
G01X47392Y28351D01*
G01X47403Y28401D01*
G01X47406Y28458D01*
G01X47406Y28630D01*
G01X47403Y28687D01*
G01X47392Y28735D01*
G01X47375Y28775D01*
G01X47350Y28806D01*
G01X47318Y28830D01*
G01X47278Y28847D01*
G01X47229Y28858D01*
G01X47172Y28862D01*
G37*

%LPD*%
G36*
G01X45806Y29014D02*
G01X45636Y29014D01*
G01X45636Y27559D01*
G01X45806Y27559D01*
G01X45806Y28260D01*
G01X45864Y28260D01*
G01X46301Y27559D01*
G01X46504Y27559D01*
G01X45996Y28343D01*
G01X46507Y29014D01*
G01X46314Y29014D01*
G01X45859Y28412D01*
G01X45806Y28412D01*
G01X45806Y29014D01*
G37*

%LPD*%
G36*
G01X56357Y29014D02*
G01X55516Y29014D01*
G01X55516Y28290D01*
G01X55994Y28290D01*
G01X56056Y28286D01*
G01X56110Y28275D01*
G01X56153Y28255D01*
G01X56187Y28229D01*
G01X56212Y28194D01*
G01X56231Y28150D01*
G01X56242Y28097D01*
G01X56245Y28036D01*
G01X56245Y27945D01*
G01X56241Y27884D01*
G01X56228Y27832D01*
G01X56207Y27789D01*
G01X56177Y27754D01*
G01X56137Y27729D01*
G01X56086Y27710D01*
G01X56024Y27699D01*
G01X55951Y27696D01*
G01X55804Y27710D01*
G01X55714Y27752D01*
G01X55687Y27786D01*
G01X55666Y27835D01*
G01X55650Y27897D01*
G01X55641Y27973D01*
G01X55471Y27955D01*
G01X55506Y27760D01*
G01X55592Y27632D01*
G01X55655Y27592D01*
G01X55736Y27564D01*
G01X55833Y27546D01*
G01X55948Y27541D01*
G01X56056Y27547D01*
G01X56151Y27566D01*
G01X56231Y27598D01*
G01X56296Y27642D01*
G01X56385Y27764D01*
G01X56415Y27932D01*
G01X56415Y28049D01*
G01X56390Y28227D01*
G01X56311Y28354D01*
G01X56183Y28428D01*
G01X56007Y28453D01*
G01X55686Y28453D01*
G01X55686Y28859D01*
G01X56357Y28859D01*
G01X56357Y29014D01*
G37*

%LPD*%
G36*
G01X55087Y29014D02*
G01X54246Y29014D01*
G01X54246Y28290D01*
G01X54724Y28290D01*
G01X54786Y28286D01*
G01X54840Y28275D01*
G01X54883Y28255D01*
G01X54917Y28229D01*
G01X54942Y28194D01*
G01X54961Y28150D01*
G01X54972Y28097D01*
G01X54975Y28036D01*
G01X54975Y27945D01*
G01X54971Y27884D01*
G01X54958Y27832D01*
G01X54937Y27789D01*
G01X54907Y27754D01*
G01X54867Y27729D01*
G01X54816Y27710D01*
G01X54754Y27699D01*
G01X54681Y27696D01*
G01X54535Y27710D01*
G01X54444Y27752D01*
G01X54417Y27786D01*
G01X54396Y27835D01*
G01X54381Y27897D01*
G01X54373Y27973D01*
G01X54203Y27955D01*
G01X54238Y27760D01*
G01X54322Y27632D01*
G01X54386Y27592D01*
G01X54467Y27564D01*
G01X54565Y27546D01*
G01X54681Y27541D01*
G01X54788Y27547D01*
G01X54882Y27566D01*
G01X54962Y27598D01*
G01X55029Y27642D01*
G01X55118Y27764D01*
G01X55148Y27932D01*
G01X55148Y28049D01*
G01X55122Y28227D01*
G01X55044Y28354D01*
G01X54914Y28428D01*
G01X54739Y28453D01*
G01X54419Y28453D01*
G01X54419Y28859D01*
G01X55087Y28859D01*
G01X55087Y29014D01*
G37*

%LPD*%
G36*
G01X50986Y29022D02*
G01X50876Y29032D01*
G01X50766Y29022D01*
G01X50670Y28991D01*
G01X50588Y28940D01*
G01X50520Y28869D01*
G01X50466Y28779D01*
G01X50427Y28669D01*
G01X50403Y28541D01*
G01X50396Y28394D01*
G01X50396Y28171D01*
G01X50403Y28025D01*
G01X50426Y27898D01*
G01X50464Y27790D01*
G01X50518Y27701D01*
G01X50586Y27631D01*
G01X50668Y27581D01*
G01X50765Y27551D01*
G01X50876Y27541D01*
G01X50986Y27551D01*
G01X51083Y27581D01*
G01X51164Y27631D01*
G01X51231Y27701D01*
G01X51285Y27790D01*
G01X51323Y27898D01*
G01X51346Y28025D01*
G01X51353Y28171D01*
G01X51353Y28394D01*
G01X51346Y28541D01*
G01X51323Y28669D01*
G01X51285Y28779D01*
G01X51231Y28869D01*
G01X51164Y28940D01*
G01X51083Y28991D01*
G01X50986Y29022D01*
G37*

%LPC*%
G36*
G01X51014Y28848D02*
G01X50876Y28877D01*
G01X50735Y28847D01*
G01X50639Y28760D01*
G01X50608Y28692D01*
G01X50586Y28606D01*
G01X50573Y28502D01*
G01X50568Y28379D01*
G01X50568Y28186D01*
G01X50573Y28065D01*
G01X50586Y27962D01*
G01X50608Y27877D01*
G01X50639Y27810D01*
G01X50735Y27724D01*
G01X50876Y27696D01*
G01X51014Y27724D01*
G01X51109Y27810D01*
G01X51141Y27877D01*
G01X51165Y27962D01*
G01X51178Y28065D01*
G01X51183Y28186D01*
G01X51183Y28379D01*
G01X51178Y28502D01*
G01X51165Y28606D01*
G01X51141Y28692D01*
G01X51109Y28760D01*
G01X51014Y28848D01*
G37*

%LPD*%
G36*
G01X50899Y28423D02*
G01X50876Y28425D01*
G01X50852Y28423D01*
G01X50830Y28418D01*
G01X50811Y28410D01*
G01X50794Y28399D01*
G01X50782Y28384D01*
G01X50774Y28364D01*
G01X50768Y28338D01*
G01X50766Y28308D01*
G01X50766Y28262D01*
G01X50768Y28232D01*
G01X50774Y28206D01*
G01X50782Y28186D01*
G01X50794Y28171D01*
G01X50811Y28159D01*
G01X50830Y28151D01*
G01X50852Y28147D01*
G01X50876Y28145D01*
G01X50898Y28147D01*
G01X50918Y28151D01*
G01X50936Y28159D01*
G01X50952Y28171D01*
G01X50965Y28186D01*
G01X50975Y28206D01*
G01X50980Y28232D01*
G01X50982Y28262D01*
G01X50982Y28308D01*
G01X50980Y28338D01*
G01X50975Y28364D01*
G01X50965Y28384D01*
G01X50952Y28399D01*
G01X50937Y28410D01*
G01X50919Y28418D01*
G01X50899Y28423D01*
G37*

%LPD*%
G36*
G01X49798Y29011D02*
G01X49606Y29032D01*
G01X49413Y29011D01*
G01X49278Y28948D01*
G01X49198Y28839D01*
G01X49171Y28684D01*
G01X49171Y28625D01*
G01X49175Y28564D01*
G01X49185Y28512D01*
G01X49201Y28467D01*
G01X49225Y28430D01*
G01X49254Y28399D01*
G01X49290Y28376D01*
G01X49332Y28360D01*
G01X49380Y28351D01*
G01X49380Y28298D01*
G01X49325Y28287D01*
G01X49277Y28268D01*
G01X49236Y28241D01*
G01X49202Y28206D01*
G01X49175Y28161D01*
G01X49156Y28107D01*
G01X49145Y28044D01*
G01X49141Y27973D01*
G01X49141Y27932D01*
G01X49169Y27759D01*
G01X49253Y27637D01*
G01X49318Y27595D01*
G01X49398Y27565D01*
G01X49494Y27547D01*
G01X49606Y27541D01*
G01X49717Y27547D01*
G01X49813Y27565D01*
G01X49892Y27595D01*
G01X49956Y27637D01*
G01X50042Y27759D01*
G01X50071Y27932D01*
G01X50071Y27973D01*
G01X50067Y28044D01*
G01X50055Y28107D01*
G01X50036Y28161D01*
G01X50010Y28206D01*
G01X49976Y28241D01*
G01X49934Y28268D01*
G01X49885Y28287D01*
G01X49829Y28298D01*
G01X49829Y28351D01*
G01X49878Y28360D01*
G01X49921Y28376D01*
G01X49957Y28399D01*
G01X49987Y28430D01*
G01X50010Y28467D01*
G01X50027Y28512D01*
G01X50036Y28564D01*
G01X50040Y28625D01*
G01X50040Y28684D01*
G01X50014Y28839D01*
G01X49933Y28948D01*
G01X49798Y29011D01*
G37*

%LPC*%
G36*
G01X49681Y28243D02*
G01X49606Y28247D01*
G01X49530Y28243D01*
G01X49466Y28232D01*
G01X49415Y28212D01*
G01X49377Y28186D01*
G01X49348Y28151D01*
G01X49328Y28106D01*
G01X49315Y28050D01*
G01X49311Y27983D01*
G01X49311Y27950D01*
G01X49315Y27883D01*
G01X49328Y27826D01*
G01X49348Y27781D01*
G01X49377Y27746D01*
G01X49415Y27721D01*
G01X49466Y27703D01*
G01X49530Y27692D01*
G01X49606Y27688D01*
G01X49681Y27692D01*
G01X49744Y27703D01*
G01X49795Y27721D01*
G01X49834Y27746D01*
G01X49863Y27781D01*
G01X49884Y27827D01*
G01X49896Y27883D01*
G01X49900Y27950D01*
G01X49900Y27983D01*
G01X49896Y28050D01*
G01X49884Y28106D01*
G01X49863Y28151D01*
G01X49834Y28186D01*
G01X49795Y28212D01*
G01X49744Y28232D01*
G01X49681Y28243D01*
G37*
G36*
G01X49674Y28881D02*
G01X49606Y28884D01*
G01X49539Y28881D01*
G01X49482Y28872D01*
G01X49436Y28857D01*
G01X49400Y28836D01*
G01X49375Y28808D01*
G01X49356Y28770D01*
G01X49345Y28724D01*
G01X49342Y28668D01*
G01X49342Y28618D01*
G01X49345Y28561D01*
G01X49356Y28514D01*
G01X49375Y28476D01*
G01X49400Y28448D01*
G01X49436Y28426D01*
G01X49482Y28411D01*
G01X49539Y28402D01*
G01X49606Y28399D01*
G01X49674Y28402D01*
G01X49731Y28411D01*
G01X49777Y28426D01*
G01X49811Y28448D01*
G01X49837Y28476D01*
G01X49855Y28514D01*
G01X49866Y28561D01*
G01X49870Y28618D01*
G01X49870Y28668D01*
G01X49866Y28724D01*
G01X49855Y28770D01*
G01X49837Y28808D01*
G01X49811Y28836D01*
G01X49777Y28857D01*
G01X49731Y28872D01*
G01X49674Y28881D01*
G37*

%LPD*%
G36*
G01X48742Y29014D02*
G01X47901Y29014D01*
G01X47901Y28290D01*
G01X48379Y28290D01*
G01X48441Y28286D01*
G01X48495Y28275D01*
G01X48538Y28255D01*
G01X48572Y28229D01*
G01X48597Y28194D01*
G01X48616Y28150D01*
G01X48627Y28097D01*
G01X48630Y28036D01*
G01X48630Y27945D01*
G01X48626Y27884D01*
G01X48613Y27832D01*
G01X48592Y27789D01*
G01X48562Y27754D01*
G01X48522Y27729D01*
G01X48471Y27710D01*
G01X48409Y27699D01*
G01X48336Y27696D01*
G01X48190Y27710D01*
G01X48099Y27752D01*
G01X48072Y27786D01*
G01X48051Y27835D01*
G01X48036Y27897D01*
G01X48028Y27973D01*
G01X47856Y27955D01*
G01X47893Y27760D01*
G01X47978Y27632D01*
G01X48041Y27592D01*
G01X48122Y27564D01*
G01X48220Y27546D01*
G01X48336Y27541D01*
G01X48443Y27547D01*
G01X48537Y27566D01*
G01X48617Y27598D01*
G01X48684Y27642D01*
G01X48773Y27764D01*
G01X48803Y27932D01*
G01X48803Y28049D01*
G01X48777Y28227D01*
G01X48696Y28354D01*
G01X48568Y28428D01*
G01X48392Y28453D01*
G01X48072Y28453D01*
G01X48072Y28859D01*
G01X48742Y28859D01*
G01X48742Y29014D01*
G37*

%LPD*%

%LPD*%
G36*
G01X83497Y29268D02*
G01X83258Y29268D01*
G01X82702Y28351D01*
G01X82702Y28196D01*
G01X83324Y28196D01*
G01X83324Y27813D01*
G01X83497Y27813D01*
G01X83497Y28196D01*
G01X83723Y28196D01*
G01X83723Y28351D01*
G01X83497Y28351D01*
G01X83497Y29268D01*
G37*

%LPC*%
G36*
G01X83324Y28351D02*
G01X83324Y29075D01*
G01X82882Y28351D01*
G01X83324Y28351D01*
G37*

%LPD*%
G36*
G01X81876Y29268D02*
G01X81450Y29268D01*
G01X81450Y27813D01*
G01X81874Y27813D01*
G01X81987Y27821D01*
G01X82086Y27846D01*
G01X82172Y27888D01*
G01X82245Y27947D01*
G01X82304Y28019D01*
G01X82346Y28103D01*
G01X82371Y28198D01*
G01X82379Y28305D01*
G01X82379Y28768D01*
G01X82371Y28875D01*
G01X82346Y28971D01*
G01X82304Y29057D01*
G01X82245Y29131D01*
G01X82172Y29191D01*
G01X82087Y29234D01*
G01X81988Y29259D01*
G01X81876Y29268D01*
G37*

%LPC*%
G36*
G01X81871Y29116D02*
G01X81620Y29116D01*
G01X81620Y27962D01*
G01X81871Y27962D01*
G01X82017Y27985D01*
G01X82123Y28054D01*
G01X82188Y28163D01*
G01X82209Y28308D01*
G01X82209Y28765D01*
G01X82188Y28912D01*
G01X82123Y29022D01*
G01X82017Y29092D01*
G01X81871Y29116D01*
G37*

%LPD*%

%LPD*%
G36*
G01X25306Y53398D02*
G01X25138Y53398D01*
G01X25094Y53250D01*
G01X25013Y53136D01*
G01X24904Y53060D01*
G01X24772Y53027D01*
G01X24785Y52859D01*
G01X24839Y52867D01*
G01X24890Y52882D01*
G01X24938Y52904D01*
G01X24983Y52933D01*
G01X25024Y52970D01*
G01X25058Y53012D01*
G01X25085Y53059D01*
G01X25105Y53111D01*
G01X25135Y53111D01*
G01X25135Y52092D01*
G01X24800Y52092D01*
G01X24800Y51943D01*
G01X25610Y51943D01*
G01X25610Y52092D01*
G01X25306Y52092D01*
G01X25306Y53398D01*
G37*

%LPD*%
G36*
G01X23957Y53398D02*
G01X23411Y53398D01*
G01X23411Y51943D01*
G01X23581Y51943D01*
G01X23581Y52511D01*
G01X23850Y52511D01*
G01X24157Y51943D01*
G01X24356Y51943D01*
G01X24043Y52517D01*
G01X24170Y52560D01*
G01X24262Y52638D01*
G01X24319Y52753D01*
G01X24338Y52905D01*
G01X24338Y53014D01*
G01X24313Y53182D01*
G01X24241Y53301D01*
G01X24122Y53374D01*
G01X23957Y53398D01*
G37*

%LPC*%
G36*
G01X23947Y53246D02*
G01X23581Y53246D01*
G01X23581Y52661D01*
G01X23947Y52661D01*
G01X24000Y52665D01*
G01X24046Y52676D01*
G01X24084Y52694D01*
G01X24114Y52720D01*
G01X24137Y52753D01*
G01X24152Y52795D01*
G01X24162Y52846D01*
G01X24165Y52905D01*
G01X24165Y53017D01*
G01X24162Y53072D01*
G01X24152Y53120D01*
G01X24137Y53159D01*
G01X24114Y53190D01*
G01X24084Y53214D01*
G01X24046Y53231D01*
G01X24000Y53242D01*
G01X23947Y53246D01*
G37*

%LPD*%

%LPD*%
G36*
G01X12375Y84511D02*
G01X12194Y84531D01*
G01X12085Y84523D01*
G01X11991Y84498D01*
G01X11910Y84458D01*
G01X11844Y84401D01*
G01X11791Y84330D01*
G01X11754Y84244D01*
G01X11732Y84142D01*
G01X11724Y84025D01*
G01X11724Y83560D01*
G01X11732Y83440D01*
G01X11754Y83335D01*
G01X11791Y83245D01*
G01X11844Y83172D01*
G01X11910Y83114D01*
G01X11990Y83073D01*
G01X12083Y83048D01*
G01X12189Y83040D01*
G01X12295Y83047D01*
G01X12388Y83069D01*
G01X12468Y83105D01*
G01X12534Y83157D01*
G01X12588Y83221D01*
G01X12626Y83298D01*
G01X12649Y83389D01*
G01X12656Y83494D01*
G01X12656Y83535D01*
G01X12629Y83715D01*
G01X12547Y83850D01*
G01X12415Y83936D01*
G01X12230Y83964D01*
G01X12175Y83962D01*
G01X12125Y83955D01*
G01X12081Y83943D01*
G01X12042Y83926D01*
G01X12007Y83905D01*
G01X11975Y83881D01*
G01X11947Y83855D01*
G01X11922Y83825D01*
G01X11897Y83825D01*
G01X11897Y84025D01*
G01X11914Y84190D01*
G01X11963Y84297D01*
G01X12052Y84356D01*
G01X12189Y84376D01*
G01X12249Y84373D01*
G01X12301Y84364D01*
G01X12343Y84350D01*
G01X12377Y84330D01*
G01X12403Y84301D01*
G01X12425Y84263D01*
G01X12443Y84216D01*
G01X12458Y84160D01*
G01X12641Y84201D01*
G01X12593Y84351D01*
G01X12506Y84452D01*
G01X12375Y84511D01*
G37*

%LPC*%
G36*
G01X12258Y83802D02*
G01X12189Y83807D01*
G01X12120Y83802D01*
G01X12060Y83789D01*
G01X12010Y83765D01*
G01X11968Y83733D01*
G01X11937Y83691D01*
G01X11915Y83641D01*
G01X11901Y83581D01*
G01X11897Y83512D01*
G01X11897Y83489D01*
G01X11901Y83420D01*
G01X11915Y83360D01*
G01X11937Y83310D01*
G01X11968Y83268D01*
G01X12010Y83236D01*
G01X12060Y83213D01*
G01X12120Y83199D01*
G01X12189Y83195D01*
G01X12258Y83199D01*
G01X12318Y83213D01*
G01X12368Y83236D01*
G01X12410Y83268D01*
G01X12442Y83310D01*
G01X12465Y83360D01*
G01X12479Y83420D01*
G01X12484Y83489D01*
G01X12484Y83512D01*
G01X12479Y83581D01*
G01X12465Y83641D01*
G01X12442Y83691D01*
G01X12410Y83733D01*
G01X12368Y83765D01*
G01X12318Y83789D01*
G01X12258Y83802D01*
G37*

%LPD*%
G36*
G01X11046Y84523D02*
G01X10942Y84531D01*
G01X10830Y84523D01*
G01X10732Y84499D01*
G01X10648Y84459D01*
G01X10579Y84404D01*
G01X10525Y84333D01*
G01X10487Y84246D01*
G01X10464Y84145D01*
G01X10457Y84028D01*
G01X10457Y83535D01*
G01X10464Y83420D01*
G01X10487Y83320D01*
G01X10525Y83235D01*
G01X10579Y83164D01*
G01X10647Y83110D01*
G01X10730Y83071D01*
G01X10827Y83047D01*
G01X10939Y83040D01*
G01X11046Y83047D01*
G01X11140Y83070D01*
G01X11221Y83108D01*
G01X11290Y83162D01*
G01X11344Y83230D01*
G01X11383Y83313D01*
G01X11407Y83410D01*
G01X11417Y83522D01*
G01X11249Y83540D01*
G01X11224Y83379D01*
G01X11168Y83271D01*
G01X11075Y83210D01*
G01X10939Y83190D01*
G01X10795Y83210D01*
G01X10698Y83271D01*
G01X10645Y83376D01*
G01X10627Y83535D01*
G01X10627Y84028D01*
G01X10645Y84189D01*
G01X10698Y84297D01*
G01X10795Y84358D01*
G01X10939Y84378D01*
G01X11071Y84358D01*
G01X11163Y84300D01*
G01X11221Y84190D01*
G01X11249Y84023D01*
G01X11417Y84040D01*
G01X11405Y84155D01*
G01X11379Y84254D01*
G01X11339Y84338D01*
G01X11285Y84406D01*
G01X11218Y84461D01*
G01X11138Y84500D01*
G01X11046Y84523D01*
G37*

%LPD*%

%LPD*%
G36*
G01X25168Y85656D02*
G01X24328Y85656D01*
G01X24328Y84932D01*
G01X24805Y84932D01*
G01X24868Y84928D01*
G01X24921Y84917D01*
G01X24964Y84897D01*
G01X24998Y84871D01*
G01X25024Y84836D01*
G01X25042Y84792D01*
G01X25053Y84739D01*
G01X25057Y84678D01*
G01X25057Y84587D01*
G01X25053Y84526D01*
G01X25039Y84474D01*
G01X25018Y84431D01*
G01X24988Y84396D01*
G01X24948Y84371D01*
G01X24897Y84352D01*
G01X24835Y84341D01*
G01X24762Y84338D01*
G01X24617Y84352D01*
G01X24526Y84394D01*
G01X24498Y84428D01*
G01X24477Y84477D01*
G01X24463Y84539D01*
G01X24455Y84615D01*
G01X24282Y84597D01*
G01X24319Y84402D01*
G01X24404Y84274D01*
G01X24467Y84234D01*
G01X24548Y84206D01*
G01X24646Y84188D01*
G01X24762Y84183D01*
G01X24870Y84189D01*
G01X24963Y84208D01*
G01X25043Y84240D01*
G01X25110Y84284D01*
G01X25199Y84406D01*
G01X25229Y84574D01*
G01X25229Y84691D01*
G01X25203Y84869D01*
G01X25125Y84996D01*
G01X24996Y85070D01*
G01X24820Y85095D01*
G01X24500Y85095D01*
G01X24500Y85501D01*
G01X25168Y85501D01*
G01X25168Y85656D01*
G37*

%LPD*%
G36*
G01X23619Y85666D02*
G01X23515Y85674D01*
G01X23403Y85666D01*
G01X23305Y85642D01*
G01X23221Y85602D01*
G01X23152Y85547D01*
G01X23098Y85476D01*
G01X23060Y85389D01*
G01X23037Y85288D01*
G01X23030Y85171D01*
G01X23030Y84678D01*
G01X23037Y84563D01*
G01X23060Y84463D01*
G01X23098Y84378D01*
G01X23152Y84307D01*
G01X23220Y84253D01*
G01X23303Y84214D01*
G01X23400Y84190D01*
G01X23512Y84183D01*
G01X23619Y84190D01*
G01X23713Y84213D01*
G01X23794Y84251D01*
G01X23863Y84305D01*
G01X23917Y84373D01*
G01X23956Y84456D01*
G01X23980Y84553D01*
G01X23990Y84665D01*
G01X23822Y84683D01*
G01X23797Y84522D01*
G01X23741Y84414D01*
G01X23648Y84353D01*
G01X23512Y84333D01*
G01X23368Y84353D01*
G01X23271Y84414D01*
G01X23218Y84519D01*
G01X23200Y84678D01*
G01X23200Y85171D01*
G01X23218Y85332D01*
G01X23271Y85440D01*
G01X23368Y85501D01*
G01X23512Y85521D01*
G01X23644Y85501D01*
G01X23736Y85443D01*
G01X23794Y85333D01*
G01X23822Y85166D01*
G01X23990Y85183D01*
G01X23978Y85298D01*
G01X23952Y85397D01*
G01X23912Y85481D01*
G01X23858Y85549D01*
G01X23791Y85604D01*
G01X23711Y85643D01*
G01X23619Y85666D01*
G37*

%LPD*%

%LPD*%
G36*
G01X41079Y50350D02*
G01X40840Y50350D01*
G01X40284Y49433D01*
G01X40284Y49278D01*
G01X40906Y49278D01*
G01X40906Y48895D01*
G01X41079Y48895D01*
G01X41079Y49278D01*
G01X41305Y49278D01*
G01X41305Y49433D01*
G01X41079Y49433D01*
G01X41079Y50350D01*
G37*

%LPC*%
G36*
G01X40906Y49433D02*
G01X40906Y50157D01*
G01X40464Y49433D01*
G01X40906Y49433D01*
G37*

%LPD*%
G36*
G01X39621Y50360D02*
G01X39517Y50368D01*
G01X39405Y50360D01*
G01X39307Y50336D01*
G01X39223Y50296D01*
G01X39154Y50241D01*
G01X39100Y50170D01*
G01X39062Y50083D01*
G01X39039Y49982D01*
G01X39032Y49865D01*
G01X39032Y49372D01*
G01X39039Y49257D01*
G01X39062Y49157D01*
G01X39100Y49072D01*
G01X39154Y49001D01*
G01X39222Y48947D01*
G01X39305Y48908D01*
G01X39403Y48884D01*
G01X39514Y48877D01*
G01X39621Y48884D01*
G01X39715Y48907D01*
G01X39796Y48945D01*
G01X39865Y48999D01*
G01X39919Y49067D01*
G01X39958Y49150D01*
G01X39982Y49247D01*
G01X39992Y49359D01*
G01X39824Y49377D01*
G01X39799Y49216D01*
G01X39743Y49108D01*
G01X39649Y49047D01*
G01X39514Y49027D01*
G01X39371Y49047D01*
G01X39273Y49108D01*
G01X39220Y49213D01*
G01X39202Y49372D01*
G01X39202Y49865D01*
G01X39220Y50026D01*
G01X39273Y50134D01*
G01X39371Y50195D01*
G01X39514Y50215D01*
G01X39646Y50195D01*
G01X39738Y50137D01*
G01X39796Y50027D01*
G01X39824Y49860D01*
G01X39992Y49877D01*
G01X39980Y49992D01*
G01X39954Y50091D01*
G01X39914Y50175D01*
G01X39860Y50243D01*
G01X39793Y50298D01*
G01X39713Y50337D01*
G01X39621Y50360D01*
G37*

%LPD*%

%LPD*%
G36*
G01X12369Y46408D02*
G01X12176Y46431D01*
G01X11988Y46408D01*
G01X11856Y46339D01*
G01X11775Y46220D01*
G01X11742Y46047D01*
G01X11910Y46029D01*
G01X11919Y46092D01*
G01X11933Y46146D01*
G01X11954Y46190D01*
G01X11981Y46225D01*
G01X12015Y46250D01*
G01X12059Y46269D01*
G01X12113Y46280D01*
G01X12176Y46283D01*
G01X12243Y46280D01*
G01X12300Y46271D01*
G01X12348Y46256D01*
G01X12387Y46235D01*
G01X12416Y46207D01*
G01X12437Y46169D01*
G01X12449Y46123D01*
G01X12453Y46067D01*
G01X12453Y46009D01*
G01X12450Y45953D01*
G01X12438Y45908D01*
G01X12420Y45873D01*
G01X12395Y45849D01*
G01X12360Y45831D01*
G01X12314Y45819D01*
G01X12257Y45811D01*
G01X12189Y45808D01*
G01X12019Y45808D01*
G01X12019Y45656D01*
G01X12189Y45656D01*
G01X12266Y45652D01*
G01X12331Y45642D01*
G01X12382Y45625D01*
G01X12420Y45600D01*
G01X12448Y45566D01*
G01X12468Y45521D01*
G01X12480Y45466D01*
G01X12484Y45399D01*
G01X12484Y45351D01*
G01X12480Y45283D01*
G01X12467Y45226D01*
G01X12447Y45180D01*
G01X12418Y45145D01*
G01X12323Y45102D01*
G01X12176Y45087D01*
G01X12102Y45091D01*
G01X12040Y45101D01*
G01X11991Y45119D01*
G01X11955Y45143D01*
G01X11929Y45178D01*
G01X11908Y45227D01*
G01X11892Y45291D01*
G01X11882Y45369D01*
G01X11709Y45351D01*
G01X11746Y45161D01*
G01X11831Y45034D01*
G01X11972Y44963D01*
G01X12176Y44940D01*
G01X12292Y44946D01*
G01X12390Y44965D01*
G01X12473Y44997D01*
G01X12539Y45041D01*
G01X12627Y45168D01*
G01X12656Y45351D01*
G01X12656Y45402D01*
G01X12652Y45458D01*
G01X12639Y45511D01*
G01X12618Y45560D01*
G01X12588Y45608D01*
G01X12550Y45647D01*
G01X12503Y45677D01*
G01X12449Y45698D01*
G01X12387Y45709D01*
G01X12387Y45760D01*
G01X12439Y45767D01*
G01X12485Y45781D01*
G01X12525Y45803D01*
G01X12560Y45831D01*
G01X12589Y45866D01*
G01X12610Y45906D01*
G01X12622Y45952D01*
G01X12626Y46004D01*
G01X12626Y46062D01*
G01X12597Y46228D01*
G01X12509Y46342D01*
G01X12369Y46408D01*
G37*

%LPD*%
G36*
G01X11046Y46423D02*
G01X10942Y46431D01*
G01X10830Y46423D01*
G01X10732Y46399D01*
G01X10648Y46359D01*
G01X10579Y46304D01*
G01X10525Y46233D01*
G01X10487Y46146D01*
G01X10464Y46045D01*
G01X10457Y45928D01*
G01X10457Y45435D01*
G01X10464Y45320D01*
G01X10487Y45220D01*
G01X10525Y45135D01*
G01X10579Y45064D01*
G01X10647Y45010D01*
G01X10730Y44971D01*
G01X10827Y44947D01*
G01X10939Y44940D01*
G01X11046Y44947D01*
G01X11140Y44970D01*
G01X11221Y45008D01*
G01X11290Y45062D01*
G01X11344Y45130D01*
G01X11383Y45213D01*
G01X11407Y45310D01*
G01X11417Y45422D01*
G01X11249Y45440D01*
G01X11224Y45279D01*
G01X11168Y45171D01*
G01X11075Y45110D01*
G01X10939Y45090D01*
G01X10795Y45110D01*
G01X10698Y45171D01*
G01X10645Y45276D01*
G01X10627Y45435D01*
G01X10627Y45928D01*
G01X10645Y46089D01*
G01X10698Y46197D01*
G01X10795Y46258D01*
G01X10939Y46278D01*
G01X11071Y46258D01*
G01X11163Y46200D01*
G01X11221Y46090D01*
G01X11249Y45923D01*
G01X11417Y45940D01*
G01X11405Y46055D01*
G01X11379Y46154D01*
G01X11339Y46238D01*
G01X11285Y46306D01*
G01X11218Y46361D01*
G01X11138Y46400D01*
G01X11046Y46423D01*
G37*

%LPD*%

%LPD*%
G36*
G01X26230Y46280D02*
G01X26032Y46304D01*
G01X25838Y46276D01*
G01X25702Y46194D01*
G01X25656Y46133D01*
G01X25620Y46054D01*
G01X25597Y45959D01*
G01X25585Y45847D01*
G01X25753Y45829D01*
G01X25777Y45983D01*
G01X25826Y46080D01*
G01X25861Y46110D01*
G01X25907Y46131D01*
G01X25964Y46145D01*
G01X26032Y46149D01*
G01X26103Y46145D01*
G01X26162Y46135D01*
G01X26211Y46117D01*
G01X26248Y46093D01*
G01X26277Y46061D01*
G01X26298Y46020D01*
G01X26310Y45972D01*
G01X26314Y45915D01*
G01X26314Y45834D01*
G01X26311Y45791D01*
G01X26304Y45753D01*
G01X26293Y45720D01*
G01X26276Y45692D01*
G01X26254Y45669D01*
G01X26227Y45650D01*
G01X26193Y45635D01*
G01X26154Y45623D01*
G01X25854Y45549D01*
G01X25723Y45496D01*
G01X25636Y45412D01*
G01X25584Y45295D01*
G01X25567Y45140D01*
G01X25567Y44831D01*
G01X26499Y44831D01*
G01X26499Y44980D01*
G01X25740Y44980D01*
G01X25740Y45145D01*
G01X25742Y45198D01*
G01X25750Y45243D01*
G01X25763Y45282D01*
G01X25781Y45313D01*
G01X25803Y45339D01*
G01X25832Y45360D01*
G01X25866Y45377D01*
G01X25905Y45389D01*
G01X26202Y45460D01*
G01X26267Y45480D01*
G01X26323Y45506D01*
G01X26371Y45537D01*
G01X26410Y45575D01*
G01X26464Y45674D01*
G01X26482Y45811D01*
G01X26482Y45935D01*
G01X26454Y46093D01*
G01X26370Y46210D01*
G01X26230Y46280D01*
G37*

%LPD*%
G36*
G01X24889Y46296D02*
G01X24785Y46304D01*
G01X24673Y46296D01*
G01X24575Y46272D01*
G01X24491Y46232D01*
G01X24422Y46177D01*
G01X24368Y46106D01*
G01X24330Y46019D01*
G01X24307Y45918D01*
G01X24300Y45801D01*
G01X24300Y45308D01*
G01X24307Y45193D01*
G01X24330Y45093D01*
G01X24368Y45008D01*
G01X24422Y44937D01*
G01X24490Y44883D01*
G01X24573Y44844D01*
G01X24670Y44820D01*
G01X24782Y44813D01*
G01X24889Y44820D01*
G01X24983Y44843D01*
G01X25064Y44881D01*
G01X25133Y44935D01*
G01X25187Y45003D01*
G01X25226Y45086D01*
G01X25250Y45183D01*
G01X25260Y45295D01*
G01X25092Y45313D01*
G01X25067Y45152D01*
G01X25011Y45044D01*
G01X24918Y44983D01*
G01X24782Y44963D01*
G01X24638Y44983D01*
G01X24541Y45044D01*
G01X24488Y45149D01*
G01X24470Y45308D01*
G01X24470Y45801D01*
G01X24488Y45962D01*
G01X24541Y46070D01*
G01X24638Y46131D01*
G01X24782Y46151D01*
G01X24914Y46131D01*
G01X25006Y46073D01*
G01X25064Y45963D01*
G01X25092Y45796D01*
G01X25260Y45813D01*
G01X25248Y45928D01*
G01X25222Y46027D01*
G01X25182Y46111D01*
G01X25128Y46179D01*
G01X25061Y46234D01*
G01X24981Y46273D01*
G01X24889Y46296D01*
G37*

%LPD*%

%LPD*%
G36*
G01X78900Y16187D02*
G01X78732Y16187D01*
G01X78688Y16039D01*
G01X78607Y15925D01*
G01X78498Y15849D01*
G01X78366Y15816D01*
G01X78379Y15648D01*
G01X78433Y15656D01*
G01X78484Y15671D01*
G01X78532Y15693D01*
G01X78577Y15722D01*
G01X78618Y15759D01*
G01X78652Y15801D01*
G01X78679Y15848D01*
G01X78699Y15900D01*
G01X78729Y15900D01*
G01X78729Y14881D01*
G01X78394Y14881D01*
G01X78394Y14732D01*
G01X79204Y14732D01*
G01X79204Y14881D01*
G01X78900Y14881D01*
G01X78900Y16187D01*
G37*

%LPD*%
G36*
G01X77594Y16197D02*
G01X77490Y16205D01*
G01X77378Y16197D01*
G01X77280Y16173D01*
G01X77196Y16133D01*
G01X77127Y16078D01*
G01X77073Y16007D01*
G01X77035Y15920D01*
G01X77012Y15819D01*
G01X77005Y15702D01*
G01X77005Y15209D01*
G01X77012Y15094D01*
G01X77035Y14994D01*
G01X77073Y14909D01*
G01X77127Y14838D01*
G01X77195Y14784D01*
G01X77278Y14745D01*
G01X77375Y14721D01*
G01X77487Y14714D01*
G01X77594Y14721D01*
G01X77688Y14744D01*
G01X77769Y14782D01*
G01X77838Y14836D01*
G01X77892Y14904D01*
G01X77931Y14987D01*
G01X77955Y15084D01*
G01X77965Y15196D01*
G01X77797Y15214D01*
G01X77772Y15053D01*
G01X77716Y14945D01*
G01X77623Y14884D01*
G01X77487Y14864D01*
G01X77343Y14884D01*
G01X77246Y14945D01*
G01X77193Y15050D01*
G01X77175Y15209D01*
G01X77175Y15702D01*
G01X77193Y15863D01*
G01X77246Y15971D01*
G01X77343Y16032D01*
G01X77487Y16052D01*
G01X77619Y16032D01*
G01X77711Y15974D01*
G01X77769Y15864D01*
G01X77797Y15697D01*
G01X77965Y15714D01*
G01X77953Y15829D01*
G01X77927Y15928D01*
G01X77887Y16012D01*
G01X77833Y16080D01*
G01X77766Y16135D01*
G01X77686Y16174D01*
G01X77594Y16197D01*
G37*

%LPD*%

%LPD*%
G36*
G01X49690Y12250D02*
G01X49522Y12250D01*
G01X49478Y12102D01*
G01X49397Y11988D01*
G01X49288Y11912D01*
G01X49156Y11879D01*
G01X49169Y11711D01*
G01X49223Y11719D01*
G01X49274Y11734D01*
G01X49322Y11756D01*
G01X49367Y11785D01*
G01X49408Y11822D01*
G01X49442Y11864D01*
G01X49469Y11911D01*
G01X49489Y11963D01*
G01X49519Y11963D01*
G01X49519Y10944D01*
G01X49184Y10944D01*
G01X49184Y10795D01*
G01X49994Y10795D01*
G01X49994Y10944D01*
G01X49690Y10944D01*
G01X49690Y12250D01*
G37*

%LPD*%
G36*
G01X47983Y12250D02*
G01X47787Y12250D01*
G01X48171Y11539D01*
G01X47749Y10795D01*
G01X47945Y10795D01*
G01X48262Y11374D01*
G01X48574Y10795D01*
G01X48768Y10795D01*
G01X48369Y11534D01*
G01X48773Y12250D01*
G01X48577Y12250D01*
G01X48280Y11699D01*
G01X47983Y12250D01*
G37*

%LPD*%
G54D24*
G01X89535Y5687D02*
G01X89672Y5753D01*
G01X89875Y5958D01*
G01X89875Y4526D01*
G01X89672Y8498D02*
G01X90421Y8498D01*
G01X90012Y7952D01*
G01X90215Y7952D01*
G01X90352Y7884D01*
G01X90421Y7815D01*
G01X90490Y7612D01*
G01X90490Y7475D01*
G01X90421Y7272D01*
G01X90284Y7134D01*
G01X90081Y7066D01*
G01X89875Y7066D01*
G01X89672Y7134D01*
G01X89603Y7203D01*
G01X89535Y7340D01*
G01X91076Y8498D02*
G01X91826Y8498D01*
G01X91417Y7952D01*
G01X91620Y7952D01*
G01X91757Y7884D01*
G01X91826Y7815D01*
G01X91894Y7612D01*
G01X91894Y7475D01*
G01X91826Y7272D01*
G01X91688Y7134D01*
G01X91485Y7066D01*
G01X91279Y7066D01*
G01X91076Y7134D01*
G01X91008Y7203D01*
G01X90939Y7340D01*

%LPD*%
G36*
G01X88714Y91111D02*
G01X88516Y91135D01*
G01X88322Y91107D01*
G01X88186Y91025D01*
G01X88140Y90964D01*
G01X88104Y90885D01*
G01X88081Y90790D01*
G01X88069Y90678D01*
G01X88237Y90660D01*
G01X88261Y90814D01*
G01X88310Y90911D01*
G01X88345Y90941D01*
G01X88391Y90962D01*
G01X88448Y90976D01*
G01X88516Y90980D01*
G01X88587Y90976D01*
G01X88646Y90966D01*
G01X88695Y90948D01*
G01X88732Y90924D01*
G01X88761Y90892D01*
G01X88782Y90851D01*
G01X88794Y90803D01*
G01X88798Y90746D01*
G01X88798Y90665D01*
G01X88795Y90622D01*
G01X88788Y90584D01*
G01X88777Y90551D01*
G01X88760Y90523D01*
G01X88738Y90500D01*
G01X88711Y90481D01*
G01X88677Y90466D01*
G01X88638Y90454D01*
G01X88338Y90380D01*
G01X88208Y90327D01*
G01X88120Y90243D01*
G01X88068Y90126D01*
G01X88051Y89971D01*
G01X88051Y89662D01*
G01X88983Y89662D01*
G01X88983Y89811D01*
G01X88224Y89811D01*
G01X88224Y89976D01*
G01X88226Y90029D01*
G01X88234Y90074D01*
G01X88247Y90113D01*
G01X88265Y90144D01*
G01X88287Y90170D01*
G01X88316Y90191D01*
G01X88350Y90208D01*
G01X88389Y90220D01*
G01X88686Y90291D01*
G01X88751Y90311D01*
G01X88807Y90337D01*
G01X88855Y90368D01*
G01X88894Y90406D01*
G01X88948Y90505D01*
G01X88966Y90642D01*
G01X88966Y90766D01*
G01X88938Y90924D01*
G01X88854Y91041D01*
G01X88714Y91111D01*
G37*

%LPD*%
G36*
G01X86972Y91117D02*
G01X86776Y91117D01*
G01X87160Y90406D01*
G01X86738Y89662D01*
G01X86934Y89662D01*
G01X87251Y90241D01*
G01X87563Y89662D01*
G01X87757Y89662D01*
G01X87358Y90401D01*
G01X87762Y91117D01*
G01X87566Y91117D01*
G01X87269Y90566D01*
G01X86972Y91117D01*
G37*

%LPD*%

%LPD*%
G36*
G01X91015Y20124D02*
G01X90083Y20124D01*
G01X90083Y19951D01*
G01X90843Y19951D01*
G01X90780Y19836D01*
G01X90723Y19727D01*
G01X90672Y19624D01*
G01X90627Y19527D01*
G01X90588Y19435D01*
G01X90556Y19349D01*
G01X90526Y19261D01*
G01X90498Y19163D01*
G01X90469Y19055D01*
G01X90442Y18936D01*
G01X90414Y18807D01*
G01X90388Y18669D01*
G01X90573Y18669D01*
G01X90600Y18835D01*
G01X90632Y18991D01*
G01X90670Y19136D01*
G01X90713Y19270D01*
G01X90746Y19361D01*
G01X90786Y19461D01*
G01X90833Y19570D01*
G01X90887Y19688D01*
G01X90948Y19815D01*
G01X91015Y19951D01*
G01X91015Y20124D01*
G37*

%LPD*%
G36*
G01X89405Y20134D02*
G01X89301Y20142D01*
G01X89189Y20134D01*
G01X89091Y20110D01*
G01X89007Y20070D01*
G01X88938Y20015D01*
G01X88884Y19944D01*
G01X88846Y19857D01*
G01X88823Y19756D01*
G01X88816Y19639D01*
G01X88816Y19146D01*
G01X88823Y19031D01*
G01X88846Y18931D01*
G01X88884Y18846D01*
G01X88938Y18775D01*
G01X89006Y18721D01*
G01X89089Y18682D01*
G01X89186Y18658D01*
G01X89298Y18651D01*
G01X89405Y18658D01*
G01X89499Y18681D01*
G01X89580Y18719D01*
G01X89649Y18773D01*
G01X89703Y18841D01*
G01X89742Y18924D01*
G01X89766Y19021D01*
G01X89776Y19133D01*
G01X89608Y19151D01*
G01X89583Y18990D01*
G01X89527Y18882D01*
G01X89434Y18821D01*
G01X89298Y18801D01*
G01X89154Y18821D01*
G01X89057Y18882D01*
G01X89004Y18987D01*
G01X88986Y19146D01*
G01X88986Y19639D01*
G01X89004Y19800D01*
G01X89057Y19908D01*
G01X89154Y19969D01*
G01X89298Y19989D01*
G01X89430Y19969D01*
G01X89522Y19911D01*
G01X89580Y19801D01*
G01X89608Y19634D01*
G01X89776Y19651D01*
G01X89764Y19766D01*
G01X89738Y19865D01*
G01X89698Y19949D01*
G01X89644Y20017D01*
G01X89577Y20072D01*
G01X89497Y20111D01*
G01X89405Y20134D01*
G37*

%LPD*%

%LPD*%
G36*
G01X61194Y50217D02*
G01X60998Y50241D01*
G01X60804Y50213D01*
G01X60667Y50131D01*
G01X60621Y50070D01*
G01X60586Y49991D01*
G01X60563Y49896D01*
G01X60551Y49784D01*
G01X60718Y49766D01*
G01X60743Y49920D01*
G01X60792Y50017D01*
G01X60826Y50047D01*
G01X60873Y50068D01*
G01X60930Y50082D01*
G01X60998Y50086D01*
G01X61068Y50082D01*
G01X61128Y50072D01*
G01X61176Y50054D01*
G01X61214Y50030D01*
G01X61242Y49998D01*
G01X61263Y49957D01*
G01X61275Y49909D01*
G01X61280Y49852D01*
G01X61280Y49771D01*
G01X61277Y49728D01*
G01X61270Y49690D01*
G01X61258Y49657D01*
G01X61241Y49629D01*
G01X61220Y49606D01*
G01X61192Y49587D01*
G01X61159Y49572D01*
G01X61120Y49560D01*
G01X60820Y49486D01*
G01X60689Y49433D01*
G01X60601Y49349D01*
G01X60550Y49232D01*
G01X60533Y49077D01*
G01X60533Y48768D01*
G01X61465Y48768D01*
G01X61465Y48917D01*
G01X60703Y48917D01*
G01X60703Y49082D01*
G01X60706Y49135D01*
G01X60713Y49180D01*
G01X60726Y49219D01*
G01X60744Y49250D01*
G01X60767Y49276D01*
G01X60796Y49297D01*
G01X60830Y49314D01*
G01X60868Y49326D01*
G01X61168Y49397D01*
G01X61232Y49417D01*
G01X61289Y49443D01*
G01X61336Y49474D01*
G01X61376Y49512D01*
G01X61429Y49611D01*
G01X61447Y49748D01*
G01X61447Y49872D01*
G01X61419Y50030D01*
G01X61335Y50147D01*
G01X61194Y50217D01*
G37*

%LPD*%
G36*
G01X57658Y50223D02*
G01X56725Y50223D01*
G01X56725Y50050D01*
G01X57485Y50050D01*
G01X57422Y49935D01*
G01X57365Y49826D01*
G01X57314Y49723D01*
G01X57269Y49626D01*
G01X57230Y49534D01*
G01X57198Y49448D01*
G01X57168Y49360D01*
G01X57138Y49262D01*
G01X57110Y49154D01*
G01X57082Y49035D01*
G01X57056Y48906D01*
G01X57030Y48768D01*
G01X57216Y48768D01*
G01X57242Y48934D01*
G01X57274Y49090D01*
G01X57311Y49235D01*
G01X57353Y49369D01*
G01X57387Y49460D01*
G01X57427Y49560D01*
G01X57475Y49669D01*
G01X57529Y49787D01*
G01X57590Y49914D01*
G01X57658Y50050D01*
G01X57658Y50223D01*
G37*

%LPD*%
G36*
G01X56118Y50217D02*
G01X55920Y50241D01*
G01X55726Y50213D01*
G01X55590Y50131D01*
G01X55544Y50070D01*
G01X55509Y49991D01*
G01X55485Y49896D01*
G01X55473Y49784D01*
G01X55643Y49766D01*
G01X55668Y49920D01*
G01X55714Y50017D01*
G01X55750Y50047D01*
G01X55797Y50068D01*
G01X55855Y50082D01*
G01X55923Y50086D01*
G01X55992Y50082D01*
G01X56052Y50072D01*
G01X56100Y50054D01*
G01X56139Y50030D01*
G01X56167Y49998D01*
G01X56186Y49957D01*
G01X56198Y49909D01*
G01X56202Y49852D01*
G01X56202Y49771D01*
G01X56200Y49728D01*
G01X56192Y49690D01*
G01X56181Y49657D01*
G01X56164Y49629D01*
G01X56143Y49606D01*
G01X56116Y49587D01*
G01X56082Y49572D01*
G01X56042Y49560D01*
G01X55745Y49486D01*
G01X55612Y49433D01*
G01X55524Y49349D01*
G01X55475Y49232D01*
G01X55458Y49077D01*
G01X55458Y48768D01*
G01X56388Y48768D01*
G01X56388Y48917D01*
G01X55628Y48917D01*
G01X55628Y49082D01*
G01X55631Y49135D01*
G01X55638Y49180D01*
G01X55651Y49219D01*
G01X55669Y49250D01*
G01X55692Y49276D01*
G01X55720Y49297D01*
G01X55754Y49314D01*
G01X55793Y49326D01*
G01X56090Y49397D01*
G01X56156Y49417D01*
G01X56213Y49443D01*
G01X56262Y49474D01*
G01X56301Y49512D01*
G01X56354Y49611D01*
G01X56372Y49748D01*
G01X56372Y49872D01*
G01X56344Y50030D01*
G01X56258Y50147D01*
G01X56118Y50217D01*
G37*

%LPD*%
G36*
G01X54091Y50223D02*
G01X53921Y50223D01*
G01X54150Y48768D01*
G01X54350Y48768D01*
G01X54566Y49629D01*
G01X54785Y48768D01*
G01X54985Y48768D01*
G01X55214Y50223D01*
G01X55057Y50223D01*
G01X54876Y48976D01*
G01X54663Y49860D01*
G01X54480Y49860D01*
G01X54272Y48981D01*
G01X54091Y50223D01*
G37*

%LPD*%
G36*
G01X62380Y50231D02*
G01X62270Y50241D01*
G01X62159Y50231D01*
G01X62062Y50200D01*
G01X61980Y50149D01*
G01X61912Y50078D01*
G01X61859Y49988D01*
G01X61821Y49878D01*
G01X61798Y49750D01*
G01X61790Y49603D01*
G01X61790Y49380D01*
G01X61798Y49234D01*
G01X61821Y49107D01*
G01X61859Y48999D01*
G01X61912Y48910D01*
G01X61980Y48840D01*
G01X62062Y48790D01*
G01X62158Y48760D01*
G01X62268Y48750D01*
G01X62378Y48760D01*
G01X62475Y48790D01*
G01X62558Y48840D01*
G01X62626Y48910D01*
G01X62678Y48999D01*
G01X62715Y49107D01*
G01X62738Y49234D01*
G01X62745Y49380D01*
G01X62745Y49603D01*
G01X62738Y49750D01*
G01X62715Y49878D01*
G01X62678Y49988D01*
G01X62626Y50078D01*
G01X62558Y50149D01*
G01X62476Y50200D01*
G01X62380Y50231D01*
G37*

%LPC*%
G36*
G01X62407Y50057D02*
G01X62268Y50086D01*
G01X62128Y50056D01*
G01X62034Y49969D01*
G01X62002Y49901D01*
G01X61979Y49815D01*
G01X61965Y49711D01*
G01X61960Y49588D01*
G01X61960Y49395D01*
G01X61965Y49274D01*
G01X61979Y49171D01*
G01X62002Y49086D01*
G01X62034Y49019D01*
G01X62128Y48933D01*
G01X62268Y48905D01*
G01X62407Y48933D01*
G01X62501Y49019D01*
G01X62533Y49086D01*
G01X62557Y49171D01*
G01X62570Y49274D01*
G01X62575Y49395D01*
G01X62575Y49588D01*
G01X62570Y49711D01*
G01X62557Y49815D01*
G01X62533Y49901D01*
G01X62501Y49969D01*
G01X62407Y50057D01*
G37*

%LPD*%
G36*
G01X62290Y49632D02*
G01X62268Y49634D01*
G01X62245Y49632D01*
G01X62224Y49627D01*
G01X62205Y49619D01*
G01X62189Y49608D01*
G01X62176Y49593D01*
G01X62166Y49573D01*
G01X62160Y49547D01*
G01X62158Y49517D01*
G01X62158Y49471D01*
G01X62160Y49441D01*
G01X62166Y49415D01*
G01X62176Y49395D01*
G01X62189Y49380D01*
G01X62205Y49368D01*
G01X62224Y49360D01*
G01X62245Y49356D01*
G01X62268Y49354D01*
G01X62290Y49356D01*
G01X62311Y49360D01*
G01X62329Y49368D01*
G01X62344Y49380D01*
G01X62357Y49395D01*
G01X62367Y49415D01*
G01X62372Y49441D01*
G01X62374Y49471D01*
G01X62374Y49517D01*
G01X62373Y49547D01*
G01X62367Y49573D01*
G01X62359Y49593D01*
G01X62346Y49608D01*
G01X62330Y49619D01*
G01X62311Y49627D01*
G01X62290Y49632D01*
G37*

%LPD*%
G36*
G01X59841Y50231D02*
G01X59730Y50241D01*
G01X59620Y50231D01*
G01X59524Y50200D01*
G01X59443Y50149D01*
G01X59375Y50078D01*
G01X59320Y49988D01*
G01X59281Y49878D01*
G01X59258Y49750D01*
G01X59250Y49603D01*
G01X59250Y49380D01*
G01X59258Y49234D01*
G01X59281Y49107D01*
G01X59319Y48999D01*
G01X59372Y48910D01*
G01X59440Y48840D01*
G01X59522Y48790D01*
G01X59619Y48760D01*
G01X59730Y48750D01*
G01X59841Y48760D01*
G01X59937Y48790D01*
G01X60019Y48840D01*
G01X60086Y48910D01*
G01X60139Y48999D01*
G01X60177Y49107D01*
G01X60200Y49234D01*
G01X60208Y49380D01*
G01X60208Y49603D01*
G01X60200Y49750D01*
G01X60177Y49878D01*
G01X60139Y49988D01*
G01X60086Y50078D01*
G01X60019Y50149D01*
G01X59937Y50200D01*
G01X59841Y50231D01*
G37*

%LPC*%
G36*
G01X59869Y50057D02*
G01X59730Y50086D01*
G01X59590Y50056D01*
G01X59494Y49969D01*
G01X59463Y49901D01*
G01X59441Y49815D01*
G01X59427Y49711D01*
G01X59423Y49588D01*
G01X59423Y49395D01*
G01X59427Y49274D01*
G01X59441Y49171D01*
G01X59463Y49086D01*
G01X59494Y49019D01*
G01X59590Y48933D01*
G01X59730Y48905D01*
G01X59869Y48933D01*
G01X59964Y49019D01*
G01X59996Y49086D01*
G01X60019Y49171D01*
G01X60033Y49274D01*
G01X60037Y49395D01*
G01X60037Y49588D01*
G01X60033Y49711D01*
G01X60019Y49815D01*
G01X59996Y49901D01*
G01X59964Y49969D01*
G01X59869Y50057D01*
G37*

%LPD*%
G36*
G01X59753Y49632D02*
G01X59730Y49634D01*
G01X59706Y49632D01*
G01X59685Y49627D01*
G01X59667Y49619D01*
G01X59651Y49608D01*
G01X59638Y49593D01*
G01X59629Y49573D01*
G01X59623Y49547D01*
G01X59621Y49517D01*
G01X59621Y49471D01*
G01X59623Y49441D01*
G01X59629Y49415D01*
G01X59638Y49395D01*
G01X59651Y49380D01*
G01X59667Y49368D01*
G01X59685Y49360D01*
G01X59706Y49356D01*
G01X59730Y49354D01*
G01X59752Y49356D01*
G01X59772Y49360D01*
G01X59790Y49368D01*
G01X59806Y49380D01*
G01X59820Y49395D01*
G01X59829Y49415D01*
G01X59835Y49441D01*
G01X59837Y49471D01*
G01X59837Y49517D01*
G01X59835Y49547D01*
G01X59829Y49573D01*
G01X59820Y49593D01*
G01X59806Y49608D01*
G01X59791Y49619D01*
G01X59773Y49627D01*
G01X59753Y49632D01*
G37*

%LPD*%
G36*
G01X58585Y50233D02*
G01X58480Y50241D01*
G01X58368Y50233D01*
G01X58270Y50209D01*
G01X58187Y50169D01*
G01X58117Y50114D01*
G01X58064Y50043D01*
G01X58026Y49956D01*
G01X58003Y49855D01*
G01X57995Y49738D01*
G01X57995Y49245D01*
G01X58003Y49130D01*
G01X58026Y49030D01*
G01X58064Y48945D01*
G01X58117Y48874D01*
G01X58185Y48820D01*
G01X58269Y48781D01*
G01X58366Y48757D01*
G01X58478Y48750D01*
G01X58586Y48757D01*
G01X58680Y48780D01*
G01X58761Y48818D01*
G01X58828Y48872D01*
G01X58882Y48940D01*
G01X58921Y49023D01*
G01X58946Y49120D01*
G01X58955Y49232D01*
G01X58788Y49250D01*
G01X58762Y49089D01*
G01X58707Y48981D01*
G01X58614Y48920D01*
G01X58478Y48900D01*
G01X58335Y48920D01*
G01X58239Y48981D01*
G01X58184Y49086D01*
G01X58166Y49245D01*
G01X58166Y49738D01*
G01X58184Y49899D01*
G01X58239Y50007D01*
G01X58335Y50068D01*
G01X58478Y50088D01*
G01X58611Y50068D01*
G01X58704Y50010D01*
G01X58760Y49900D01*
G01X58788Y49733D01*
G01X58955Y49750D01*
G01X58943Y49865D01*
G01X58917Y49964D01*
G01X58877Y50048D01*
G01X58823Y50116D01*
G01X58756Y50171D01*
G01X58677Y50210D01*
G01X58585Y50233D01*
G37*

%LPD*%

%LPD*%
G36*
G01X82130Y50223D02*
G01X81704Y50223D01*
G01X81704Y48768D01*
G01X82128Y48768D01*
G01X82241Y48776D01*
G01X82340Y48801D01*
G01X82426Y48843D01*
G01X82499Y48902D01*
G01X82558Y48974D01*
G01X82600Y49058D01*
G01X82625Y49153D01*
G01X82633Y49260D01*
G01X82633Y49723D01*
G01X82625Y49830D01*
G01X82600Y49926D01*
G01X82558Y50012D01*
G01X82499Y50086D01*
G01X82426Y50146D01*
G01X82341Y50189D01*
G01X82242Y50214D01*
G01X82130Y50223D01*
G37*

%LPC*%
G36*
G01X82125Y50071D02*
G01X81874Y50071D01*
G01X81874Y48917D01*
G01X82125Y48917D01*
G01X82271Y48940D01*
G01X82377Y49009D01*
G01X82442Y49118D01*
G01X82463Y49263D01*
G01X82463Y49720D01*
G01X82442Y49867D01*
G01X82377Y49977D01*
G01X82271Y50047D01*
G01X82125Y50071D01*
G37*

%LPD*%
G36*
G01X83622Y50221D02*
G01X83441Y50241D01*
G01X83332Y50233D01*
G01X83238Y50208D01*
G01X83157Y50168D01*
G01X83091Y50111D01*
G01X83038Y50040D01*
G01X83001Y49954D01*
G01X82979Y49852D01*
G01X82971Y49735D01*
G01X82971Y49270D01*
G01X82979Y49150D01*
G01X83001Y49045D01*
G01X83038Y48955D01*
G01X83091Y48882D01*
G01X83157Y48824D01*
G01X83237Y48783D01*
G01X83330Y48758D01*
G01X83436Y48750D01*
G01X83542Y48757D01*
G01X83636Y48779D01*
G01X83715Y48815D01*
G01X83781Y48867D01*
G01X83835Y48931D01*
G01X83873Y49008D01*
G01X83896Y49099D01*
G01X83903Y49204D01*
G01X83903Y49245D01*
G01X83876Y49425D01*
G01X83794Y49560D01*
G01X83662Y49646D01*
G01X83477Y49674D01*
G01X83422Y49672D01*
G01X83372Y49665D01*
G01X83328Y49653D01*
G01X83289Y49636D01*
G01X83254Y49615D01*
G01X83222Y49591D01*
G01X83194Y49565D01*
G01X83169Y49535D01*
G01X83144Y49535D01*
G01X83144Y49735D01*
G01X83161Y49900D01*
G01X83210Y50007D01*
G01X83299Y50066D01*
G01X83436Y50086D01*
G01X83496Y50083D01*
G01X83548Y50074D01*
G01X83590Y50060D01*
G01X83624Y50040D01*
G01X83650Y50011D01*
G01X83672Y49973D01*
G01X83690Y49926D01*
G01X83705Y49870D01*
G01X83888Y49911D01*
G01X83840Y50061D01*
G01X83753Y50162D01*
G01X83622Y50221D01*
G37*

%LPC*%
G36*
G01X83505Y49512D02*
G01X83436Y49517D01*
G01X83367Y49512D01*
G01X83307Y49499D01*
G01X83257Y49475D01*
G01X83215Y49443D01*
G01X83184Y49401D01*
G01X83162Y49351D01*
G01X83148Y49291D01*
G01X83144Y49222D01*
G01X83144Y49199D01*
G01X83148Y49130D01*
G01X83162Y49070D01*
G01X83184Y49020D01*
G01X83215Y48978D01*
G01X83257Y48946D01*
G01X83307Y48923D01*
G01X83367Y48909D01*
G01X83436Y48905D01*
G01X83505Y48909D01*
G01X83565Y48923D01*
G01X83615Y48946D01*
G01X83657Y48978D01*
G01X83689Y49020D01*
G01X83712Y49070D01*
G01X83726Y49130D01*
G01X83731Y49199D01*
G01X83731Y49222D01*
G01X83726Y49291D01*
G01X83712Y49351D01*
G01X83689Y49401D01*
G01X83657Y49443D01*
G01X83615Y49475D01*
G01X83565Y49499D01*
G01X83505Y49512D01*
G37*

%LPD*%

%LPD*%
G36*
G01X35117Y74096D02*
G01X34922Y74117D01*
G01X34729Y74096D01*
G01X34594Y74033D01*
G01X34515Y73924D01*
G01X34488Y73769D01*
G01X34488Y73710D01*
G01X34491Y73649D01*
G01X34501Y73597D01*
G01X34518Y73552D01*
G01X34541Y73515D01*
G01X34572Y73484D01*
G01X34608Y73461D01*
G01X34651Y73445D01*
G01X34698Y73436D01*
G01X34698Y73383D01*
G01X34643Y73372D01*
G01X34594Y73353D01*
G01X34552Y73326D01*
G01X34518Y73291D01*
G01X34492Y73246D01*
G01X34472Y73192D01*
G01X34461Y73129D01*
G01X34457Y73058D01*
G01X34457Y73017D01*
G01X34486Y72844D01*
G01X34571Y72722D01*
G01X34636Y72680D01*
G01X34716Y72650D01*
G01X34811Y72632D01*
G01X34922Y72626D01*
G01X35034Y72632D01*
G01X35130Y72650D01*
G01X35210Y72680D01*
G01X35275Y72722D01*
G01X35361Y72844D01*
G01X35389Y73017D01*
G01X35389Y73058D01*
G01X35386Y73129D01*
G01X35374Y73192D01*
G01X35355Y73246D01*
G01X35328Y73291D01*
G01X35294Y73326D01*
G01X35253Y73353D01*
G01X35204Y73372D01*
G01X35148Y73383D01*
G01X35148Y73436D01*
G01X35196Y73445D01*
G01X35237Y73461D01*
G01X35273Y73484D01*
G01X35303Y73515D01*
G01X35327Y73552D01*
G01X35345Y73597D01*
G01X35355Y73649D01*
G01X35359Y73710D01*
G01X35359Y73769D01*
G01X35332Y73924D01*
G01X35252Y74033D01*
G01X35117Y74096D01*
G37*

%LPC*%
G36*
G01X35062Y73317D02*
G01X34922Y73332D01*
G01X34847Y73328D01*
G01X34784Y73317D01*
G01X34732Y73297D01*
G01X34693Y73271D01*
G01X34665Y73236D01*
G01X34646Y73191D01*
G01X34634Y73135D01*
G01X34630Y73068D01*
G01X34630Y73035D01*
G01X34634Y72968D01*
G01X34646Y72911D01*
G01X34665Y72866D01*
G01X34693Y72831D01*
G01X34732Y72806D01*
G01X34784Y72788D01*
G01X34847Y72777D01*
G01X34922Y72773D01*
G01X34998Y72777D01*
G01X35062Y72788D01*
G01X35114Y72806D01*
G01X35153Y72831D01*
G01X35181Y72866D01*
G01X35201Y72912D01*
G01X35213Y72968D01*
G01X35217Y73035D01*
G01X35217Y73068D01*
G01X35213Y73135D01*
G01X35201Y73191D01*
G01X35181Y73236D01*
G01X35153Y73271D01*
G01X35062Y73317D01*
G37*
G36*
G01X34990Y73966D02*
G01X34922Y73969D01*
G01X34855Y73966D01*
G01X34799Y73957D01*
G01X34753Y73942D01*
G01X34719Y73921D01*
G01X34693Y73893D01*
G01X34675Y73855D01*
G01X34664Y73809D01*
G01X34660Y73753D01*
G01X34660Y73703D01*
G01X34664Y73646D01*
G01X34675Y73599D01*
G01X34693Y73561D01*
G01X34719Y73533D01*
G01X34753Y73511D01*
G01X34799Y73496D01*
G01X34855Y73487D01*
G01X34922Y73484D01*
G01X34990Y73487D01*
G01X35047Y73496D01*
G01X35093Y73511D01*
G01X35128Y73533D01*
G01X35153Y73561D01*
G01X35171Y73599D01*
G01X35183Y73646D01*
G01X35186Y73703D01*
G01X35186Y73753D01*
G01X35183Y73809D01*
G01X35171Y73855D01*
G01X35153Y73893D01*
G01X35128Y73921D01*
G01X35093Y73942D01*
G01X35047Y73957D01*
G01X34990Y73966D01*
G37*

%LPD*%
G36*
G01X33779Y74109D02*
G01X33675Y74117D01*
G01X33563Y74109D01*
G01X33465Y74085D01*
G01X33381Y74045D01*
G01X33312Y73990D01*
G01X33258Y73919D01*
G01X33220Y73832D01*
G01X33197Y73731D01*
G01X33190Y73614D01*
G01X33190Y73121D01*
G01X33197Y73006D01*
G01X33220Y72906D01*
G01X33258Y72821D01*
G01X33312Y72750D01*
G01X33380Y72696D01*
G01X33463Y72657D01*
G01X33560Y72633D01*
G01X33672Y72626D01*
G01X33779Y72633D01*
G01X33873Y72656D01*
G01X33954Y72694D01*
G01X34023Y72748D01*
G01X34077Y72816D01*
G01X34116Y72899D01*
G01X34140Y72996D01*
G01X34150Y73108D01*
G01X33982Y73126D01*
G01X33957Y72965D01*
G01X33901Y72857D01*
G01X33808Y72796D01*
G01X33672Y72776D01*
G01X33528Y72796D01*
G01X33431Y72857D01*
G01X33378Y72962D01*
G01X33360Y73121D01*
G01X33360Y73614D01*
G01X33378Y73775D01*
G01X33431Y73883D01*
G01X33528Y73944D01*
G01X33672Y73964D01*
G01X33804Y73944D01*
G01X33896Y73886D01*
G01X33954Y73776D01*
G01X33982Y73609D01*
G01X34150Y73626D01*
G01X34138Y73741D01*
G01X34112Y73840D01*
G01X34072Y73924D01*
G01X34018Y73992D01*
G01X33951Y74047D01*
G01X33871Y74086D01*
G01X33779Y74109D01*
G37*

%LPD*%
G54D10*
G75*
G01X36830Y72390D02*
G02X36830Y69850I0J-1270D01*
G01*
G75*
G01X10429Y20481D02*
G02X12429Y20531I1000J25D01*
G01*
G75*
G01X24399Y20478D02*
G02X26399Y20528I1000J25D01*
G01*
G75*
G01X26400Y79850D02*
G02X24400Y79800I-1000J-25D01*
G01*
G75*
G01X12446Y78486D02*
G02X10414Y78486I-1016J0D01*
G01*
G75*
G01X36830Y29210D02*
G02X36830Y26670I0J-1270D01*
G01*
G75*
G01X46990Y51435D02*
G02X46990Y47625I0J-1905D01*
G01*
G75*
G01X92050Y14478D02*
G03X92050Y14478I-3150J0D01*
G01*

%LPD*%
G36*
G01X91117Y16710D02*
G01X91059Y16764D01*
G01X91059Y12192D01*
G01X91117Y12245D01*
G01X91229Y12357D01*
G01X91335Y12475D01*
G01X91386Y12536D01*
G01X91435Y12598D01*
G01X91482Y12662D01*
G01X91528Y12726D01*
G01X91572Y12792D01*
G01X91615Y12859D01*
G01X91656Y12927D01*
G01X91695Y12996D01*
G01X91732Y13066D01*
G01X91767Y13137D01*
G01X91801Y13209D01*
G01X91833Y13281D01*
G01X91863Y13355D01*
G01X91890Y13429D01*
G01X91916Y13504D01*
G01X91941Y13579D01*
G01X91963Y13655D01*
G01X91983Y13732D01*
G01X92001Y13809D01*
G01X92017Y13887D01*
G01X92032Y13965D01*
G01X92044Y14043D01*
G01X92054Y14122D01*
G01X92062Y14200D01*
G01X92068Y14279D01*
G01X92072Y14359D01*
G01X92074Y14438D01*
G01X92074Y14517D01*
G01X92072Y14596D01*
G01X92068Y14676D01*
G01X92062Y14755D01*
G01X92054Y14833D01*
G01X92044Y14912D01*
G01X92032Y14990D01*
G01X92017Y15068D01*
G01X92001Y15146D01*
G01X91983Y15223D01*
G01X91963Y15300D01*
G01X91941Y15376D01*
G01X91916Y15451D01*
G01X91890Y15526D01*
G01X91863Y15600D01*
G01X91833Y15674D01*
G01X91801Y15746D01*
G01X91767Y15818D01*
G01X91732Y15889D01*
G01X91695Y15959D01*
G01X91656Y16028D01*
G01X91615Y16096D01*
G01X91572Y16163D01*
G01X91528Y16229D01*
G01X91482Y16293D01*
G01X91435Y16357D01*
G01X91386Y16419D01*
G01X91335Y16480D01*
G01X91229Y16598D01*
G01X91117Y16710D01*
G37*
M00*
M02*
