G04 Layer: TopSolderMaskLayer*
G04 EasyEDA v6.4.7, 2020-09-22T21:54:33+03:00*
G04 a7765446d15b4be3966cb18223edfad2,4ad0dc2c7e0b4634a5fc6f66180d8695,10*
G04 Gerber Generator version 0.2*
G04 Scale: 100 percent, Rotated: No, Reflected: No *
G04 Dimensions in millimeters *
G04 leading zeros omitted , absolute positions ,3 integer and 3 decimal *
%FSLAX33Y33*%
%MOMM*%
G90*
D02*

%ADD28C,2.003196*%
%ADD30C,1.803197*%
%ADD31R,1.803197X1.803197*%
%ADD33C,1.803400*%
%ADD34C,1.473200*%
%ADD35R,1.727200X1.727200*%
%ADD36C,1.727200*%

%LPD*%
G54D28*
G01X8890Y50927D03*
G01X8890Y53467D03*
G36*
G01X7889Y55118D02*
G01X7889Y56896D01*
G01X9890Y56896D01*
G01X9890Y55118D01*
G01X7889Y55118D01*
G37*
G54D30*
G01X38100Y78740D03*
G01X40640Y78740D03*
G01X43180Y78740D03*
G01X45720Y78740D03*
G01X48260Y78740D03*
G01X50800Y78740D03*
G01X53340Y78740D03*
G01X55880Y78740D03*
G01X58420Y78740D03*
G01X60960Y78740D03*
G01X63500Y78740D03*
G01X66040Y78740D03*
G01X68574Y78740D03*
G01X71114Y78740D03*
G01X73654Y78740D03*
G01X76194Y78740D03*
G01X78734Y78740D03*
G01X81274Y78740D03*
G01X83816Y78740D03*
G01X86354Y78740D03*
G01X86360Y63500D03*
G01X83820Y63500D03*
G01X81280Y63500D03*
G01X78740Y63500D03*
G01X76200Y63500D03*
G01X73660Y63500D03*
G01X71120Y63500D03*
G01X68580Y63500D03*
G01X66040Y63500D03*
G01X63500Y63500D03*
G01X60960Y63500D03*
G01X58420Y63500D03*
G01X55880Y63500D03*
G01X53340Y63500D03*
G01X50800Y63500D03*
G01X48260Y63500D03*
G01X45720Y63500D03*
G01X43180Y63500D03*
G01X40640Y63500D03*
G54D31*
G01X38100Y63500D03*
G54D30*
G01X7618Y21590D03*
G01X7618Y24130D03*
G01X7618Y26670D03*
G01X7618Y29210D03*
G01X7618Y31750D03*
G01X7618Y34290D03*
G01X7618Y36830D03*
G01X7618Y39370D03*
G01X15238Y39370D03*
G01X15238Y36830D03*
G01X15238Y34290D03*
G01X15238Y31750D03*
G01X15238Y29210D03*
G01X15238Y26670D03*
G01X15238Y24130D03*
G36*
G01X14338Y20688D02*
G01X14338Y22491D01*
G01X16141Y22491D01*
G01X16141Y20688D01*
G01X14338Y20688D01*
G37*
G01X21588Y21588D03*
G01X21588Y24128D03*
G01X21588Y26668D03*
G01X21588Y29208D03*
G01X21588Y31748D03*
G01X21588Y34288D03*
G01X21588Y36828D03*
G01X21588Y39368D03*
G01X29208Y39368D03*
G01X29208Y36828D03*
G01X29208Y34288D03*
G01X29208Y31748D03*
G01X29208Y29208D03*
G01X29208Y26668D03*
G01X29208Y24128D03*
G36*
G01X28308Y20685D02*
G01X28308Y22489D01*
G01X30111Y22489D01*
G01X30111Y20685D01*
G01X28308Y20685D01*
G37*
G01X29210Y78740D03*
G01X29210Y76200D03*
G01X29210Y73660D03*
G01X29210Y71120D03*
G01X29210Y68580D03*
G01X29210Y66040D03*
G01X29210Y63500D03*
G01X29210Y60960D03*
G01X21590Y60960D03*
G01X21590Y63500D03*
G01X21590Y66040D03*
G01X21590Y68580D03*
G01X21590Y71120D03*
G01X21590Y73660D03*
G01X21590Y76200D03*
G36*
G01X20688Y77838D02*
G01X20688Y79641D01*
G01X22491Y79641D01*
G01X22491Y77838D01*
G01X20688Y77838D01*
G37*
G36*
G01X6718Y75298D02*
G01X6718Y77101D01*
G01X8521Y77101D01*
G01X8521Y75298D01*
G01X6718Y75298D01*
G37*
G54D33*
G01X7620Y73660D03*
G01X7620Y66040D03*
G01X7620Y63500D03*
G01X7620Y71120D03*
G01X7620Y68580D03*
G01X7620Y60960D03*
G01X15240Y60960D03*
G01X15240Y63500D03*
G01X15240Y66040D03*
G01X15240Y68580D03*
G01X15240Y71120D03*
G01X15240Y73660D03*
G01X15240Y76200D03*
G54D30*
G01X38100Y35560D03*
G01X40640Y35560D03*
G01X43180Y35560D03*
G01X45720Y35560D03*
G01X48260Y35560D03*
G01X50800Y35560D03*
G01X53340Y35560D03*
G01X55880Y35560D03*
G01X58420Y35560D03*
G01X60960Y35560D03*
G01X63500Y35560D03*
G01X66040Y35560D03*
G01X68574Y35560D03*
G01X71114Y35560D03*
G01X73654Y35560D03*
G01X76194Y35560D03*
G01X78734Y35560D03*
G01X81274Y35560D03*
G01X83816Y35560D03*
G01X86354Y35560D03*
G01X86360Y20320D03*
G01X83820Y20320D03*
G01X81280Y20320D03*
G01X78740Y20320D03*
G01X76200Y20320D03*
G01X73660Y20320D03*
G01X71120Y20320D03*
G01X68580Y20320D03*
G01X66040Y20320D03*
G01X63500Y20320D03*
G01X60960Y20320D03*
G01X58420Y20320D03*
G01X55880Y20320D03*
G01X53340Y20320D03*
G01X50800Y20320D03*
G01X48260Y20320D03*
G01X45720Y20320D03*
G01X43180Y20320D03*
G01X40640Y20320D03*
G54D31*
G01X38100Y20320D03*
G54D34*
G01X26670Y55880D03*
G01X26670Y48260D03*
G54D28*
G01X12700Y81280D03*
G01X10160Y81280D03*
G01X22860Y82550D03*
G01X25400Y82550D03*
G01X43434Y48260D03*
G01X43434Y50800D03*
G01X12700Y43180D03*
G01X10160Y43180D03*
G01X24130Y43180D03*
G01X26670Y43180D03*
G01X81280Y16510D03*
G01X81280Y13970D03*
G36*
G01X85496Y4216D02*
G01X85496Y5943D01*
G01X87223Y5943D01*
G01X87223Y4216D01*
G01X85496Y4216D01*
G37*
G54D36*
G01X83820Y5080D03*
G01X81280Y5080D03*
G01X78740Y5080D03*
G01X76200Y5080D03*
G01X73660Y5080D03*
G01X71120Y5080D03*
G01X68580Y5080D03*
G01X66040Y5080D03*
G01X63500Y5080D03*
G01X60960Y5080D03*
G01X58420Y5080D03*
G01X55880Y5080D03*
G01X53340Y5080D03*
G01X50800Y5080D03*
G01X48260Y5080D03*
G01X45720Y5080D03*
G01X43180Y5080D03*
G01X40640Y5080D03*
G01X38100Y5080D03*
G01X35560Y5080D03*
G01X33020Y5080D03*
G01X30480Y5080D03*
G01X27940Y5080D03*
G01X25400Y5080D03*
G01X22860Y5080D03*
G01X20320Y5080D03*
G01X17780Y5080D03*
G01X15240Y5080D03*
G01X12700Y5080D03*
G01X10160Y5080D03*
G01X7620Y5080D03*
G01X86360Y7620D03*
G01X83820Y7620D03*
G01X81280Y7620D03*
G01X78740Y7620D03*
G01X76200Y7620D03*
G01X73660Y7620D03*
G01X71120Y7620D03*
G01X68580Y7620D03*
G01X66040Y7620D03*
G01X63500Y7620D03*
G01X60960Y7620D03*
G01X58420Y7620D03*
G01X55880Y7620D03*
G01X53340Y7620D03*
G01X50800Y7620D03*
G01X48260Y7620D03*
G01X45720Y7620D03*
G01X43180Y7620D03*
G01X40640Y7620D03*
G01X38100Y7620D03*
G01X35560Y7620D03*
G01X33020Y7620D03*
G01X30480Y7620D03*
G01X27940Y7620D03*
G01X25400Y7620D03*
G01X22860Y7620D03*
G01X20320Y7620D03*
G01X17780Y7620D03*
G01X15240Y7620D03*
G01X12700Y7620D03*
G01X10160Y7620D03*
G01X7620Y7620D03*
G54D30*
G01X50800Y86360D03*
G01X50800Y88900D03*
G01X53340Y86360D03*
G01X53340Y88900D03*
G01X55880Y86360D03*
G01X55880Y88900D03*
G01X58420Y86360D03*
G01X58420Y88900D03*
G01X60960Y86360D03*
G01X60960Y88900D03*
G01X63500Y86360D03*
G01X63500Y88900D03*
G01X66040Y86360D03*
G01X66040Y88900D03*
G01X68580Y86360D03*
G01X68580Y88900D03*
G01X71120Y86360D03*
G01X71120Y88900D03*
G01X73660Y86360D03*
G01X73660Y88900D03*
G01X76200Y86360D03*
G01X76200Y88900D03*
G01X78740Y86360D03*
G01X78740Y88900D03*
G01X81280Y86360D03*
G01X81280Y88900D03*
G01X87630Y14478D03*
G01X90170Y14478D03*
G54D35*
G01X48260Y41783D03*
G54D36*
G01X50800Y41783D03*
G01X53340Y41783D03*
G01X55880Y41783D03*
G01X58420Y41783D03*
G01X60960Y41783D03*
G01X63500Y41783D03*
G01X66040Y41783D03*
G01X68580Y41783D03*
G01X71120Y41783D03*
G01X73660Y41783D03*
G01X76200Y41783D03*
G01X78740Y41783D03*
G01X81280Y41783D03*
G01X83820Y41783D03*
G01X86360Y41783D03*
G01X86360Y57023D03*
G01X83820Y57023D03*
G01X81280Y57023D03*
G01X78740Y57023D03*
G01X76200Y57023D03*
G01X73660Y57023D03*
G01X71120Y57023D03*
G01X68580Y57023D03*
G01X66040Y57023D03*
G01X63500Y57023D03*
G01X60960Y57023D03*
G01X58420Y57023D03*
G01X55880Y57023D03*
G01X53340Y57023D03*
G01X50800Y57023D03*
G01X48260Y57023D03*
G54D28*
G01X34290Y68580D03*
G01X34290Y71120D03*
M00*
M02*
