;Layer: Drill PTH
;EasyEDA v6.4.7, 2020-09-22T21:54:33+03:00
;a7765446d15b4be3966cb18223edfad2,4ad0dc2c7e0b4634a5fc6f66180d8695,10
;Gerber Generator version 0.2
M48
METRIC,LZ,000.000
;Holesize 1 = 0.305 METRIC
T01C0.305
;Holesize 2 = 0.800 METRIC
T02C0.800
;Holesize 3 = 0.901 METRIC
T03C0.901
;Holesize 4 = 0.915 METRIC
T04C0.915
;Holesize 5 = 1.000 METRIC
T05C1.000
;Holesize 6 = 1.101 METRIC
T06C1.101
;Holesize 7 = 1.200 METRIC
T07C1.200
%
G05
G90
T01
X+012065Y+057277
X+009906Y+013208
X+020828Y+012319
X+076200Y+012319
X+008128Y+081026
X+074930Y+079883
X+060960Y+075184
X+072390Y+069977
X+038354Y+081915
X+038354Y+087630
X+043180Y+086360
X+041910Y+087503
X+040640Y+086360
X+082169Y+091440
X+084709Y+091440
X+036195Y+087630
X+084074Y+090297
X+084074Y+085217
X+082550Y+075438
X+075946Y+075438
X+066294Y+061849
X+040640Y+066040
X+080010Y+091059
X+038608Y+092329
X+035179Y+086868
X+027178Y+026670
X+028702Y+041021
X+028321Y+049530
X+030480Y+049530
X+027940Y+051816
X+026670Y+063500
X+026670Y+070358
X+029591Y+041910
X+021590Y+046355
X+021590Y+049657
X+029083Y+083058
X+041783Y+055499
X+050800Y+055499
X+050800Y+044069
X+020320Y+054483
X+042672Y+054483
X+020828Y+017145
X+056515Y+073279
X+059690Y+059436
X+020193Y+057277
X+029210Y+053594
X+052959Y+053594
X+055880Y+038735
X+053340Y+038100
X+039370Y+038735
X+039370Y+022352
X+041783Y+023114
X+033909Y+044450
X+033909Y+052070
X+035560Y+065024
X+058420Y+061849
X+075057Y+055753
X+089154Y+043561
X+081788Y+030861
X+078105Y+026035
X+076200Y+026035
X+078740Y+010033
X+092583Y+053467
X+090170Y+055880
X+082550Y+058420
X+063500Y+045847
X+052070Y+037084
X+057150Y+011176
X+073660Y+011176
X+071120Y+025400
X+071120Y+028956
X+060960Y+044831
X+072263Y+045593
X+058420Y+038735
X+067310Y+038735
X+069850Y+032258
X+082550Y+033655
X+081534Y+024511
X+083185Y+032385
X+065659Y+046482
X+043180Y+027178
X+083947Y+023495
X+085979Y+023495
X+085979Y+032893
X+065659Y+054991
X+065659Y+058674
X+074930Y+018288
X+087503Y+049657
X+087503Y+054483
X+039370Y+010414
X+043180Y+010414
X+044450Y+038100
X+067437Y+046609
X+068574Y+024643
X+020828Y+014478
X+058420Y+014478
X+058420Y+067564
X+020193Y+064643
X+017907Y+056642
X+008890Y+014478
X+057150Y+043053
X+051054Y+032385
X+055880Y+010033
X+004445Y+014605
X+005207Y+013589
X+054610Y+043053
X+058039Y+029210
X+054610Y+085090
X+012573Y+088900
X+058420Y+070739
X+041910Y+070739
X+041910Y+080899
X+020447Y+080899
X+017526Y+079248
X+063246Y+026035
X+069850Y+022098
X+059690Y+072136
X+044450Y+072136
X+044450Y+087630
X+044450Y+090170
X+036830Y+027940
X+066167Y+015240
X+064770Y+043053
X+059690Y+043942
X+059690Y+029210
X+059690Y+026289
X+076200Y+038862
X+074930Y+065659
X+039624Y+055753
X+035306Y+055753
X+035306Y+052070
X+046863Y+032893
X+016891Y+062230
X+020320Y+074930
X+036576Y+052070
X+046990Y+034036
X+029210Y+013335
X+021971Y+013335
X+027288Y+038100
X+027305Y+034290
X+020320Y+052705
X+012065Y+052705
X+029591Y+050546
T02
X+026670Y+055880
X+026670Y+048260
T03
X+007620Y+076200
X+007620Y+073660
X+007620Y+066040
X+007620Y+063500
X+007620Y+071120
X+007620Y+068580
X+007620Y+060960
X+015240Y+060960
X+015240Y+063500
X+015240Y+066040
X+015240Y+068580
X+015240Y+071120
X+015240Y+073660
X+015240Y+076200
T04
X+086360Y+005080
X+083820Y+005080
X+081280Y+005080
X+078740Y+005080
X+076200Y+005080
X+073660Y+005080
X+071120Y+005080
X+068580Y+005080
X+066040Y+005080
X+063500Y+005080
X+060960Y+005080
X+058420Y+005080
X+055880Y+005080
X+053340Y+005080
X+050800Y+005080
X+048260Y+005080
X+045720Y+005080
X+043180Y+005080
X+040640Y+005080
X+038100Y+005080
X+035560Y+005080
X+033020Y+005080
X+030480Y+005080
X+027940Y+005080
X+025400Y+005080
X+022860Y+005080
X+020320Y+005080
X+017780Y+005080
X+015240Y+005080
X+012700Y+005080
X+010160Y+005080
X+007620Y+005080
X+086360Y+007620
X+083820Y+007620
X+081280Y+007620
X+078740Y+007620
X+076200Y+007620
X+073660Y+007620
X+071120Y+007620
X+068580Y+007620
X+066040Y+007620
X+063500Y+007620
X+060960Y+007620
X+058420Y+007620
X+055880Y+007620
X+053340Y+007620
X+050800Y+007620
X+048260Y+007620
X+045720Y+007620
X+043180Y+007620
X+040640Y+007620
X+038100Y+007620
X+035560Y+007620
X+033020Y+007620
X+030480Y+007620
X+027940Y+007620
X+025400Y+007620
X+022860Y+007620
X+020320Y+007620
X+017780Y+007620
X+015240Y+007620
X+012700Y+007620
X+010160Y+007620
X+007620Y+007620
X+048260Y+041783
X+050800Y+041783
X+053340Y+041783
X+055880Y+041783
X+058420Y+041783
X+060960Y+041783
X+063500Y+041783
X+066040Y+041783
X+068580Y+041783
X+071120Y+041783
X+073660Y+041783
X+076200Y+041783
X+078740Y+041783
X+081280Y+041783
X+083820Y+041783
X+086360Y+041783
X+086360Y+057023
X+083820Y+057023
X+081280Y+057023
X+078740Y+057023
X+076200Y+057023
X+073660Y+057023
X+071120Y+057023
X+068580Y+057023
X+066040Y+057023
X+063500Y+057023
X+060960Y+057023
X+058420Y+057023
X+055880Y+057023
X+053340Y+057023
X+050800Y+057023
X+048260Y+057023
T05
X+007618Y+021590
X+007618Y+024130
X+007618Y+026670
X+007618Y+029210
X+007618Y+031750
X+007618Y+034290
X+007618Y+036830
X+007618Y+039370
X+015238Y+039370
X+015238Y+036830
X+015238Y+034290
X+015238Y+031750
X+015238Y+029210
X+015238Y+026670
X+015238Y+024130
X+015238Y+021590
X+021588Y+021587
X+021588Y+024127
X+021588Y+026667
X+021588Y+029207
X+021588Y+031747
X+021588Y+034287
X+021588Y+036827
X+021588Y+039367
X+029208Y+039367
X+029208Y+036827
X+029208Y+034287
X+029208Y+031747
X+029208Y+029207
X+029208Y+026667
X+029208Y+024127
X+029208Y+021588
X+029210Y+078740
X+029210Y+076200
X+029210Y+073660
X+029210Y+071120
X+029210Y+068580
X+029210Y+066040
X+029210Y+063500
X+029210Y+060960
X+021590Y+060960
X+021590Y+063500
X+021590Y+066040
X+021590Y+068580
X+021590Y+071120
X+021590Y+073660
X+021590Y+076200
X+021590Y+078740
X+087630Y+014478
X+090170Y+014478
T06
X+038100Y+078740
X+040640Y+078740
X+043180Y+078740
X+045720Y+078740
X+048260Y+078740
X+050800Y+078740
X+053340Y+078740
X+055880Y+078740
X+058420Y+078740
X+060960Y+078740
X+063500Y+078740
X+066040Y+078740
X+068574Y+078740
X+071114Y+078740
X+073654Y+078740
X+076194Y+078740
X+078734Y+078740
X+081274Y+078740
X+083816Y+078740
X+086354Y+078740
X+086360Y+063500
X+083820Y+063500
X+081280Y+063500
X+078740Y+063500
X+076200Y+063500
X+073660Y+063500
X+071120Y+063500
X+068580Y+063500
X+066040Y+063500
X+063500Y+063500
X+060960Y+063500
X+058420Y+063500
X+055880Y+063500
X+053340Y+063500
X+050800Y+063500
X+048260Y+063500
X+045720Y+063500
X+043180Y+063500
X+040640Y+063500
X+038100Y+063500
X+038100Y+035560
X+040640Y+035560
X+043180Y+035560
X+045720Y+035560
X+048260Y+035560
X+050800Y+035560
X+053340Y+035560
X+055880Y+035560
X+058420Y+035560
X+060960Y+035560
X+063500Y+035560
X+066040Y+035560
X+068574Y+035560
X+071114Y+035560
X+073654Y+035560
X+076194Y+035560
X+078734Y+035560
X+081274Y+035560
X+083816Y+035560
X+086354Y+035560
X+086360Y+020320
X+083820Y+020320
X+081280Y+020320
X+078740Y+020320
X+076200Y+020320
X+073660Y+020320
X+071120Y+020320
X+068580Y+020320
X+066040Y+020320
X+063500Y+020320
X+060960Y+020320
X+058420Y+020320
X+055880Y+020320
X+053340Y+020320
X+050800Y+020320
X+048260Y+020320
X+045720Y+020320
X+043180Y+020320
X+040640Y+020320
X+038100Y+020320
X+012700Y+081280
X+010160Y+081280
X+022860Y+082550
X+025400Y+082550
X+043434Y+048260
X+043434Y+050800
X+012700Y+043180
X+010160Y+043180
X+024130Y+043180
X+026670Y+043180
X+081280Y+016510
X+081280Y+013970
X+050800Y+086360
X+050800Y+088900
X+053340Y+086360
X+053340Y+088900
X+055880Y+086360
X+055880Y+088900
X+058420Y+086360
X+058420Y+088900
X+060960Y+086360
X+060960Y+088900
X+063500Y+086360
X+063500Y+088900
X+066040Y+086360
X+066040Y+088900
X+068580Y+086360
X+068580Y+088900
X+071120Y+086360
X+071120Y+088900
X+073660Y+086360
X+073660Y+088900
X+076200Y+086360
X+076200Y+088900
X+078740Y+086360
X+078740Y+088900
X+081280Y+086360
X+081280Y+088900
X+034290Y+068580
X+034290Y+071120
T07
X+008890Y+050927
X+008890Y+053467
X+008890Y+056007
M30
