G04 Layer: BottomLayer*
G04 EasyEDA v6.4.7, 2020-09-22T21:54:33+03:00*
G04 a7765446d15b4be3966cb18223edfad2,4ad0dc2c7e0b4634a5fc6f66180d8695,10*
G04 Gerber Generator version 0.2*
G04 Scale: 100 percent, Rotated: No, Reflected: No *
G04 Dimensions in millimeters *
G04 leading zeros omitted , absolute positions ,3 integer and 3 decimal *
%FSLAX33Y33*%
%MOMM*%
G90*
D02*

%ADD11C,0.299999*%
%ADD12C,0.999998*%
%ADD14C,0.609600*%
%ADD15C,1.799996*%
%ADD16R,1.799996X1.574800*%
%ADD17C,1.599997*%
%ADD18R,1.599997X1.599997*%
%ADD19R,1.600200X1.600200*%
%ADD20C,1.600200*%
%ADD21C,1.270000*%
%ADD22R,1.524000X1.524000*%
%ADD23C,1.524000*%

%LPD*%
G54D11*
G01X29210Y71120D02*
G01X28194Y72136D01*
G01X26035Y72136D01*
G01X25146Y71247D01*
G01X25146Y51562D01*
G01X26162Y50546D01*
G01X29591Y50546D01*
G01X28321Y49530D02*
G01X25273Y49530D01*
G01X23876Y50927D01*
G01X23876Y76454D01*
G01X21590Y78740D01*
G54D12*
G01X31750Y50800D02*
G01X31750Y48260D01*
G01X13462Y48260D01*
G01X10160Y44958D01*
G01X10160Y43180D01*
G54D11*
G01X29591Y41910D02*
G01X30607Y41910D01*
G01X31369Y41148D01*
G01X31369Y28829D01*
G01X29210Y26667D01*
G54D12*
G01X73654Y35560D02*
G01X69209Y40005D01*
G01X50038Y40005D01*
G01X48260Y41783D01*
G01X48260Y41783D02*
G01X45847Y41783D01*
G01X40640Y46990D01*
G01X40640Y50800D01*
G01X43434Y50800D01*
G01X40640Y50800D02*
G01X31750Y50800D01*
G01X31750Y68580D01*
G01X34290Y71120D01*
G01X32639Y78740D02*
G01X32639Y88900D01*
G01X50800Y88900D01*
G01X32639Y86641D02*
G01X32611Y86614D01*
G01X15494Y86614D01*
G01X10160Y81280D01*
G54D11*
G01X53340Y7620D02*
G01X53340Y15240D01*
G01X48260Y20320D01*
G01X48260Y20320D02*
G01X46863Y21717D01*
G01X46863Y26035D01*
G01X46863Y32893D01*
G01X35306Y52070D02*
G01X35306Y55753D01*
G01X39624Y55753D02*
G01X43434Y59563D01*
G01X47752Y59563D01*
G01X48260Y60071D01*
G01X48260Y63500D01*
G01X68574Y24643D02*
G01X68574Y24643D01*
G01X68574Y35560D01*
G01X64770Y43053D02*
G01X64770Y77470D01*
G01X66040Y78740D01*
G01X44450Y87630D02*
G01X44450Y77851D01*
G01X44450Y72136D01*
G01X59690Y72136D02*
G01X59690Y77470D01*
G01X60960Y78740D01*
G01X71120Y5080D02*
G01X69850Y6350D01*
G01X69850Y6731D01*
G01X69850Y11811D01*
G01X69850Y21463D01*
G01X69850Y22098D01*
G01X41910Y80899D02*
G01X41910Y70739D01*
G01X58420Y70739D02*
G01X58420Y78740D01*
G01X12573Y88900D02*
G01X22479Y88900D01*
G01X28067Y88900D01*
G01X30353Y91186D01*
G01X31242Y91186D01*
G01X43307Y91186D01*
G01X53975Y91186D01*
G01X54610Y90551D01*
G01X54610Y85090D01*
G01X54610Y43053D02*
G01X54610Y71374D01*
G01X54483Y71501D01*
G01X54483Y77597D01*
G01X53340Y78740D01*
G01X55880Y10033D02*
G01X55880Y20320D01*
G01X57150Y43053D02*
G01X57150Y62230D01*
G01X55880Y63500D01*
G01X58420Y67564D02*
G01X58420Y63500D01*
G01X58420Y20320D02*
G01X58420Y14478D01*
G01X44450Y38100D02*
G01X44450Y21717D01*
G01X45720Y20320D01*
G01X87503Y49657D02*
G01X81280Y43434D01*
G01X81280Y41783D01*
G01X83820Y57023D02*
G01X83820Y58928D01*
G01X83185Y59563D01*
G01X74930Y59563D01*
G01X66548Y59563D01*
G01X65659Y58674D01*
G01X65659Y54991D02*
G01X69215Y54991D01*
G01X69850Y55626D01*
G01X69850Y57785D01*
G01X70485Y58420D01*
G01X79883Y58420D01*
G01X81280Y57023D01*
G01X85979Y23495D02*
G01X83947Y23495D01*
G01X43180Y27178D02*
G01X43180Y35560D01*
G01X65659Y46482D02*
G01X65659Y50165D01*
G01X66167Y50673D01*
G01X75692Y50673D01*
G01X76200Y51181D01*
G01X76200Y57023D01*
G01X67310Y38735D02*
G01X58420Y38735D01*
G01X66040Y41783D02*
G01X69850Y45593D01*
G01X72263Y45593D01*
G01X60960Y57023D02*
G01X60960Y52959D01*
G01X60960Y44831D01*
G01X71120Y28956D02*
G01X71120Y25400D01*
G01X73660Y20320D02*
G01X73660Y11176D01*
G01X63500Y45847D02*
G01X63500Y57023D01*
G01X66040Y57023D02*
G01X67945Y58928D01*
G01X73152Y58928D01*
G01X82042Y58928D01*
G01X82550Y58420D01*
G01X78740Y10033D02*
G01X78740Y20320D01*
G01X76200Y26035D02*
G01X78105Y26035D01*
G01X75057Y55753D02*
G01X72390Y55753D01*
G01X71120Y57023D01*
G01X58420Y57023D02*
G01X58420Y61849D01*
G01X35560Y65024D02*
G01X33909Y63373D01*
G01X33909Y57531D01*
G01X33909Y52070D01*
G54D12*
G01X49814Y57023D02*
G01X50800Y57023D01*
G01X48260Y57023D02*
G01X49735Y57023D01*
G01X43434Y50800D02*
G01X48260Y57023D01*
G54D11*
G01X50800Y41783D02*
G01X52959Y43942D01*
G01X52959Y44069D01*
G01X52959Y50800D01*
G01X52959Y53594D01*
G01X59690Y59436D02*
G01X59690Y67818D01*
G01X59055Y68453D01*
G01X57023Y68453D01*
G01X56515Y68961D01*
G01X56515Y73279D01*
G01X50800Y44069D02*
G01X50800Y51308D01*
G01X50800Y55499D01*
G01X41783Y55499D02*
G01X45212Y58928D01*
G01X48895Y58928D01*
G01X49530Y59563D01*
G01X49530Y77470D01*
G01X50800Y78740D01*
G01X15240Y71120D02*
G01X15240Y66040D01*
G01X40640Y63500D02*
G01X40640Y66040D01*
G01X66294Y61849D02*
G01X67183Y62738D01*
G01X67183Y66675D01*
G01X72771Y72263D01*
G01X75946Y75438D01*
G01X84074Y90297D02*
G01X80137Y90297D01*
G01X78740Y88900D01*
G01X84709Y91440D02*
G01X82169Y91440D01*
G01X40640Y86360D02*
G01X40640Y78740D01*
G01X43180Y86360D02*
G01X43180Y78740D01*
G01X38354Y87630D02*
G01X38354Y81915D01*
G01X72390Y69977D02*
G01X71120Y68707D01*
G01X71120Y63500D01*
G01X60960Y75184D02*
G01X60960Y63500D01*
G01X58420Y88900D02*
G01X58420Y91821D01*
G01X58928Y92329D01*
G01X85725Y92329D01*
G01X88773Y89281D01*
G01X88773Y62103D01*
G01X87884Y61214D01*
G01X78486Y61214D01*
G01X76200Y63500D01*
G01X20320Y74930D02*
G01X16891Y71501D01*
G01X16891Y62230D01*
G01X73660Y5080D02*
G01X73660Y3937D01*
G01X73279Y3556D01*
G01X42291Y3556D01*
G01X41783Y4064D01*
G01X41783Y10414D01*
G01X40640Y11557D01*
G01X36830Y11557D01*
G01X36830Y27940D01*
G01X43180Y20320D02*
G01X43180Y10414D01*
G01X39370Y10414D02*
G01X39370Y3556D01*
G01X40005Y2921D01*
G01X52197Y2921D01*
G01X74422Y2921D01*
G01X87884Y2921D01*
G01X92710Y7747D01*
G01X92710Y10541D01*
G01X92710Y23368D01*
G01X92710Y49276D01*
G01X87503Y54483D01*
G01X17526Y79248D02*
G01X18796Y79248D01*
G01X20447Y80899D01*
G54D12*
G01X81280Y7620D02*
G01X81280Y13970D01*
G54D11*
G01X85090Y70231D02*
G01X81280Y66294D01*
G01X81280Y63500D01*
G01X38608Y92329D02*
G01X56896Y92329D01*
G01X57150Y92075D01*
G01X57150Y88138D01*
G01X57658Y87630D01*
G01X59182Y87630D01*
G01X59690Y88138D01*
G01X59690Y90678D01*
G01X60071Y91059D01*
G01X80010Y91059D01*
G01X50800Y63500D02*
G01X50800Y58928D01*
G01X50165Y58293D01*
G01X46474Y58293D01*
G01X42672Y54483D01*
G01X78740Y41783D02*
G01X78740Y44323D01*
G01X76454Y46609D01*
G01X67437Y46609D01*
G01X81280Y5080D02*
G01X80010Y6350D01*
G01X80010Y21590D01*
G01X76956Y24643D01*
G01X68574Y24643D01*
G01X38100Y63500D02*
G01X38100Y70104D01*
G01X35560Y72644D01*
G01X35560Y86487D01*
G01X35179Y86868D01*
G54D12*
G01X47277Y88900D02*
G01X47244Y88866D01*
G01X47244Y85090D01*
G01X49530Y82804D01*
G01X69596Y82804D01*
G01X73654Y78740D01*
G54D11*
G01X66040Y86360D02*
G01X67437Y84963D01*
G01X78105Y84963D01*
G01X81274Y81793D01*
G01X81274Y78740D01*
G01X63500Y86360D02*
G01X65532Y84328D01*
G01X73406Y84328D01*
G01X76194Y81539D01*
G01X76194Y78740D01*
G01X55880Y20320D02*
G01X55880Y22733D01*
G01X51054Y27559D01*
G01X51054Y32385D01*
G01X63246Y26035D02*
G01X63246Y30734D01*
G01X58420Y35560D01*
G01X59690Y26289D02*
G01X59690Y29210D01*
G01X68580Y5080D02*
G01X67310Y6350D01*
G01X67310Y10795D01*
G01X62230Y15875D01*
G01X62230Y29718D01*
G01X59436Y32512D01*
G01X58928Y32512D01*
G01X55880Y35560D01*
G01X81788Y30861D02*
G01X87122Y30861D01*
G01X89154Y32893D01*
G01X89154Y43561D01*
G01X74930Y18288D02*
G01X74930Y4191D01*
G01X75565Y3556D01*
G01X87376Y3556D01*
G01X92075Y8255D01*
G01X92075Y48006D01*
G01X86360Y53721D01*
G01X86360Y57023D01*
G01X90170Y55880D02*
G01X92583Y53467D01*
G01X83820Y5080D02*
G01X85090Y6350D01*
G01X85090Y8509D01*
G01X85725Y9144D01*
G01X90805Y9144D01*
G01X91440Y9779D01*
G01X91440Y42799D01*
G01X88773Y45466D01*
G01X88773Y49784D01*
G01X85090Y53467D01*
G01X85090Y59563D01*
G01X84328Y60325D01*
G01X77089Y60325D01*
G01X74930Y62484D01*
G01X74930Y65659D01*
G01X39370Y22352D02*
G01X39370Y38735D01*
G01X48260Y34036D02*
G01X46990Y34036D01*
G01X66040Y5080D02*
G01X64770Y6350D01*
G01X64770Y10795D01*
G01X59690Y15875D01*
G01X59690Y23876D01*
G01X58039Y25527D01*
G01X58039Y29210D01*
G01X53340Y33909D01*
G01X53340Y35560D01*
G01X57150Y11176D02*
G01X57150Y28194D01*
G01X56642Y28702D01*
G01X52578Y28702D01*
G01X52070Y29210D01*
G01X52070Y37084D01*
G01X53340Y38100D02*
G01X54610Y36830D01*
G01X54610Y34036D01*
G01X57150Y31496D01*
G01X59055Y31496D01*
G01X60960Y29591D01*
G01X60960Y20320D01*
G01X69850Y32258D02*
G01X74422Y27686D01*
G01X78105Y27686D01*
G01X79756Y26035D01*
G01X79756Y24765D01*
G01X82677Y21844D01*
G01X84836Y21844D01*
G01X86360Y20320D01*
G01X78740Y5080D02*
G01X77470Y6350D01*
G01X77470Y21336D01*
G01X75819Y22987D01*
G01X68072Y22987D01*
G01X66040Y25019D01*
G01X66040Y35560D01*
G01X55880Y7620D02*
G01X54483Y9017D01*
G01X54483Y22098D01*
G01X48260Y28321D01*
G01X48260Y35560D01*
G01X82550Y33655D02*
G01X82550Y36576D01*
G01X81280Y37846D01*
G01X75311Y37846D01*
G01X73660Y39497D01*
G01X73660Y41783D01*
G01X76200Y41783D02*
G01X74930Y43053D01*
G01X72898Y43053D01*
G01X72390Y42545D01*
G01X72390Y39243D01*
G01X74549Y37084D01*
G01X79375Y37084D01*
G01X80010Y36449D01*
G01X80010Y33020D01*
G01X80645Y32385D01*
G01X83185Y32385D01*
G01X78740Y57023D02*
G01X80010Y55753D01*
G01X80010Y40386D01*
G01X80391Y40005D01*
G01X84963Y40005D01*
G01X87630Y37338D01*
G01X87630Y34544D01*
G01X85979Y32893D01*
G01X86354Y35560D02*
G01X86354Y37216D01*
G01X84328Y39243D01*
G01X77851Y39243D01*
G01X77470Y39624D01*
G01X77470Y43053D01*
G01X76835Y43688D01*
G01X70485Y43688D01*
G01X68580Y41783D01*
G01X88773Y45539D02*
G01X88265Y45031D01*
G01X88265Y33401D01*
G01X86868Y32004D01*
G01X85090Y32004D01*
G01X85090Y36957D01*
G01X83439Y38608D01*
G01X76454Y38608D01*
G01X76200Y38862D01*
G01X71120Y88900D02*
G01X72390Y87630D01*
G01X83312Y87630D01*
G01X85090Y85852D01*
G01X85090Y70231D01*
G01X82550Y75438D02*
G01X82550Y83693D01*
G01X84074Y85217D01*
G01X59690Y43942D02*
G01X61595Y43942D01*
G01X62230Y44577D01*
G01X62230Y79502D01*
G01X62738Y80010D01*
G01X67304Y80010D01*
G01X68574Y78740D01*
G54D12*
G01X87630Y14478D02*
G01X88773Y15621D01*
G01X88773Y24511D01*
G01X83947Y29337D01*
G01X79877Y29337D01*
G01X73654Y35560D01*
G54D11*
G01X81534Y24511D02*
G01X83439Y22606D01*
G01X86487Y22606D01*
G01X87757Y21336D01*
G01X87757Y19558D01*
G01X86995Y18796D01*
G01X82804Y18796D01*
G01X81280Y20320D01*
G01X55880Y38735D02*
G01X56896Y37719D01*
G01X63373Y37719D01*
G01X64770Y36322D01*
G01X64770Y32639D01*
G01X65151Y32258D01*
G01X65151Y23749D01*
G01X68580Y20320D01*
G01X66167Y15240D02*
G01X64770Y16764D01*
G01X64770Y22225D01*
G01X64262Y22733D01*
G01X64262Y31496D01*
G01X63500Y32258D01*
G01X63500Y35560D01*
G01X26670Y70358D02*
G01X26670Y55880D01*
G01X36830Y11430D02*
G01X36830Y2921D01*
G01X36195Y2286D01*
G01X6096Y2286D01*
G01X3175Y5207D01*
G01X3175Y78105D01*
G01X13081Y88011D01*
G01X28702Y88011D01*
G01X30861Y90170D01*
G01X44450Y90170D01*
G01X38100Y78740D02*
G01X39370Y80010D01*
G01X39370Y86614D01*
G01X40259Y87503D01*
G01X41910Y87503D01*
G01X36576Y52070D02*
G01X36576Y60706D01*
G01X37211Y61341D01*
G01X46355Y61341D01*
G01X46990Y61976D01*
G01X46990Y65659D01*
G01X48260Y66929D01*
G01X48260Y78740D01*
G01X45720Y63500D02*
G01X45720Y66802D01*
G01X46990Y68072D01*
G01X46990Y79883D01*
G01X47752Y80645D01*
G01X69215Y80645D01*
G01X69850Y80010D01*
G01X69850Y77978D01*
G01X70485Y77343D01*
G01X79375Y77343D01*
G01X80010Y76708D01*
G01X80010Y62484D01*
G01X80518Y61976D01*
G01X87122Y61976D01*
G01X87630Y62484D01*
G01X87630Y85344D01*
G01X84074Y88900D01*
G01X81280Y88900D01*
G01X60960Y86360D02*
G01X63627Y83693D01*
G01X71120Y83693D01*
G01X74930Y79883D01*
G54D12*
G01X11303Y21590D02*
G01X13716Y19177D01*
G01X19215Y19177D01*
G01X21588Y21588D01*
G01X10160Y43180D02*
G01X10160Y41910D01*
G01X11303Y40767D01*
G01X11303Y21590D01*
G01X7620Y21590D01*
G01X10160Y81280D02*
G01X10160Y78613D01*
G01X12573Y76200D01*
G01X15240Y76200D01*
G54D11*
G01X29210Y53594D02*
G01X29210Y60959D01*
G01X29209Y68579D02*
G01X30480Y67052D01*
G01X30480Y60071D01*
G01X30480Y49530D01*
G54D12*
G01X34290Y71120D02*
G01X34290Y77089D01*
G01X32639Y78740D01*
G01X29209Y78739D01*
G01X29209Y78739D02*
G01X25400Y82550D01*
G01X25400Y82550D01*
G54D11*
G01X21593Y76200D02*
G01X21593Y73660D01*
G01X20193Y57277D02*
G01X20193Y62100D01*
G01X21592Y63500D01*
G01X10160Y5080D02*
G01X8890Y6350D01*
G01X8890Y11557D01*
G01X8890Y14478D01*
G01X20828Y14478D02*
G01X8890Y14478D01*
G01X20828Y17145D02*
G01X6858Y17145D01*
G01X6096Y17907D01*
G01X6096Y27686D01*
G01X7620Y29210D01*
G01X29210Y13335D02*
G01X29210Y21587D01*
G01X29209Y21588D01*
G01X29083Y83058D02*
G01X27940Y84201D01*
G01X16764Y84201D01*
G01X16383Y83820D01*
G01X16383Y77343D01*
G01X16764Y76962D01*
G01X16764Y75692D01*
G01X16002Y74930D01*
G01X9017Y74930D01*
G01X7620Y76200D01*
G01X28702Y41021D02*
G01X30099Y41021D01*
G01X30607Y40513D01*
G01X30607Y30988D01*
G01X30099Y30480D01*
G01X27686Y30480D01*
G01X27178Y29972D01*
G01X27178Y26670D01*
G01X7620Y24130D02*
G01X7874Y24130D01*
G01X9144Y25400D01*
G01X9144Y39878D01*
G01X6604Y42418D01*
G01X6604Y53721D01*
G01X8890Y56007D01*
G01X8890Y53467D02*
G01X10033Y53467D01*
G01X11049Y54483D01*
G01X20320Y54483D01*
G54D12*
G01X81280Y13970D02*
G01X81788Y14478D01*
G01X87630Y14478D01*
G54D11*
G01X20828Y12319D02*
G01X10795Y12319D01*
G01X9906Y13208D01*
G01X27940Y5080D02*
G01X27940Y3937D01*
G01X27559Y3556D01*
G01X7112Y3556D01*
G01X5207Y5461D01*
G01X5207Y13589D01*
G01X25400Y5080D02*
G01X26670Y6350D01*
G01X26670Y9144D01*
G01X27178Y9652D01*
G01X28575Y9652D01*
G01X29210Y9017D01*
G01X29210Y3556D01*
G01X28575Y2921D01*
G01X6477Y2921D01*
G01X4445Y4953D01*
G01X4445Y14605D01*
G01X76200Y7620D02*
G01X76200Y12319D01*
G01X27288Y38100D02*
G01X27305Y38083D01*
G01X27305Y34290D01*
G01X20320Y52705D02*
G01X12065Y52705D01*
G54D12*
G01X26670Y48260D02*
G01X26670Y46228D01*
G01X26670Y43180D01*
G54D11*
G01X22860Y5080D02*
G01X24130Y6350D01*
G01X24130Y39878D01*
G01X23241Y40767D01*
G01X20447Y40767D01*
G01X19685Y40005D01*
G01X19685Y38735D01*
G01X15240Y34290D01*
G01X21590Y46355D02*
G01X19685Y44450D01*
G01X17018Y44450D01*
G01X13716Y41148D01*
G01X13716Y33274D01*
G01X15240Y31750D01*
G01X7620Y66040D02*
G01X5969Y64389D01*
G01X5969Y33401D01*
G01X7620Y31750D01*
G01X7620Y68580D02*
G01X5207Y66167D01*
G01X5207Y17145D01*
G01X6096Y16256D01*
G01X21717Y16256D01*
G01X22987Y17526D01*
G01X22987Y37884D01*
G01X21590Y39367D01*
G01X21971Y13335D02*
G01X21971Y15113D01*
G01X21590Y15494D01*
G01X5207Y15494D01*
G01X4445Y16256D01*
G01X4445Y67945D01*
G01X7620Y71120D01*
G01X33909Y44450D02*
G01X36449Y44450D01*
G01X41783Y39116D01*
G01X41783Y23114D01*
G01X12065Y57277D02*
G01X9652Y59690D01*
G01X9652Y71501D01*
G01X8763Y72390D01*
G01X6731Y72390D01*
G01X5969Y73152D01*
G01X5969Y78867D01*
G01X8128Y81026D01*
G01X15240Y73660D02*
G01X13589Y72009D01*
G01X13589Y58166D01*
G01X16256Y55499D01*
G01X20701Y55499D01*
G01X21590Y54610D01*
G01X21590Y49657D01*
G01X29210Y66040D02*
G01X27686Y64516D01*
G01X27686Y58039D01*
G01X27940Y57785D01*
G01X27940Y51816D01*
G01X17907Y56642D02*
G01X17907Y62357D01*
G01X20193Y64643D01*
G01X43180Y63500D02*
G01X43180Y66802D01*
G01X36576Y73406D01*
G01X36576Y87122D01*
G01X36195Y87630D01*
G54D15*
G01X8890Y50927D03*
G01X8890Y53467D03*
G54D16*
G01X8890Y56007D03*
G54D17*
G01X38100Y78740D03*
G01X40640Y78740D03*
G01X43180Y78740D03*
G01X45720Y78740D03*
G01X48260Y78740D03*
G01X50800Y78740D03*
G01X53340Y78740D03*
G01X55880Y78740D03*
G01X58420Y78740D03*
G01X60960Y78740D03*
G01X63500Y78740D03*
G01X66040Y78740D03*
G01X68574Y78740D03*
G01X71114Y78740D03*
G01X73654Y78740D03*
G01X76194Y78740D03*
G01X78734Y78740D03*
G01X81274Y78740D03*
G01X83816Y78740D03*
G01X86354Y78740D03*
G01X86360Y63500D03*
G01X83820Y63500D03*
G01X81280Y63500D03*
G01X78740Y63500D03*
G01X76200Y63500D03*
G01X73660Y63500D03*
G01X71120Y63500D03*
G01X68580Y63500D03*
G01X66040Y63500D03*
G01X63500Y63500D03*
G01X60960Y63500D03*
G01X58420Y63500D03*
G01X55880Y63500D03*
G01X53340Y63500D03*
G01X50800Y63500D03*
G01X48260Y63500D03*
G01X45720Y63500D03*
G01X43180Y63500D03*
G01X40640Y63500D03*
G54D18*
G01X38100Y63500D03*
G54D17*
G01X7618Y21590D03*
G01X7618Y24130D03*
G01X7618Y26670D03*
G01X7618Y29210D03*
G01X7618Y31750D03*
G01X7618Y34290D03*
G01X7618Y36830D03*
G01X7618Y39370D03*
G01X15238Y39370D03*
G01X15238Y36830D03*
G01X15238Y34290D03*
G01X15238Y31750D03*
G01X15238Y29210D03*
G01X15238Y26670D03*
G01X15238Y24130D03*
G54D18*
G01X15238Y21590D03*
G54D17*
G01X21588Y21588D03*
G01X21588Y24128D03*
G01X21588Y26668D03*
G01X21588Y29208D03*
G01X21588Y31748D03*
G01X21588Y34288D03*
G01X21588Y36828D03*
G01X21588Y39368D03*
G01X29208Y39368D03*
G01X29208Y36828D03*
G01X29208Y34288D03*
G01X29208Y31748D03*
G01X29208Y29208D03*
G01X29208Y26668D03*
G01X29208Y24128D03*
G54D18*
G01X29208Y21588D03*
G54D17*
G01X29210Y78740D03*
G01X29210Y76200D03*
G01X29210Y73660D03*
G01X29210Y71120D03*
G01X29210Y68580D03*
G01X29210Y66040D03*
G01X29210Y63500D03*
G01X29210Y60960D03*
G01X21590Y60960D03*
G01X21590Y63500D03*
G01X21590Y66040D03*
G01X21590Y68580D03*
G01X21590Y71120D03*
G01X21590Y73660D03*
G01X21590Y76200D03*
G36*
G01X20790Y79539D02*
G01X22389Y79539D01*
G01X22389Y77940D01*
G01X20790Y77940D01*
G01X20790Y79539D01*
G37*
G54D19*
G01X7620Y76200D03*
G54D20*
G01X7620Y73660D03*
G01X7620Y66040D03*
G01X7620Y63500D03*
G01X7620Y71120D03*
G01X7620Y68580D03*
G01X7620Y60960D03*
G01X15240Y60960D03*
G01X15240Y63500D03*
G01X15240Y66040D03*
G01X15240Y68580D03*
G01X15240Y71120D03*
G01X15240Y73660D03*
G01X15240Y76200D03*
G54D17*
G01X38100Y35560D03*
G01X40640Y35560D03*
G01X43180Y35560D03*
G01X45720Y35560D03*
G01X48260Y35560D03*
G01X50800Y35560D03*
G01X53340Y35560D03*
G01X55880Y35560D03*
G01X58420Y35560D03*
G01X60960Y35560D03*
G01X63500Y35560D03*
G01X66040Y35560D03*
G01X68574Y35560D03*
G01X71114Y35560D03*
G01X73654Y35560D03*
G01X76194Y35560D03*
G01X78734Y35560D03*
G01X81274Y35560D03*
G01X83816Y35560D03*
G01X86354Y35560D03*
G01X86360Y20320D03*
G01X83820Y20320D03*
G01X81280Y20320D03*
G01X78740Y20320D03*
G01X76200Y20320D03*
G01X73660Y20320D03*
G01X71120Y20320D03*
G01X68580Y20320D03*
G01X66040Y20320D03*
G01X63500Y20320D03*
G01X60960Y20320D03*
G01X58420Y20320D03*
G01X55880Y20320D03*
G01X53340Y20320D03*
G01X50800Y20320D03*
G01X48260Y20320D03*
G01X45720Y20320D03*
G01X43180Y20320D03*
G01X40640Y20320D03*
G54D18*
G01X38100Y20320D03*
G54D21*
G01X26670Y55880D03*
G01X26670Y48260D03*
G54D15*
G01X12700Y81280D03*
G01X10160Y81280D03*
G01X22860Y82550D03*
G01X25400Y82550D03*
G01X43434Y48260D03*
G01X43434Y50800D03*
G01X12700Y43180D03*
G01X10160Y43180D03*
G01X24130Y43180D03*
G01X26670Y43180D03*
G01X81280Y16510D03*
G01X81280Y13970D03*
G54D22*
G01X86360Y5080D03*
G54D23*
G01X83820Y5080D03*
G01X81280Y5080D03*
G01X78740Y5080D03*
G01X76200Y5080D03*
G01X73660Y5080D03*
G01X71120Y5080D03*
G01X68580Y5080D03*
G01X66040Y5080D03*
G01X63500Y5080D03*
G01X60960Y5080D03*
G01X58420Y5080D03*
G01X55880Y5080D03*
G01X53340Y5080D03*
G01X50800Y5080D03*
G01X48260Y5080D03*
G01X45720Y5080D03*
G01X43180Y5080D03*
G01X40640Y5080D03*
G01X38100Y5080D03*
G01X35560Y5080D03*
G01X33020Y5080D03*
G01X30480Y5080D03*
G01X27940Y5080D03*
G01X25400Y5080D03*
G01X22860Y5080D03*
G01X20320Y5080D03*
G01X17780Y5080D03*
G01X15240Y5080D03*
G01X12700Y5080D03*
G01X10160Y5080D03*
G01X7620Y5080D03*
G01X86360Y7620D03*
G01X83820Y7620D03*
G01X81280Y7620D03*
G01X78740Y7620D03*
G01X76200Y7620D03*
G01X73660Y7620D03*
G01X71120Y7620D03*
G01X68580Y7620D03*
G01X66040Y7620D03*
G01X63500Y7620D03*
G01X60960Y7620D03*
G01X58420Y7620D03*
G01X55880Y7620D03*
G01X53340Y7620D03*
G01X50800Y7620D03*
G01X48260Y7620D03*
G01X45720Y7620D03*
G01X43180Y7620D03*
G01X40640Y7620D03*
G01X38100Y7620D03*
G01X35560Y7620D03*
G01X33020Y7620D03*
G01X30480Y7620D03*
G01X27940Y7620D03*
G01X25400Y7620D03*
G01X22860Y7620D03*
G01X20320Y7620D03*
G01X17780Y7620D03*
G01X15240Y7620D03*
G01X12700Y7620D03*
G01X10160Y7620D03*
G01X7620Y7620D03*
G54D17*
G01X50800Y86360D03*
G01X50800Y88900D03*
G01X53340Y86360D03*
G01X53340Y88900D03*
G01X55880Y86360D03*
G01X55880Y88900D03*
G01X58420Y86360D03*
G01X58420Y88900D03*
G01X60960Y86360D03*
G01X60960Y88900D03*
G01X63500Y86360D03*
G01X63500Y88900D03*
G01X66040Y86360D03*
G01X66040Y88900D03*
G01X68580Y86360D03*
G01X68580Y88900D03*
G01X71120Y86360D03*
G01X71120Y88900D03*
G01X73660Y86360D03*
G01X73660Y88900D03*
G01X76200Y86360D03*
G01X76200Y88900D03*
G01X78740Y86360D03*
G01X78740Y88900D03*
G01X81280Y86360D03*
G01X81280Y88900D03*
G01X87630Y14478D03*
G01X90170Y14478D03*
G54D22*
G01X48260Y41783D03*
G54D23*
G01X50800Y41783D03*
G01X53340Y41783D03*
G01X55880Y41783D03*
G01X58420Y41783D03*
G01X60960Y41783D03*
G01X63500Y41783D03*
G01X66040Y41783D03*
G01X68580Y41783D03*
G01X71120Y41783D03*
G01X73660Y41783D03*
G01X76200Y41783D03*
G01X78740Y41783D03*
G01X81280Y41783D03*
G01X83820Y41783D03*
G01X86360Y41783D03*
G01X86360Y57023D03*
G01X83820Y57023D03*
G01X81280Y57023D03*
G01X78740Y57023D03*
G01X76200Y57023D03*
G01X73660Y57023D03*
G01X71120Y57023D03*
G01X68580Y57023D03*
G01X66040Y57023D03*
G01X63500Y57023D03*
G01X60960Y57023D03*
G01X58420Y57023D03*
G01X55880Y57023D03*
G01X53340Y57023D03*
G01X50800Y57023D03*
G01X48260Y57023D03*
G54D15*
G01X34290Y68580D03*
G01X34290Y71120D03*
G54D14*
G01X12065Y57277D03*
G01X9906Y13208D03*
G01X20828Y12319D03*
G01X76200Y12319D03*
G01X8128Y81026D03*
G01X74930Y79883D03*
G01X60960Y75184D03*
G01X72390Y69977D03*
G01X38354Y81915D03*
G01X38354Y87630D03*
G01X43180Y86360D03*
G01X41910Y87503D03*
G01X40640Y86360D03*
G01X82169Y91440D03*
G01X84709Y91440D03*
G01X36195Y87630D03*
G01X84074Y90297D03*
G01X84074Y85217D03*
G01X82550Y75438D03*
G01X75946Y75438D03*
G01X66294Y61849D03*
G01X40640Y66040D03*
G01X80010Y91059D03*
G01X38608Y92329D03*
G01X35179Y86868D03*
G01X27178Y26670D03*
G01X28702Y41021D03*
G01X28321Y49530D03*
G01X30480Y49530D03*
G01X27940Y51816D03*
G01X26670Y63500D03*
G01X26670Y70358D03*
G01X29591Y41910D03*
G01X21590Y46355D03*
G01X21590Y49657D03*
G01X29083Y83058D03*
G01X41783Y55499D03*
G01X50800Y55499D03*
G01X50800Y44069D03*
G01X20320Y54483D03*
G01X42672Y54483D03*
G01X20828Y17145D03*
G01X56515Y73279D03*
G01X59690Y59436D03*
G01X20193Y57277D03*
G01X29210Y53594D03*
G01X52959Y53594D03*
G01X55880Y38735D03*
G01X53340Y38100D03*
G01X39370Y38735D03*
G01X39370Y22352D03*
G01X41783Y23114D03*
G01X33909Y44450D03*
G01X33909Y52070D03*
G01X35560Y65024D03*
G01X58420Y61849D03*
G01X75057Y55753D03*
G01X89154Y43561D03*
G01X81788Y30861D03*
G01X78105Y26035D03*
G01X76200Y26035D03*
G01X78740Y10033D03*
G01X92583Y53467D03*
G01X90170Y55880D03*
G01X82550Y58420D03*
G01X63500Y45847D03*
G01X52070Y37084D03*
G01X57150Y11176D03*
G01X73660Y11176D03*
G01X71120Y25400D03*
G01X71120Y28956D03*
G01X60960Y44831D03*
G01X72263Y45593D03*
G01X58420Y38735D03*
G01X67310Y38735D03*
G01X69850Y32258D03*
G01X82550Y33655D03*
G01X81534Y24511D03*
G01X83185Y32385D03*
G01X65659Y46482D03*
G01X43180Y27178D03*
G01X83947Y23495D03*
G01X85979Y23495D03*
G01X85979Y32893D03*
G01X65659Y54991D03*
G01X65659Y58674D03*
G01X74930Y18288D03*
G01X87503Y49657D03*
G01X87503Y54483D03*
G01X39370Y10414D03*
G01X43180Y10414D03*
G01X44450Y38100D03*
G01X67437Y46609D03*
G01X68574Y24643D03*
G01X20828Y14478D03*
G01X58420Y14478D03*
G01X58420Y67564D03*
G01X20193Y64643D03*
G01X17907Y56642D03*
G01X8890Y14478D03*
G01X57150Y43053D03*
G01X51054Y32385D03*
G01X55880Y10033D03*
G01X4445Y14605D03*
G01X5207Y13589D03*
G01X54610Y43053D03*
G01X58039Y29210D03*
G01X54610Y85090D03*
G01X12573Y88900D03*
G01X58420Y70739D03*
G01X41910Y70739D03*
G01X41910Y80899D03*
G01X20447Y80899D03*
G01X17526Y79248D03*
G01X63246Y26035D03*
G01X69850Y22098D03*
G01X59690Y72136D03*
G01X44450Y72136D03*
G01X44450Y87630D03*
G01X44450Y90170D03*
G01X36830Y27940D03*
G01X66167Y15240D03*
G01X64770Y43053D03*
G01X59690Y43942D03*
G01X59690Y29210D03*
G01X59690Y26289D03*
G01X76200Y38862D03*
G01X74930Y65659D03*
G01X39624Y55753D03*
G01X35306Y55753D03*
G01X35306Y52070D03*
G01X46863Y32893D03*
G01X16891Y62230D03*
G01X20320Y74930D03*
G01X36576Y52070D03*
G01X46990Y34036D03*
G01X29210Y13335D03*
G01X21971Y13335D03*
G01X27288Y38100D03*
G01X27305Y34290D03*
G01X20320Y52705D03*
G01X12065Y52705D03*
G01X29591Y50546D03*
M00*
M02*
